<svg width="45" height="44" viewBox="0 0 45 44" fill="none" xmlns="http://www.w3.org/2000/svg">
<g id="icon / AI CS">
<path id="Vector" d="M32.5409 5.26517C35.1839 6.77584 36.5879 10.3633 38.2349 13.898C39.9089 17.4062 41.8229 20.8588 41.4989 24.0414C41.1749 27.2241 38.5859 30.1926 35.5889 31.6769C32.5949 33.1876 29.1659 33.2404 25.9559 34.3756C22.7459 35.4814 19.7489 37.6668 16.1609 38.2329C12.5729 38.799 8.41789 37.7753 5.93389 35.1294C3.45289 32.5129 2.61589 28.3036 3.15589 24.6076C3.66889 20.8852 5.52889 17.6468 7.74289 15.3001C9.95689 12.9534 12.4919 11.4956 14.9459 9.90571C17.4269 8.31291 19.8029 6.61451 22.9319 5.48224C26.0609 4.32357 29.9189 3.75451 32.5379 5.26517H32.5409Z" fill="#A6BAD2"/>
<path id="Vector_2" d="M33.5999 19.9378C33.5999 20.4248 33.1979 20.8178 32.6999 20.8178H21.4619L17.4179 24.3349V20.8178H13.8209C13.3259 20.8178 12.9209 20.4248 12.9209 19.9378V14.6637C12.9209 14.1797 13.3229 13.7837 13.8209 13.7837H32.6999C33.1949 13.7837 33.5999 14.1768 33.5999 14.6637V19.9378Z" fill="white" stroke="#281E1E" stroke-width="0.75" stroke-linecap="round" stroke-linejoin="round"/>
<path id="Vector_3" d="M15.1711 23.4519H13.8241C13.3291 23.4519 12.9241 23.845 12.9241 24.3319V29.606C12.9241 30.09 13.3261 30.486 13.8241 30.486H25.0621L29.1061 34.0031V30.486H32.7031C33.1981 30.486 33.6031 30.093 33.6031 29.606V24.3319C33.6031 23.845 33.2011 23.4519 32.7031 23.4519H21.9151" stroke="#281E1E" stroke-width="0.75" stroke-linecap="round" stroke-linejoin="round"/>
</g>
</svg>
