<svg width="24" height="24" viewBox="0 0 24 24" fill="none" xmlns="http://www.w3.org/2000/svg">
<path d="M11.6328 12.4895V19.4863" stroke="#FB4D3D" stroke-linecap="round" stroke-linejoin="round"/>
<path d="M14.5365 13.392C13.8261 13.8672 13.4597 14.7312 14.5365 15.4592C15.1269 16.936 16.2245 16.5408 16.8757 15.8528C17.6149 14.7888 17.8037 13.4368 17.3845 12.2112C16.3477 12.9952 15.4229 12.8016 14.5365 13.392Z" stroke="#FB4D3D" stroke-linecap="round" stroke-linejoin="round"/>
<path d="M6.77349 15.9634C7.30149 16.5394 8.13669 16.749 8.64229 15.6722C9.89349 14.9314 9.38149 13.9938 8.66949 13.5026C7.60389 12.9826 6.35429 13.0018 5.30469 13.5538C6.15909 14.3826 6.11429 15.245 6.77349 15.9618V15.9634Z" stroke="#FB4D3D" stroke-linecap="round" stroke-linejoin="round"/>
<path d="M11.6328 19.4864C11.6328 19.4864 13.2232 15.9888 15.7672 14.3984" stroke="#FB4D3D" stroke-linecap="round" stroke-linejoin="round"/>
<path d="M7.82031 8.67367C7.82031 10.7809 9.52911 12.4897 11.6363 12.4897C13.7435 12.4897 15.4523 10.7809 15.4523 8.67367C15.4523 6.56647 13.7435 4.85767 11.6363 4.85767C9.52911 4.85767 7.82031 6.56647 7.82031 8.67367Z" stroke="#FB4D3D" stroke-linecap="round" stroke-linejoin="round"/>
<path d="M11.6363 18.8512C11.6363 18.8512 10.9995 16.6256 7.82031 14.7168" stroke="#FB4D3D" stroke-linecap="round" stroke-linejoin="round"/>
<path d="M12.5909 6.76489H11.2981C10.8261 6.76489 10.4453 7.14729 10.4453 7.61929C10.4453 7.96809 10.6565 8.28009 10.9797 8.41129L12.2933 8.93609C12.7301 9.11209 12.9429 9.60969 12.7669 10.0465C12.6373 10.3697 12.3237 10.5809 11.9749 10.5809H10.6837" stroke="#FB4D3D" stroke-linecap="round" stroke-linejoin="round"/>
<path d="M11.6328 11.2176V10.5808" stroke="#FB4D3D" stroke-linecap="round" stroke-linejoin="round"/>
<path d="M11.6328 6.76473V6.12793" stroke="#FB4D3D" stroke-linecap="round" stroke-linejoin="round"/>
</svg>
