<svg xmlns="http://www.w3.org/2000/svg" width="14" height="14" viewBox="0 0 14 14" fill="none">
    <path fill-rule="evenodd" clip-rule="evenodd" d="M6.99844 12.6004C10.0912 12.6004 12.5984 10.0932 12.5984 7.00039C12.5984 3.9076 10.0912 1.40039 6.99844 1.40039C3.90564 1.40039 1.39844 3.9076 1.39844 7.00039C1.39844 10.0932 3.90564 12.6004 6.99844 12.6004ZM7.99844 4.20039C7.99844 3.64811 7.55072 3.20039 6.99844 3.20039C6.44615 3.20039 5.99844 3.64811 5.99844 4.20039V7.00039C5.99844 7.26561 6.10379 7.51996 6.29133 7.7075L8.27123 9.6874C8.66175 10.0779 9.29492 10.0779 9.68544 9.6874C10.076 9.29687 10.076 8.66371 9.68544 8.27318L7.99844 6.58618V4.20039Z" fill="#FB4D3D"/>
</svg>