<svg width="24" height="24" viewBox="0 0 24 24" fill="none" xmlns="http://www.w3.org/2000/svg">
<path d="M11.125 16.0657H12.7826" stroke="#6A728E" stroke-linecap="round" stroke-linejoin="round"/>
<path d="M11.125 17.1711H12.7826" stroke="#6A728E" stroke-linecap="round" stroke-linejoin="round"/>
<path d="M11.9531 17.1711V17.7231" stroke="#6A728E" stroke-linecap="round" stroke-linejoin="round"/>
<path d="M15.1973 11.3936C15.1461 9.65279 13.6949 8.28159 11.9541 8.32959C10.2133 8.28159 8.76214 9.65279 8.71094 11.3936C8.77014 12.8032 9.75414 14.0016 11.1253 14.3344V14.96H12.7829V14.3344C14.1541 14.0016 15.1381 12.8016 15.1973 11.3936Z" fill="white" stroke="#6A728E" stroke-linecap="round" stroke-linejoin="round"/>
<path d="M9.31066 15.7473L8.64026 16.0657C8.12506 16.3137 7.50586 16.0961 7.25946 15.5793C7.12346 15.2961 7.12346 14.9665 7.25946 14.6833L7.57786 14.0129C7.82426 13.4961 7.60346 12.8785 7.08826 12.6337C7.05626 12.6177 7.02266 12.6049 6.99066 12.5937L6.29146 12.3457C5.75226 12.1537 5.47066 11.5617 5.66106 11.0225C5.76506 10.7281 5.99706 10.4977 6.29146 10.3921L6.99066 10.1441C7.52986 9.95206 7.81146 9.36006 7.61946 8.82246C7.60826 8.78886 7.59386 8.75686 7.57946 8.72486L7.26106 8.05446C7.01306 7.53926 7.23066 6.92006 7.74746 6.67366C8.03066 6.53766 8.36026 6.53766 8.64346 6.67366L9.31386 6.99206C9.83066 7.23686 10.4483 7.01766 10.6931 6.50086C10.7075 6.46886 10.7219 6.43686 10.7331 6.40326L10.9811 5.70406C11.1731 5.16486 11.7651 4.88326 12.3043 5.07366C12.5987 5.17766 12.8291 5.40966 12.9347 5.70406L13.1827 6.40326C13.3747 6.94246 13.9667 7.22406 14.5059 7.03206C14.5395 7.02086 14.5715 7.00646 14.6035 6.99206L15.2739 6.67366C15.7891 6.42566 16.4083 6.64326 16.6547 7.16006C16.7907 7.44326 16.7907 7.77286 16.6547 8.05606L16.3363 8.72646C16.0899 9.24326 16.3107 9.86086 16.8259 10.1057C16.8579 10.1217 16.8915 10.1345 16.9235 10.1457L17.6227 10.3937C18.1619 10.5857 18.4435 11.1777 18.2531 11.7169C18.1491 12.0113 17.9171 12.2417 17.6227 12.3473L16.9235 12.5953C16.3843 12.7873 16.1027 13.3793 16.2947 13.9185C16.3059 13.9521 16.3203 13.9841 16.3347 14.0161L16.6531 14.6849C16.9011 15.2001 16.6835 15.8193 16.1667 16.0657C15.8835 16.2017 15.5539 16.2017 15.2707 16.0657L14.6003 15.7473" stroke="#6A728E" stroke-linecap="round" stroke-linejoin="round"/>
</svg>
