<svg width="255" height="98" viewBox="0 0 255 98" fill="none" xmlns="http://www.w3.org/2000/svg">
<g clip-path="url(#clip0_2143_3501)">
<path d="M101.158 29.8993C101.992 29.8993 102.669 29.2502 102.669 28.4496C102.669 27.649 101.992 27 101.158 27C100.323 27 99.647 27.649 99.647 28.4496C99.647 29.2502 100.323 29.8993 101.158 29.8993Z" fill="#224C8A"/>
<path fill-rule="evenodd" clip-rule="evenodd" d="M86.5521 39.4255L82.0193 27.9319H78.4937V45.9488H81.3142V33.6269L82.0193 35.3872L86.0482 45.8453H88.2645L92.3943 35.3872L92.9988 33.5234H93.0994V45.8453H96.0205V27.9319H92.4949L87.962 39.4255L87.3578 41.1857H87.2573L86.5521 39.4255ZM99.6467 31.556V45.8453H102.669V31.3489L99.6467 31.556ZM115.159 44.6027L115.462 45.9488H117.778V27L114.857 27.2071V32.695C113.85 31.7631 112.54 31.2454 111.13 31.2454C107.504 31.2454 105.791 33.9376 105.791 38.7006C105.791 43.8779 107.403 46.2594 111.13 46.2594C112.943 46.2594 114.152 45.6382 115.059 44.6027H115.159ZM112.037 34.0411C113.346 34.0411 114.353 34.5588 114.857 35.3872V42.2212C114.555 42.946 113.648 43.6708 112.037 43.6708C109.619 43.6708 108.914 42.4283 108.914 38.8042C108.914 35.2836 109.72 34.0411 112.037 34.0411ZM132.988 41.4964L130.772 31.4525H127.65L125.434 41.4964L125.131 43.3602H125.031L124.729 41.4964L122.815 31.4525H119.793L123.319 45.8453H126.945L128.959 36.5262L129.362 34.6623H129.463L129.765 36.5262L131.679 45.8453H135.406L138.629 31.4525H135.708L133.794 41.4964L133.492 43.3602H133.391L132.988 41.4964ZM146.083 31.3489C141.954 31.3489 140.04 33.9375 140.04 38.4936C140.04 43.5673 142.155 46.1559 146.688 46.1559C148.4 46.1559 149.911 45.8453 151.12 45.224L150.818 42.7389C149.71 43.2566 148.501 43.5673 147.091 43.5673C144.472 43.5673 143.162 42.5318 143.061 39.529H151.623C151.724 39.1149 151.724 38.4936 151.724 38.0794C151.724 33.4199 149.508 31.3489 146.083 31.3489ZM146.083 33.834C147.796 33.834 149.004 34.7659 149.004 37.3545H143.061C143.162 34.8695 144.069 33.834 146.083 33.834ZM153.84 45.1205C154.948 45.8453 156.459 46.1559 158.171 46.1559C161.797 46.1559 163.409 44.2921 163.308 41.5999C163.308 38.7131 161.031 37.9921 159.123 37.3876C157.745 36.9514 156.559 36.5758 156.559 35.4907C156.559 34.5588 157.365 33.9376 158.775 33.9376C159.883 33.9376 161.294 34.1446 162.502 34.6623L162.805 32.0737C161.596 31.556 160.286 31.2454 158.876 31.2454C155.451 31.2454 153.739 33.0056 153.739 35.4907C153.739 38.3538 156.012 39.1209 157.939 39.7714C159.357 40.2501 160.589 40.6656 160.589 41.807C160.589 42.8425 159.883 43.6708 158.171 43.6708C156.861 43.6708 155.25 43.2566 154.142 42.5318L153.84 45.1205ZM169.352 41.807V33.834H172.575V31.4525H169.251V27.8284L166.935 28.0355L166.431 31.4525H164.618V33.834H166.33V41.807C166.33 44.4992 167.639 46.0524 170.258 46.0524C171.165 46.0524 171.971 45.8453 172.475 45.6382L172.273 43.3602C172.072 43.4637 171.568 43.5673 171.165 43.5673C169.956 43.5673 169.352 43.0496 169.352 41.807ZM78.4937 71.3176H86.3506C90.581 71.3176 92.2937 69.3502 92.2937 66.1403C92.2937 63.7586 91.1856 62.309 89.2717 61.7913C90.6819 61.2736 91.5886 60.031 91.5886 57.9601C91.5886 55.0608 89.7753 53.4041 86.1491 53.4041H78.4937V71.3176ZM81.5153 56.1998H86.0482C87.8614 56.1998 88.5666 56.8211 88.5666 58.4778C88.5666 60.031 87.7609 60.6523 86.1491 60.6523H81.5153V56.1998ZM81.6162 63.5516H86.3506C88.2645 63.5516 89.0702 64.2764 89.0702 66.0366C89.0702 68.0039 88.1635 68.5216 86.3506 68.5216H81.6162V63.5516ZM99.0425 71.5247C100.755 71.5247 102.165 70.9033 103.072 69.7641L103.273 71.421H105.489V62.309C105.489 58.4778 104.079 56.7176 100.151 56.7176C98.438 56.7176 96.9271 57.0282 95.5169 57.6495L95.819 60.1345C97.1287 59.5133 98.2368 59.3062 99.7477 59.3062C101.863 59.3062 102.669 60.031 102.669 61.7913V62.8267C101.863 62.6197 100.856 62.4125 99.7477 62.4125C96.5241 62.4125 94.7112 64.1728 94.7112 66.8652C94.7112 70.075 96.4235 71.5247 99.0425 71.5247ZM100.251 64.5869C101.46 64.5869 102.367 64.794 102.669 65.0012H102.568V67.1757C102.568 68.2111 101.258 69.1431 99.7477 69.1431C98.438 69.1431 97.4308 68.5216 97.4308 66.8652C97.4308 65.4155 98.3374 64.5869 100.251 64.5869ZM117.375 61.9984V71.3176H120.397V61.9984C120.397 58.4778 118.483 56.614 115.562 56.614C114.051 56.614 112.54 57.1317 111.533 58.1672L111.029 56.8211L108.914 57.0282V71.3176H111.835V60.7558C112.44 59.9275 113.648 59.4097 114.656 59.4097C116.469 59.4097 117.375 60.1345 117.375 61.9984ZM128.557 62.309H126.542V52.3687L123.621 52.5757V71.3176H126.542V64.8978H128.557L132.082 71.3176H135.507L131.075 63.448L135.305 56.9246H131.981L128.557 62.309ZM145.076 56.0963C146.385 56.0963 147.695 56.4069 148.602 56.7176L148.904 54.0254C147.997 53.5076 146.285 53.197 144.875 53.197C139.435 53.197 137.018 56.1998 137.018 62.309C137.018 68.7288 139.536 71.7315 144.774 71.7315C146.285 71.7315 147.997 71.3176 149.105 70.6961L148.702 67.9005C147.695 68.3145 146.486 68.6254 145.177 68.6254C141.752 68.6254 140.442 67.1757 140.442 62.2055C140.442 57.5459 141.651 56.0963 145.076 56.0963ZM156.761 56.7176C152.631 56.7176 150.717 59.3062 150.717 63.8622C150.717 69.0393 152.832 71.6281 157.466 71.5247C159.178 71.5247 160.689 71.2138 161.898 70.5927L161.596 68.1077C160.488 68.6254 159.279 68.9359 157.869 68.9359C155.25 68.9359 153.94 67.9005 153.84 64.8978H162.301C162.402 64.4835 162.402 63.8622 162.402 63.448C162.402 58.7884 160.186 56.7176 156.761 56.7176ZM156.761 59.2026C158.473 59.2026 159.682 60.1345 159.682 62.7232H153.739C153.84 60.2381 154.746 59.2026 156.761 59.2026ZM173.482 61.9984V71.3176H176.504V61.9984C176.504 58.4778 174.59 56.614 171.669 56.614C170.158 56.614 168.647 57.1317 167.639 58.1672L167.136 56.8211L165.02 57.0282V71.3176H167.942V60.7558C168.546 59.9275 169.755 59.4097 170.762 59.4097C172.575 59.4097 173.482 60.1345 173.482 61.9984ZM182.749 67.1757V59.2026V59.0991H185.972V56.7176H182.648V53.0935L180.332 53.3006L179.828 56.7176H178.015V59.0991H179.727V67.1757C179.727 69.8679 181.037 71.421 183.656 71.421C184.562 71.421 185.368 71.2138 185.872 71.0067L185.67 68.7288C185.469 68.8325 184.965 68.9359 184.562 68.9359C183.353 68.9359 182.749 68.4182 182.749 67.1757ZM188.894 57.0282V71.3176V71.421H191.915V64.1728C191.915 61.4806 193.527 59.8239 195.542 59.8239C196.146 59.8239 196.65 59.9275 197.053 60.031L197.254 56.9246C196.851 56.8211 196.348 56.7176 195.743 56.7176C194.031 56.7176 192.621 57.753 191.714 59.6168H191.613L191.311 56.9246L188.894 57.0282ZM203.902 56.7176C199.772 56.7176 197.859 59.3062 197.859 63.8622C197.859 69.0393 199.873 71.6281 204.507 71.5247C206.219 71.5247 207.73 71.2138 208.939 70.5927L208.637 68.1077C207.529 68.6254 206.32 68.9359 204.91 68.9359C202.291 68.9359 200.981 67.9005 200.881 64.8978H209.443C209.543 64.4835 209.543 63.8622 209.543 63.448C209.543 58.7884 207.327 56.7176 203.902 56.7176ZM203.802 59.2026C205.514 59.2026 206.723 60.1345 206.723 62.7232H200.78C200.881 60.2381 201.787 59.2026 203.802 59.2026ZM212.565 71.3176V69.4536H213.169V69.0393H211.558V69.4536H212.162V71.3176H212.565ZM214.58 70.6961L214.479 70.489L213.875 69.0393H213.371V71.3176H213.774V69.7641L213.875 69.9713L214.378 71.3176H214.68L215.184 69.9713L215.285 69.7641V71.3176H215.688V69.0393H215.285L214.68 70.489L214.58 70.6961Z" fill="#224C8A"/>
<path fill-rule="evenodd" clip-rule="evenodd" d="M62.7797 42.9458C62.7797 28.8636 67.6147 27.6211 71.1403 27.6211V71.3172H64.895C64.0892 64.4832 62.7797 52.3684 62.7797 42.9458ZM57.1388 30.6239C58.7505 29.1743 60.4629 28.553 62.6789 28.8636C59.657 31.2452 55.8293 34.4551 55.8293 48.7444C55.8293 56.6138 57.9446 65.6223 59.4556 71.3172H50.3899C47.9724 65.9329 44.749 57.5458 44.749 50.7117C44.749 39.2182 49.3826 31.5558 57.1388 30.6239ZM38 52.8862C38 44.2919 43.3387 37.872 46.3606 36.526C43.5401 40.3572 41.3241 45.638 41.4248 52.2649C41.4248 59.4095 44.4467 66.5543 46.965 71.3172H43.238C40.8204 66.9682 38 60.3414 38 52.8862Z" fill="#D7393B"/>
</g>
<defs>
<clipPath id="clip0_2143_3501">
<rect width="178" height="45" fill="white" transform="translate(38 27)"/>
</clipPath>
</defs>
</svg>
