<svg xmlns="http://www.w3.org/2000/svg" width="28" height="28" viewBox="0 0 28 28" fill="none">
    <path fill-rule="evenodd" clip-rule="evenodd" d="M12.5969 4.8998C8.34428 4.8998 4.89688 8.34721 4.89688 12.5998C4.89688 16.8524 8.34428 20.2998 12.5969 20.2998C14.7235 20.2998 16.647 19.4391 18.0416 18.0445C19.4362 16.65 20.2969 14.7264 20.2969 12.5998C20.2969 8.34721 16.8495 4.8998 12.5969 4.8998ZM2.79688 12.5998C2.79688 7.18741 7.18448 2.7998 12.5969 2.7998C18.0093 2.7998 22.3969 7.18741 22.3969 12.5998C22.3969 14.9273 21.5844 17.0666 20.2293 18.7473L24.8893 23.4073C25.2994 23.8174 25.2994 24.4822 24.8893 24.8923C24.4793 25.3023 23.8145 25.3023 23.4044 24.8923L18.7444 20.2322C17.0637 21.5874 14.9244 22.3998 12.5969 22.3998C7.18448 22.3998 2.79688 18.0122 2.79688 12.5998Z" fill="#DC3829"/>
</svg>