<svg width="146" height="30" viewBox="0 0 146 30" fill="none" xmlns="http://www.w3.org/2000/svg">
<g clip-path="url(#clip0_7866_552)">
<path d="M13.072 0.438477V26.5806C9.66194 26.4953 6.42021 25.0808 4.0385 22.6388C1.6568 20.1968 0.32373 16.9207 0.32373 13.5095C0.32373 10.0984 1.6568 6.82231 4.0385 4.3803C6.42021 1.9383 9.66194 0.523748 13.072 0.438477Z" fill="#6055E0"/>
<path d="M27.5348 11.1873H14.6694V0.438477C17.7335 0.438744 20.7001 1.5151 23.0515 3.47965C25.4029 5.4442 26.9897 8.17215 27.5348 11.1873Z" fill="#6055E0"/>
<path d="M14.6694 15.0195C15.0407 18.2029 16.5682 21.139 18.9618 23.2702C21.3554 25.4015 24.4484 26.5793 27.6533 26.5801V15.0195H14.6694Z" fill="#6055E0"/>
<path d="M45.4892 20.4695C44.11 20.4695 42.8797 20.1638 41.7983 19.5526C40.7325 18.9414 39.9018 18.0402 39.3063 16.849C38.7107 15.6579 38.4129 14.2081 38.4129 12.4998C38.4129 10.8228 38.7264 9.38872 39.3533 8.19757C39.9802 7.00643 40.8736 6.08957 42.0333 5.44698C43.2088 4.80439 44.588 4.48309 46.171 4.48309C47.9264 4.48309 49.3448 4.80439 50.4262 5.44698C51.5076 6.07389 52.3461 7.07696 52.9417 8.45618L49.2037 9.93727C49 9.13795 48.6395 8.55805 48.1223 8.19757C47.6051 7.8371 46.9625 7.65686 46.1945 7.65686C45.4265 7.65686 44.7683 7.84493 44.2197 8.22108C43.6712 8.58156 43.2558 9.12228 42.9737 9.84323C42.6916 10.5485 42.5506 11.4262 42.5506 12.4763C42.5506 13.5734 42.6916 14.4903 42.9737 15.2269C43.2715 15.9635 43.7025 16.5121 44.2667 16.8725C44.8466 17.2173 45.5598 17.3897 46.4061 17.3897C46.8606 17.3897 47.2759 17.3349 47.6521 17.2252C48.0282 17.1155 48.3574 16.9587 48.6395 16.755C48.9216 16.5356 49.141 16.2691 49.2977 15.9557C49.4545 15.6265 49.5328 15.2426 49.5328 14.8037V14.5686H45.9829V11.865H52.9652V20.2344H50.2146L49.909 16.5904L50.5673 17.1546C50.2381 18.2204 49.6425 19.0432 48.7805 19.6231C47.9342 20.1874 46.8371 20.4695 45.4892 20.4695ZM55.7783 20.2344V8.47969H59.3047L59.4692 11.0187C59.767 10.141 60.2059 9.45924 60.7857 8.97338C61.3813 8.48752 62.1336 8.24459 63.0426 8.24459C63.3404 8.24459 63.5912 8.2681 63.7949 8.31512C64.0144 8.36214 64.1868 8.42483 64.3122 8.5032L63.9125 11.7945C63.7558 11.7318 63.552 11.6848 63.3013 11.6535C63.0662 11.6064 62.7762 11.5829 62.4314 11.5829C61.9612 11.5829 61.5224 11.6848 61.1149 11.8885C60.7074 12.0923 60.3783 12.3979 60.1275 12.8054C59.8924 13.1972 59.7748 13.6988 59.7748 14.31V20.2344H55.7783ZM71.3374 8.24459C72.5756 8.24459 73.657 8.48752 74.5817 8.97338C75.5221 9.44357 76.2509 10.141 76.7681 11.0657C77.301 11.9747 77.5674 13.0719 77.5674 14.357C77.5674 15.6422 77.301 16.7472 76.7681 17.6719C76.2509 18.5809 75.5221 19.2783 74.5817 19.7642C73.657 20.2344 72.5756 20.4695 71.3374 20.4695C70.1306 20.4695 69.057 20.2344 68.1166 19.7642C67.1763 19.2783 66.4396 18.5809 65.9068 17.6719C65.3895 16.7472 65.1309 15.6422 65.1309 14.357C65.1309 13.0719 65.3895 11.9747 65.9068 11.0657C66.4396 10.141 67.1763 9.44357 68.1166 8.97338C69.057 8.48752 70.1306 8.24459 71.3374 8.24459ZM71.3374 11.0892C70.8829 11.0892 70.4911 11.1989 70.1619 11.4184C69.8328 11.6378 69.5821 11.9904 69.4096 12.4763C69.2372 12.9621 69.151 13.5891 69.151 14.357C69.151 15.125 69.2372 15.7519 69.4096 16.2378C69.5821 16.708 69.8328 17.0606 70.1619 17.2957C70.4911 17.5151 70.8829 17.6248 71.3374 17.6248C71.8076 17.6248 72.2073 17.5151 72.5364 17.2957C72.8655 17.0606 73.1163 16.708 73.2887 16.2378C73.4611 15.7519 73.5473 15.125 73.5473 14.357C73.5473 13.5891 73.4611 12.9621 73.2887 12.4763C73.1163 11.9904 72.8655 11.6378 72.5364 11.4184C72.2073 11.1989 71.8076 11.0892 71.3374 11.0892ZM87.2496 8.47969H91.3872L87.1556 20.2344H82.3832L78.1515 8.47969H82.3596L84.7811 17.4368L87.2496 8.47969ZM98.3168 20.4695C97.016 20.4695 95.8875 20.2265 94.9315 19.7407C93.9911 19.2548 93.2623 18.5574 92.7451 17.6483C92.2279 16.7393 91.9693 15.6422 91.9693 14.357C91.9693 13.0719 92.2279 11.9747 92.7451 11.0657C93.2623 10.1567 93.9833 9.45924 94.908 8.97338C95.8483 8.48752 96.9219 8.24459 98.1287 8.24459C99.3669 8.24459 100.417 8.48752 101.279 8.97338C102.157 9.44357 102.823 10.1018 103.277 10.9482C103.732 11.7788 103.959 12.7349 103.959 13.8163C103.959 14.0984 103.951 14.3805 103.936 14.6627C103.92 14.9448 103.896 15.1799 103.865 15.3679H94.5553V13.2286H102.102L100.198 13.9574C100.198 13.017 100.025 12.296 99.6804 11.7945C99.3512 11.293 98.834 11.0422 98.1287 11.0422C97.6272 11.0422 97.1962 11.1598 96.8357 11.3948C96.4909 11.6299 96.2245 11.9983 96.0364 12.4998C95.864 13.0013 95.7778 13.6439 95.7778 14.4276C95.7778 15.1955 95.8797 15.8224 96.0834 16.3083C96.2872 16.7785 96.5771 17.1233 96.9533 17.3427C97.3294 17.5465 97.7839 17.6483 98.3168 17.6483C98.9124 17.6483 99.3826 17.5308 99.7274 17.2957C100.088 17.0606 100.354 16.7315 100.527 16.3083L103.724 17.3662C103.505 18.0402 103.121 18.6122 102.572 19.0824C102.039 19.5369 101.397 19.8817 100.644 20.1168C99.9076 20.3519 99.1318 20.4695 98.3168 20.4695ZM106.195 25.1713V8.47969H109.792L110.003 12.7349L109.533 12.2412C109.643 11.4575 109.886 10.7679 110.262 10.1724C110.638 9.57679 111.124 9.1066 111.72 8.7618C112.315 8.41699 112.997 8.24459 113.765 8.24459C114.737 8.24459 115.583 8.48752 116.304 8.97338C117.025 9.44357 117.581 10.1332 117.973 11.0422C118.381 11.9356 118.584 13.0248 118.584 14.31C118.584 15.5952 118.381 16.7001 117.973 17.6248C117.566 18.5495 116.993 19.2548 116.257 19.7407C115.536 20.2265 114.69 20.4695 113.718 20.4695C112.652 20.4695 111.79 20.156 111.132 19.5291C110.474 18.8865 110.035 18.0793 109.815 17.1076L110.191 16.5434V25.1713H106.195ZM112.354 17.5308C113.044 17.5308 113.585 17.28 113.976 16.7785C114.368 16.2613 114.564 15.4541 114.564 14.357C114.564 13.2599 114.368 12.4606 113.976 11.9591C113.6 11.4419 113.067 11.1833 112.378 11.1833C111.939 11.1833 111.555 11.3086 111.226 11.5594C110.897 11.7945 110.638 12.1471 110.45 12.6173C110.278 13.0875 110.191 13.6674 110.191 14.357C110.191 15.0153 110.27 15.5874 110.427 16.0732C110.599 16.5434 110.85 16.9039 111.179 17.1546C111.508 17.4054 111.9 17.5308 112.354 17.5308ZM127.378 12.7819C127.378 12.2334 127.222 11.8023 126.908 11.4889C126.61 11.1598 126.203 10.9952 125.686 10.9952C125.169 10.9952 124.722 11.1284 124.346 11.3948C123.985 11.6456 123.734 12.1001 123.593 12.7584L120.208 11.9591C120.428 10.8306 121.007 9.92943 121.948 9.2555C122.888 8.58156 124.213 8.24459 125.921 8.24459C127.065 8.24459 128.037 8.41699 128.836 8.7618C129.651 9.09093 130.27 9.59246 130.693 10.2664C131.132 10.9247 131.352 11.7397 131.352 12.7114V17.0136C131.352 17.6248 131.626 17.9305 132.174 17.9305C132.456 17.9305 132.684 17.8991 132.856 17.8364L132.621 20.1168C132.151 20.3362 131.579 20.446 130.905 20.446C130.294 20.446 129.753 20.3519 129.283 20.1638C128.813 19.9601 128.444 19.6623 128.178 19.2705C127.911 18.863 127.778 18.3536 127.778 17.7424V17.6013L128.225 17.4368C128.225 18.1107 128.021 18.6749 127.614 19.1294C127.222 19.5839 126.705 19.9209 126.062 20.1403C125.435 20.3598 124.777 20.4695 124.087 20.4695C123.288 20.4695 122.59 20.3441 121.995 20.0933C121.399 19.8426 120.937 19.4821 120.608 19.0119C120.294 18.526 120.138 17.9305 120.138 17.2252C120.138 16.3788 120.388 15.6814 120.89 15.1328C121.407 14.5686 122.214 14.1768 123.311 13.9574L127.755 13.0405L127.731 15.1563L125.474 15.6265C125.004 15.7206 124.651 15.8616 124.416 16.0497C124.197 16.2221 124.087 16.4885 124.087 16.849C124.087 17.1938 124.213 17.4524 124.463 17.6248C124.714 17.7972 125.012 17.8834 125.357 17.8834C125.623 17.8834 125.874 17.8443 126.109 17.7659C126.36 17.6875 126.579 17.57 126.767 17.4132C126.955 17.2408 127.104 17.0293 127.214 16.7785C127.324 16.5277 127.378 16.2299 127.378 15.8851V12.7819ZM145.501 8.47969L141.223 20.2344C140.784 21.4725 140.306 22.4599 139.788 23.1966C139.271 23.9332 138.66 24.4661 137.955 24.7952C137.249 25.1243 136.403 25.2889 135.416 25.2889C134.757 25.2889 134.154 25.2184 133.605 25.0773C133.057 24.9363 132.579 24.7403 132.171 24.4896L132.971 21.786C133.253 21.9897 133.551 22.1308 133.864 22.2092C134.178 22.3032 134.577 22.3502 135.063 22.3502C135.518 22.3502 135.886 22.2719 136.168 22.1151C136.466 21.9584 136.701 21.6606 136.873 21.2218L137.179 20.493L135.815 17.2957L132.289 8.47969H136.685L138.495 15.1799L139.06 17.6719L139.718 15.0858L141.528 8.47969H145.501Z" fill="#6055E0"/>
</g>
<defs>
<clipPath id="clip0_7866_552">
<rect width="145.461" height="29.2829" fill="white" transform="translate(0 0.438477)"/>
</clipPath>
</defs>
</svg>
