<svg width="456" height="375" viewBox="0 0 456 375" fill="none" xmlns="http://www.w3.org/2000/svg">
<path d="M277.276 211.065C277.071 211.065 276.873 210.983 276.728 210.837C274.958 209.057 273.26 207.111 271.47 205.062L270.435 203.913C270.298 203.758 270.228 203.555 270.24 203.348C270.253 203.141 270.347 202.948 270.502 202.811C270.657 202.674 270.861 202.604 271.067 202.616C271.274 202.629 271.467 202.723 271.604 202.878L272.639 204.037C274.42 206.107 276.096 207.991 277.815 209.74C277.923 209.849 277.997 209.987 278.027 210.138C278.057 210.288 278.041 210.444 277.982 210.586C277.924 210.728 277.824 210.849 277.697 210.934C277.569 211.019 277.419 211.065 277.266 211.065H277.276Z" fill="#FE6059"/>
<path d="M277.556 242.612C273.685 240.873 271.035 239.766 271.035 239.766C271.035 239.766 275.548 225.669 267.444 220.659L269.669 220.835C272.257 221.126 274.827 221.555 277.37 222.119C278.834 225.331 279.607 228.815 279.639 232.346C279.671 235.876 278.961 239.373 277.556 242.612Z" fill="#FE6059"/>
<path d="M253.544 168.93C249.766 169.53 243.194 171.497 232.657 177.51C231.891 174.612 231.157 171.828 230.463 169.23C237.501 164.562 245.336 162.068 250.335 161.902C251.267 164.076 252.364 166.446 253.544 168.93Z" fill="#FE6059"/>
<path d="M370.137 190.51H370.003C363.418 189.511 356.759 189.078 350.1 189.216C349.894 189.216 349.696 189.134 349.551 188.989C349.405 188.843 349.323 188.646 349.323 188.44C349.323 188.234 349.405 188.036 349.551 187.891C349.696 187.745 349.894 187.664 350.1 187.664H350.255C356.931 187.528 363.607 187.961 370.21 188.957C370.403 188.989 370.577 189.093 370.697 189.247C370.817 189.402 370.874 189.596 370.857 189.791C370.84 189.986 370.75 190.167 370.605 190.298C370.46 190.43 370.271 190.502 370.075 190.499L370.137 190.51Z" fill="#FE6059"/>
<path d="M330.848 189.454C322.02 189.454 314.371 188.958 310.324 186.484C306.161 183.977 302.524 180.687 299.612 176.796C298.52 175.252 297.185 173.896 295.658 172.78C295.566 172.728 295.486 172.658 295.423 172.574C295.359 172.49 295.314 172.393 295.289 172.291C295.264 172.189 295.26 172.082 295.277 171.978C295.294 171.874 295.333 171.775 295.39 171.686C295.447 171.598 295.521 171.522 295.608 171.463C295.696 171.404 295.794 171.363 295.898 171.343C296.001 171.324 296.108 171.325 296.211 171.348C296.314 171.371 296.411 171.415 296.496 171.476C298.162 172.68 299.62 174.149 300.812 175.823C303.628 179.568 307.143 182.731 311.162 185.138C316.162 188.243 327.723 187.995 339.925 187.778C340.131 187.778 340.329 187.859 340.474 188.005C340.62 188.151 340.702 188.348 340.702 188.554C340.702 188.76 340.62 188.957 340.474 189.103C340.329 189.248 340.131 189.33 339.925 189.33C336.82 189.403 333.767 189.454 330.848 189.454Z" fill="#FE6059"/>
<path d="M352.066 209.109H351.859C344.614 207.091 339.905 205.766 333.467 205.735C333.261 205.735 333.064 205.653 332.918 205.507C332.773 205.362 332.691 205.164 332.691 204.958C332.691 204.753 332.773 204.555 332.918 204.409C333.064 204.264 333.261 204.182 333.467 204.182C340.112 204.182 345.215 205.641 352.273 207.608C352.452 207.66 352.606 207.774 352.707 207.93C352.809 208.086 352.851 208.274 352.825 208.458C352.8 208.642 352.71 208.811 352.571 208.935C352.431 209.058 352.252 209.127 352.066 209.129V209.109Z" fill="#FE6059"/>
<path d="M318.977 206.48C310.122 206.524 301.403 204.3 293.65 200.022C291.864 199.037 290.232 197.795 288.806 196.337C288.729 196.267 288.668 196.181 288.624 196.087C288.581 195.992 288.558 195.889 288.555 195.785C288.552 195.681 288.57 195.578 288.608 195.481C288.647 195.384 288.704 195.295 288.777 195.221C288.85 195.147 288.937 195.088 289.033 195.048C289.129 195.008 289.233 194.988 289.337 194.989C289.441 194.989 289.544 195.011 289.639 195.052C289.735 195.094 289.821 195.154 289.893 195.23C291.212 196.581 292.722 197.731 294.375 198.645C305.853 204.731 314.909 205.455 324.99 204.669C325.196 204.654 325.398 204.721 325.555 204.855C325.712 204.988 325.81 205.178 325.829 205.383C325.837 205.485 325.825 205.588 325.794 205.685C325.763 205.783 325.712 205.873 325.646 205.951C325.579 206.029 325.498 206.093 325.407 206.139C325.316 206.186 325.216 206.213 325.114 206.221C323.127 206.366 321.119 206.48 318.977 206.48Z" fill="#FE6059"/>
<path d="M286.281 193.139C286.167 193.139 286.054 193.115 285.95 193.066C285.846 193.018 285.754 192.947 285.681 192.859C285.008 192.031 284.356 191.203 283.714 190.386C281.458 187.508 279.326 184.786 277.235 183.948C277.053 183.865 276.91 183.715 276.836 183.53C276.762 183.344 276.762 183.137 276.837 182.951C276.911 182.766 277.055 182.616 277.237 182.534C277.419 182.451 277.626 182.443 277.815 182.509C280.289 183.544 282.441 186.246 284.936 189.433C285.567 190.23 286.209 191.058 286.882 191.876C286.976 191.99 287.036 192.128 287.055 192.275C287.074 192.421 287.05 192.57 286.987 192.704C286.924 192.838 286.824 192.951 286.699 193.029C286.574 193.108 286.429 193.15 286.281 193.149V193.139Z" fill="#FE6059"/>
<path d="M332.359 228.37C332.274 228.385 332.186 228.385 332.101 228.37C327.419 226.732 322.65 225.35 317.818 224.23C317.715 224.21 317.618 224.17 317.532 224.111C317.445 224.053 317.372 223.978 317.315 223.89C317.259 223.803 317.22 223.705 317.202 223.602C317.184 223.499 317.187 223.394 317.211 223.293C317.235 223.191 317.278 223.095 317.34 223.011C317.401 222.927 317.479 222.856 317.569 222.802C317.658 222.749 317.757 222.714 317.861 222.7C317.964 222.685 318.069 222.692 318.17 222.719C323.073 223.855 327.91 225.258 332.66 226.921C332.834 226.981 332.982 227.101 333.077 227.259C333.171 227.418 333.206 227.605 333.175 227.787C333.144 227.969 333.049 228.134 332.907 228.253C332.765 228.371 332.586 228.435 332.401 228.433L332.359 228.37Z" fill="#FE6059"/>
<path d="M314.609 223.433H314.444C308.772 222.233 302.738 221.26 295.99 220.453C290.016 219.904 284.354 217.534 279.771 213.663C279.693 213.595 279.629 213.512 279.583 213.42C279.536 213.327 279.509 213.226 279.502 213.123C279.494 213.019 279.508 212.916 279.541 212.817C279.573 212.719 279.625 212.628 279.693 212.55C279.761 212.472 279.844 212.408 279.937 212.362C280.029 212.316 280.13 212.288 280.234 212.281C280.337 212.274 280.441 212.287 280.539 212.32C280.637 212.353 280.728 212.405 280.806 212.473C285.16 216.144 290.535 218.391 296.207 218.91C303.007 219.718 309.093 220.701 314.837 221.912C315.021 221.955 315.183 222.064 315.293 222.219C315.402 222.374 315.451 222.563 315.431 222.751C315.411 222.939 315.322 223.114 315.182 223.241C315.042 223.369 314.861 223.441 314.671 223.444L314.609 223.433Z" fill="#FE6059"/>
<path d="M239.271 192.476H238.785C238.581 192.463 238.39 192.37 238.254 192.217C238.119 192.063 238.049 191.863 238.06 191.659C238.065 191.557 238.091 191.458 238.135 191.366C238.179 191.274 238.241 191.192 238.317 191.125C238.393 191.058 238.482 191.006 238.578 190.973C238.675 190.94 238.776 190.927 238.878 190.934C243.535 191.203 252.809 186.339 256.597 182.344C256.659 182.249 256.74 182.169 256.835 182.109C256.931 182.049 257.039 182.01 257.15 181.996C257.262 181.982 257.376 181.992 257.484 182.027C257.591 182.061 257.69 182.118 257.773 182.194C257.856 182.271 257.922 182.364 257.965 182.468C258.008 182.572 258.028 182.685 258.024 182.797C258.019 182.91 257.99 183.021 257.939 183.121C257.887 183.221 257.814 183.309 257.725 183.379C253.844 187.529 244.529 192.476 239.271 192.476Z" fill="#FE6059"/>
<path d="M245.853 214.967C245.648 214.967 245.45 214.885 245.305 214.74C245.159 214.594 245.077 214.397 245.077 214.191C245.077 213.985 245.159 213.788 245.305 213.642C245.45 213.496 245.648 213.415 245.853 213.415C250.656 213.415 261.606 205.725 264.349 199.318C264.389 199.224 264.447 199.139 264.52 199.068C264.593 198.996 264.679 198.94 264.774 198.902C264.869 198.864 264.97 198.845 265.072 198.846C265.174 198.848 265.275 198.869 265.368 198.909C265.462 198.949 265.547 199.007 265.619 199.08C265.69 199.153 265.746 199.239 265.784 199.334C265.822 199.429 265.841 199.53 265.84 199.632C265.839 199.734 265.817 199.835 265.777 199.928C262.941 206.532 251.774 214.967 245.853 214.967Z" fill="#FE6059"/>
<path d="M286.83 247.777C286.68 247.777 286.533 247.734 286.407 247.652C286.281 247.571 286.182 247.455 286.12 247.318C286.059 247.181 286.039 247.029 286.062 246.881C286.085 246.733 286.15 246.595 286.25 246.483C290.587 241.618 291.425 232.831 288.061 228.039C287.997 227.957 287.949 227.862 287.922 227.76C287.895 227.659 287.889 227.553 287.904 227.449C287.919 227.346 287.955 227.246 288.009 227.156C288.064 227.067 288.136 226.989 288.221 226.928C288.307 226.867 288.404 226.824 288.506 226.802C288.609 226.779 288.715 226.778 288.818 226.798C288.921 226.817 289.019 226.858 289.106 226.916C289.193 226.975 289.267 227.051 289.324 227.139C293.092 232.459 292.17 242.177 287.399 247.518C287.327 247.598 287.24 247.663 287.142 247.707C287.044 247.752 286.937 247.775 286.83 247.777Z" fill="#FE6059"/>
<path d="M305.874 250.561C305.74 250.56 305.609 250.525 305.493 250.459C305.377 250.393 305.28 250.298 305.212 250.184C305.143 250.07 305.105 249.939 305.101 249.806C305.098 249.673 305.128 249.54 305.191 249.422C309.041 242.177 307.261 236.185 303.121 228.94C303.037 228.763 303.023 228.56 303.082 228.374C303.14 228.187 303.268 228.029 303.438 227.932C303.608 227.835 303.809 227.806 303.999 227.851C304.19 227.896 304.357 228.011 304.466 228.174C307.902 234.218 311.173 241.401 306.536 250.157C306.471 250.277 306.375 250.377 306.259 250.448C306.143 250.519 306.01 250.558 305.874 250.561Z" fill="#FE6059"/>
<path d="M136.35 138.501C135.215 139.658 133.966 140.698 132.624 141.606C128.556 144.711 122.47 149.12 121.383 149.886L121.218 150.01L121.062 150.134C120.738 150.359 120.391 150.55 120.027 150.703C117.119 148.478 114.459 147.039 112.669 147.36C110.68 147.97 108.85 149.008 107.307 150.403C100.94 146.418 94.9101 141.918 89.2773 136.948C93.5933 129.527 110.102 117.345 114.387 117.345C118.672 117.345 126.859 123.648 129.104 126.432C129.571 125.403 130.169 124.44 130.885 123.566C133.69 131.463 136.215 138.397 136.35 138.501Z" fill="#FE6059"/>
<path d="M105.062 374.255C97.3819 374.255 85.7484 373.023 71.486 371.15C63.268 370.115 58.3725 367.703 58.0309 364.629C57.8446 362.777 59.4282 361.11 62.2537 360.158C76.7439 355.304 101.294 344.281 107.691 340.182C107.776 340.121 107.873 340.077 107.976 340.054C108.079 340.031 108.186 340.03 108.289 340.049C108.393 340.069 108.491 340.11 108.579 340.169C108.666 340.228 108.74 340.304 108.797 340.392C108.854 340.481 108.893 340.58 108.91 340.684C108.927 340.788 108.923 340.895 108.898 340.997C108.873 341.099 108.827 341.196 108.764 341.28C108.7 341.364 108.621 341.434 108.529 341.486C102.06 345.626 77.3028 356.742 62.7505 361.628C60.6805 362.321 59.4696 363.408 59.5731 364.474C59.7387 366.14 62.9989 368.49 71.6413 369.649C82.4468 371.046 111.168 374.762 113.601 371.326C116.188 367.672 122.088 353.824 122.15 353.731C122.19 353.637 122.248 353.552 122.321 353.481C122.394 353.409 122.48 353.353 122.575 353.315C122.669 353.277 122.771 353.258 122.873 353.259C122.975 353.26 123.075 353.282 123.169 353.322C123.263 353.362 123.348 353.42 123.419 353.493C123.491 353.566 123.547 353.652 123.585 353.747C123.623 353.841 123.642 353.943 123.64 354.045C123.639 354.147 123.618 354.247 123.578 354.341C123.33 354.921 117.554 368.479 114.863 372.278C113.89 373.644 110.454 374.255 105.062 374.255Z" fill="#1C1C1C"/>
<path d="M49.854 302.363C49.1312 302.408 48.4112 302.239 47.784 301.877C40.8287 297.24 18.6692 273.673 18.1931 265.589C18.1342 265.147 18.1824 264.697 18.3337 264.277C18.485 263.858 18.7349 263.48 19.0625 263.178C21.5361 261.108 33.9355 264.44 51.1477 269.439C53.994 270.267 56.6747 271.044 59.0034 271.685C59.2025 271.74 59.3715 271.872 59.4734 272.052C59.5753 272.231 59.6017 272.444 59.5468 272.643C59.4919 272.842 59.3602 273.011 59.1807 273.113C59.0011 273.215 58.7885 273.241 58.5894 273.186C56.2607 272.534 53.5697 271.758 50.713 270.93C40.0007 267.825 22.0743 262.65 20.0457 264.358C19.9526 264.44 19.6731 264.678 19.7145 265.506C20.1285 272.451 41.3359 295.739 48.612 300.593C49.471 301.162 54.0147 302.001 76.6607 288.784L77.3438 288.39C77.5232 288.295 77.7327 288.274 77.9274 288.332C78.1221 288.389 78.2865 288.521 78.3854 288.698C78.4842 288.876 78.5096 289.085 78.4561 289.281C78.4027 289.477 78.2746 289.644 78.0993 289.746L77.4369 290.129C63.5264 298.264 54.2631 302.363 49.854 302.363Z" fill="#1C1C1C"/>
<path d="M132.52 348.959H132.385C130.16 348.566 110.392 344.819 101.884 335.504C101.768 335.378 101.697 335.218 101.682 335.047C101.667 334.877 101.709 334.707 101.801 334.562C101.801 334.562 104.099 330.94 107.421 325.63C108.29 324.243 109.688 321.935 111.468 318.975C122.232 301.132 147.455 259.328 157.764 254.546C172.13 247.88 220.299 267.287 237.646 275.318C237.824 275.41 237.961 275.567 238.026 275.757C238.091 275.946 238.081 276.154 237.996 276.336C237.912 276.518 237.761 276.66 237.574 276.733C237.387 276.806 237.179 276.803 236.994 276.726C220.982 269.305 172.192 249.567 158.426 255.953C148.542 260.539 123.495 302.053 112.803 319.772C111.013 322.743 109.605 325.061 108.736 326.458C106.148 330.598 104.171 333.703 103.426 334.883C111.313 342.998 128.349 346.6 132.106 347.303C132.799 346.061 134.797 342.553 137.602 337.854C144.439 326.225 151.894 314.973 159.937 304.143C166.468 295.563 171.995 289.819 176.353 287.055C176.527 286.946 176.738 286.91 176.939 286.955C177.14 287.001 177.314 287.124 177.424 287.299C177.534 287.473 177.57 287.684 177.524 287.885C177.478 288.086 177.355 288.26 177.181 288.37C172.978 291.03 167.596 296.65 161.169 305.085C153.17 315.876 145.756 327.087 138.958 338.671C135.459 344.529 133.234 348.525 133.213 348.566C133.144 348.688 133.043 348.789 132.921 348.859C132.799 348.928 132.66 348.963 132.52 348.959Z" fill="#1C1C1C"/>
<path d="M358.949 171.787H358.887C358.683 171.768 358.494 171.67 358.362 171.513C358.23 171.356 358.166 171.153 358.183 170.948C358.493 167.315 357.055 162.275 355.658 157.41C354.592 154.022 353.766 150.564 353.184 147.06C352.542 142.123 353.795 137.248 355.119 132.084C357.303 123.586 359.56 114.799 353.298 104.904C345.649 92.7948 334.419 97.0797 333.943 97.2764L333.395 97.4937L333.032 97.0279C332.96 96.9348 325.694 87.599 315.81 89.6794C301.765 92.6292 296.766 109.189 295.11 122.562C293.857 132.28 289.407 133.895 284.252 135.748C281.145 136.718 278.218 138.194 275.589 140.115C270.632 143.935 270.476 147.837 270.331 151.614C270.218 154.43 270.114 157.1 267.827 159.128C266.44 160.303 264.696 160.975 262.879 161.033C260.261 161.354 257.559 161.675 253.709 168.061C253.657 168.148 253.588 168.225 253.506 168.286C253.424 168.347 253.331 168.391 253.232 168.416C253.032 168.466 252.82 168.435 252.643 168.33C252.466 168.224 252.338 168.052 252.288 167.852C252.237 167.652 252.268 167.441 252.374 167.264C256.618 160.226 259.836 159.843 262.724 159.491C264.238 159.472 265.699 158.935 266.864 157.969C268.655 156.375 268.748 154.254 268.851 151.552C268.996 147.816 269.183 143.158 274.71 138.884C277.464 136.861 280.535 135.308 283.797 134.288C288.858 132.467 292.512 131.183 293.64 122.365C295.42 108.496 300.668 91.3147 315.613 88.2097C325.29 86.1397 332.391 93.747 334.036 95.7031C336.582 94.9269 347.367 92.4843 354.736 104.138C361.35 114.602 358.876 124.124 356.744 132.529C355.461 137.538 354.24 142.268 354.85 146.915C355.421 150.348 356.231 153.738 357.272 157.058C358.7 162.068 360.191 167.243 359.849 171.155C359.832 171.256 359.795 171.352 359.74 171.438C359.685 171.525 359.614 171.599 359.53 171.658C359.447 171.717 359.352 171.758 359.252 171.78C359.153 171.802 359.049 171.804 358.949 171.787Z" fill="#1C1C1C"/>
<path d="M138.275 338.257C134.724 344.188 132.52 348.173 132.52 348.173C125.006 346.837 109.47 342.656 102.505 334.976C102.505 334.976 104.802 331.354 108.135 326.044C113.155 329.977 122.19 334.562 138.275 338.257Z" fill="#1C1C1C"/>
<path d="M132.52 348.959H132.385C130.16 348.566 110.392 344.819 101.884 335.504C101.768 335.378 101.697 335.218 101.682 335.047C101.667 334.877 101.709 334.707 101.801 334.562C101.801 334.562 104.099 330.94 107.421 325.63C107.479 325.538 107.556 325.459 107.646 325.398C107.737 325.337 107.839 325.296 107.946 325.278C108.054 325.259 108.164 325.264 108.27 325.29C108.375 325.317 108.474 325.366 108.56 325.434C114.821 330.308 124.882 334.366 138.451 337.502C138.57 337.53 138.681 337.586 138.775 337.665C138.869 337.744 138.942 337.844 138.99 337.957C139.037 338.07 139.057 338.193 139.048 338.315C139.039 338.438 139.001 338.556 138.937 338.661C135.439 344.519 133.213 348.514 133.193 348.556C133.127 348.677 133.029 348.778 132.911 348.849C132.793 348.92 132.658 348.958 132.52 348.959ZM103.436 334.894C111.323 343.008 128.359 346.61 132.116 347.314C132.768 346.154 134.549 343.018 137.074 338.775C124.271 335.732 114.604 331.83 108.301 327.183C105.92 331.012 104.13 333.796 103.426 334.904L103.436 334.894Z" fill="#1C1C1C"/>
<path d="M79.2278 293.648C79.1108 293.649 78.995 293.624 78.8893 293.573C78.7835 293.523 78.6905 293.45 78.6171 293.359C78.2342 292.872 69.1365 281.249 67.2942 267.287C67.2748 267.144 67.2955 266.999 67.354 266.867C67.4125 266.736 67.5065 266.623 67.6254 266.542C67.6254 266.542 71.0409 264.223 76.5264 260.611C92.1137 250.364 148.977 217.286 154.007 215.878C159.317 214.388 168.828 214.481 178.112 218.041C182.645 219.822 187.048 221.918 191.288 224.313C194.062 225.845 197.032 227.584 200.127 229.488C220.941 242.333 270.901 269.419 271.408 269.698C271.581 269.8 271.708 269.965 271.761 270.158C271.815 270.351 271.792 270.558 271.697 270.735C271.602 270.911 271.443 271.044 271.252 271.106C271.061 271.167 270.854 271.153 270.673 271.065C270.166 270.795 220.175 243.689 199.32 230.813C196.215 228.919 193.296 227.191 190.553 225.638C186.377 223.268 182.04 221.193 177.574 219.428C168.673 216.002 159.348 215.93 154.442 217.358C149.536 218.786 92.2586 252.124 77.3958 261.863C72.9971 264.761 69.9541 266.811 68.9088 267.514C70.6165 279.293 77.7684 289.55 79.4762 291.868C80.77 291.258 84.2062 289.653 88.9465 287.397C101.656 281.321 125.244 269.802 140.49 261.128C140.667 261.044 140.869 261.03 141.056 261.089C141.243 261.148 141.401 261.275 141.497 261.446C141.594 261.616 141.623 261.817 141.579 262.007C141.534 262.198 141.418 262.365 141.256 262.474C125.969 271.209 102.34 282.719 89.6089 288.805C83.5024 291.713 79.559 293.545 79.559 293.545C79.458 293.604 79.3447 293.64 79.2278 293.648Z" fill="#1C1C1C"/>
<path d="M89.2775 288.132C83.171 291.04 79.2379 292.872 79.2379 292.872C79.2379 292.872 69.9229 281.093 68.0806 267.183C68.0806 267.183 71.4236 264.906 76.9816 261.263C78.5962 268.974 82.0325 279.479 89.2775 288.132Z" fill="#1C1C1C"/>
<path d="M79.2278 293.648C79.1108 293.649 78.995 293.624 78.8893 293.573C78.7835 293.523 78.6905 293.45 78.6171 293.358C78.2342 292.872 69.1365 281.249 67.2942 267.287C67.2748 267.144 67.2955 266.999 67.354 266.867C67.4125 266.735 67.5065 266.623 67.6254 266.541C67.6254 266.541 71.0409 264.223 76.5368 260.611C76.6424 260.54 76.7636 260.497 76.8899 260.484C77.0161 260.472 77.1436 260.49 77.261 260.538C77.3785 260.586 77.4824 260.662 77.5636 260.76C77.6449 260.857 77.701 260.973 77.727 261.097C79.2692 268.425 82.633 278.972 89.8677 287.635C89.9441 287.726 89.9987 287.833 90.0274 287.948C90.056 288.063 90.0579 288.183 90.033 288.299C90.008 288.415 89.9568 288.523 89.8833 288.616C89.8098 288.709 89.7159 288.784 89.6089 288.835C83.5024 291.744 79.559 293.576 79.559 293.576C79.4554 293.624 79.3422 293.649 79.2278 293.648ZM68.8777 267.545C70.5855 279.324 77.7374 289.581 79.4452 291.899C80.6561 291.33 83.7404 289.881 88.015 287.852C81.3599 279.572 78.0479 269.729 76.4229 262.515C72.552 265.082 69.8713 266.842 68.8984 267.545H68.8777Z" fill="#1C1C1C"/>
<path d="M75.6776 251.844C75.5707 251.844 75.465 251.822 75.3671 251.78C75.2691 251.737 75.181 251.674 75.1084 251.596C40.7978 215.143 18.7211 168.909 0.981057 131.752C0.951587 131.69 0.9307 131.624 0.91896 131.556C0.246204 127.747 0.598109 125.563 2.03677 124.663C3.92049 123.493 7.11866 124.807 13.0596 129.206C19.6216 134.06 21.0188 136.317 23.5753 140.415C24.3102 141.585 25.1278 142.92 26.2042 144.555C26.6907 145.27 27.4048 146.418 28.3881 148.002C53.8389 188.709 81.9808 219.231 112.048 238.752C112.133 238.807 112.207 238.879 112.265 238.964C112.323 239.048 112.363 239.143 112.385 239.243C112.406 239.343 112.407 239.446 112.388 239.546C112.37 239.647 112.331 239.742 112.276 239.828C112.22 239.914 112.148 239.987 112.063 240.045C111.979 240.103 111.884 240.144 111.784 240.165C111.685 240.186 111.581 240.187 111.481 240.168C111.381 240.15 111.285 240.111 111.199 240.056C80.9562 220.39 52.659 189.734 27.084 148.789C26.1007 147.215 25.3969 146.087 24.9312 145.394C23.834 143.779 23.006 142.434 22.2712 141.254C19.7458 137.186 18.4727 135.147 12.1592 130.469C7.17041 126.774 4.05504 125.294 2.84408 125.998C2.38867 126.277 1.74696 127.323 2.41972 131.173C20.108 168.205 42.1226 214.274 76.2365 250.52C76.3392 250.63 76.4074 250.769 76.4327 250.918C76.458 251.066 76.4392 251.22 76.3788 251.358C76.3184 251.496 76.2189 251.614 76.0925 251.697C75.9661 251.78 75.8183 251.824 75.6673 251.824L75.6776 251.844Z" fill="#1C1C1C"/>
<path d="M123.992 290.088C123.862 290.088 123.733 290.056 123.619 289.995C119.127 287.49 114.656 284.737 110.34 281.828C110.182 281.708 110.076 281.532 110.044 281.336C110.012 281.14 110.056 280.94 110.167 280.775C110.279 280.611 110.449 280.496 110.642 280.453C110.836 280.41 111.039 280.443 111.209 280.545C115.494 283.433 119.924 286.155 124.375 288.639C124.528 288.721 124.649 288.853 124.718 289.013C124.788 289.172 124.801 289.351 124.757 289.519C124.713 289.687 124.613 289.836 124.475 289.941C124.336 290.046 124.166 290.101 123.992 290.098V290.088Z" fill="#1C1C1C"/>
<path d="M218.053 313.303C198.536 313.431 179.101 310.761 160.341 305.375C160.244 305.347 160.152 305.299 160.073 305.235C159.993 305.171 159.927 305.093 159.878 305.003C159.829 304.914 159.798 304.816 159.787 304.714C159.776 304.613 159.785 304.51 159.814 304.413C159.842 304.315 159.89 304.223 159.953 304.144C160.017 304.065 160.096 303.998 160.185 303.949C160.275 303.9 160.373 303.869 160.474 303.858C160.576 303.847 160.678 303.856 160.776 303.885C181.911 310.095 205.085 312.651 229.656 311.461C252.706 310.343 273.758 307.321 292.232 302.612C292.426 302.576 292.626 302.616 292.791 302.722C292.957 302.828 293.076 302.993 293.124 303.183C293.173 303.374 293.148 303.576 293.053 303.748C292.959 303.921 292.802 304.051 292.615 304.112C274.037 308.894 252.881 311.885 229.728 313.003C225.795 313.203 221.904 313.303 218.053 313.303Z" fill="#1C1C1C"/>
<path d="M306.485 300.045C306.302 300.042 306.126 299.975 305.987 299.855C305.849 299.735 305.758 299.57 305.73 299.389C305.701 299.209 305.737 299.024 305.832 298.867C305.926 298.711 306.073 298.592 306.246 298.534C378.697 274.656 398.869 224.137 416.651 179.559L416.765 179.259C436.658 129.392 451.624 71.1422 454.418 59.9745C454.443 59.8752 454.486 59.7818 454.547 59.6995C454.608 59.6172 454.684 59.5476 454.771 59.4948C454.859 59.4419 454.956 59.4068 455.057 59.3914C455.158 59.376 455.261 59.3807 455.36 59.4052C455.459 59.4297 455.553 59.4734 455.635 59.534C455.717 59.5946 455.787 59.6708 455.84 59.7582C455.893 59.8457 455.928 59.9427 455.943 60.0437C455.959 60.1448 455.954 60.2478 455.929 60.3471C453.125 71.5355 438.138 129.879 418.214 179.839L418.1 180.139C409.53 201.626 399.822 225.969 383.313 247.415C364.383 272.048 339.336 289.239 306.723 299.972C306.648 300.01 306.567 300.034 306.485 300.045Z" fill="#1C1C1C"/>
<path d="M438.468 63.1109C429.205 63.1233 420.033 61.2901 411.486 57.7185C411.309 57.6306 411.173 57.4787 411.104 57.2938C411.035 57.1088 411.04 56.9047 411.116 56.7228C411.193 56.5409 411.335 56.395 411.516 56.3146C411.696 56.2343 411.9 56.2255 412.086 56.2902C434.98 65.8847 454.728 59.4987 454.925 59.3952C455.024 59.3541 455.13 59.3338 455.237 59.3356C455.343 59.3374 455.449 59.3612 455.546 59.4056C455.643 59.4499 455.73 59.5139 455.802 59.5934C455.873 59.673 455.927 59.7664 455.961 59.8678C455.994 59.9693 456.006 60.0765 455.997 60.183C455.987 60.2894 455.955 60.3926 455.904 60.4862C455.852 60.5798 455.782 60.6617 455.697 60.7269C455.612 60.7921 455.515 60.8391 455.412 60.8649C449.901 62.4228 444.195 63.1792 438.468 63.1109Z" fill="#1C1C1C"/>
<path d="M355.451 154.667C355.306 154.667 355.164 154.626 355.041 154.549C354.918 154.472 354.819 154.362 354.755 154.231C354.692 154.101 354.666 153.955 354.681 153.811C354.696 153.667 354.751 153.53 354.84 153.415C394.015 103 408.536 64.042 411.051 56.7452C411.085 56.6487 411.137 56.5597 411.204 56.4833C411.272 56.4069 411.354 56.3446 411.446 56.2999C411.538 56.2552 411.637 56.229 411.739 56.2229C411.841 56.2167 411.943 56.2306 412.04 56.2639C412.136 56.2972 412.225 56.3492 412.302 56.4169C412.378 56.4846 412.44 56.5667 412.485 56.6585C412.53 56.7503 412.556 56.85 412.562 56.9519C412.568 57.0538 412.554 57.1559 412.521 57.2524C409.996 64.5906 395.402 103.755 356.072 154.367C355.998 154.462 355.904 154.538 355.796 154.59C355.689 154.642 355.57 154.669 355.451 154.667Z" fill="#1C1C1C"/>
<path d="M183.846 293.866C180.969 293.866 178.054 293.793 175.1 293.648C174.999 293.643 174.899 293.617 174.807 293.573C174.714 293.529 174.632 293.468 174.564 293.392C174.495 293.316 174.443 293.227 174.409 293.131C174.375 293.035 174.36 292.933 174.366 292.831C174.371 292.729 174.397 292.629 174.441 292.537C174.485 292.445 174.546 292.362 174.622 292.294C174.698 292.226 174.787 292.173 174.883 292.139C174.979 292.105 175.081 292.09 175.183 292.096C226.934 294.683 267.299 273.621 296.724 254.98C331.024 233.245 380.56 186.007 404.872 141.316C427.56 99.5739 431.679 69.3827 431.71 69.0826C431.723 68.9813 431.756 68.8836 431.806 68.795C431.857 68.7064 431.925 68.6286 432.005 68.5661C432.086 68.5037 432.178 68.4577 432.277 68.4309C432.375 68.4041 432.478 68.3969 432.58 68.4098C432.681 68.4227 432.779 68.4554 432.867 68.5061C432.956 68.5568 433.033 68.6245 433.096 68.7052C433.158 68.7859 433.204 68.8782 433.231 68.9766C433.258 69.0751 433.265 69.178 433.252 69.2792C433.252 69.5794 429.06 100.06 406.239 142.051C381.823 186.98 332.018 234.446 297.563 256.295C269.628 273.994 231.85 293.866 183.846 293.866Z" fill="#1C1C1C"/>
<path d="M414.022 58.6598C413.918 58.6595 413.816 58.6384 413.721 58.5977C413.624 58.5593 413.536 58.5016 413.462 58.4282C413.387 58.3548 413.329 58.2671 413.289 58.1705C413.249 58.0738 413.23 57.9702 413.231 57.8658C413.233 57.7613 413.255 57.6583 413.297 57.5627C421.287 38.2391 425.531 20.5405 429.278 4.92218L430.313 0.59584C430.361 0.395454 430.486 0.222355 430.662 0.114628C430.838 0.00690197 431.049 -0.0266273 431.249 0.0214104C431.45 0.0694481 431.623 0.195121 431.731 0.370783C431.838 0.546445 431.872 0.757706 431.824 0.958092L430.789 5.28443C427.032 20.9648 422.767 38.7256 414.736 58.163C414.68 58.3077 414.582 58.4323 414.455 58.5209C414.328 58.6094 414.177 58.6578 414.022 58.6598Z" fill="#1C1C1C"/>
<path d="M451.23 61.9101C451.128 61.9061 451.028 61.882 450.935 61.8393C450.843 61.7965 450.759 61.7359 450.69 61.661C450.621 61.586 450.567 61.4981 450.532 61.4023C450.497 61.3065 450.481 61.2048 450.485 61.1028C450.837 52.8952 441.853 19.7956 433.925 3.14231C433.875 3.04994 433.844 2.94839 433.835 2.84381C433.825 2.73923 433.837 2.63379 433.869 2.53387C433.901 2.43396 433.954 2.34165 434.023 2.26252C434.092 2.1834 434.176 2.11911 434.271 2.07355C434.365 2.02799 434.468 2.00211 434.573 1.99746C434.678 1.99282 434.783 2.00952 434.881 2.04654C434.98 2.08356 435.069 2.14014 435.145 2.21285C435.221 2.28556 435.281 2.37289 435.322 2.46955C443.499 19.6403 452.41 52.6054 452.037 61.1649C452.033 61.2669 452.009 61.367 451.967 61.4597C451.924 61.5524 451.863 61.6357 451.788 61.7049C451.713 61.7741 451.625 61.8279 451.53 61.8631C451.434 61.8983 451.332 61.9143 451.23 61.9101Z" fill="#1C1C1C"/>
<path d="M424.879 67.3023C424.754 67.3044 424.63 67.2762 424.518 67.22C424.406 67.1639 424.309 67.0814 424.236 66.9797C424.163 66.878 424.115 66.7601 424.097 66.636C424.08 66.5119 424.092 66.3854 424.134 66.2673C425.728 60.8749 431.69 26.5747 432.683 4.10465C432.688 4.00271 432.713 3.90271 432.756 3.81035C432.8 3.71799 432.861 3.63508 432.936 3.56636C433.012 3.49764 433.1 3.44446 433.196 3.40985C433.292 3.37523 433.394 3.35986 433.496 3.36461C433.598 3.36937 433.698 3.39416 433.79 3.43757C433.882 3.48098 433.965 3.54215 434.034 3.61759C434.103 3.69304 434.156 3.78128 434.19 3.87728C434.225 3.97328 434.24 4.07516 434.236 4.1771C433.201 26.761 427.239 61.2889 425.624 66.7123C425.583 66.8793 425.488 67.0279 425.353 67.1347C425.218 67.2415 425.051 67.3004 424.879 67.3023Z" fill="#1C1C1C"/>
<path d="M438.851 68.8032C438.645 68.8032 438.448 68.7214 438.302 68.5759C438.157 68.4303 438.075 68.2328 438.075 68.027C438.066 67.9583 438.066 67.8887 438.075 67.82C438.323 65.2946 437.64 26.0988 432.672 4.3429C432.641 4.14819 432.686 3.94902 432.796 3.78583C432.907 3.62263 433.076 3.50763 433.268 3.46417C433.46 3.42071 433.662 3.45203 433.832 3.5518C434.002 3.65156 434.128 3.81229 434.183 4.00135C438.882 24.5773 440.342 67.3749 439.431 68.5134C439.36 68.6001 439.272 68.6708 439.172 68.7208C439.072 68.7708 438.963 68.7989 438.851 68.8032Z" fill="#1C1C1C"/>
<path d="M1.58125 127.374C1.43377 127.375 1.28925 127.333 1.16461 127.254C1.03997 127.175 0.940354 127.063 0.877432 126.929C-1.19258 122.499 0.204679 85.3012 7.17029 63.2038C7.19816 63.1034 7.24594 63.0097 7.3108 62.9282C7.37565 62.8467 7.45624 62.7791 7.54777 62.7294C7.6393 62.6797 7.73991 62.6489 7.84359 62.6389C7.94727 62.6288 8.05189 62.6398 8.15125 62.671C8.25061 62.7023 8.34265 62.7533 8.42191 62.8208C8.50117 62.8884 8.56602 62.9713 8.6126 63.0644C8.65917 63.1576 8.68649 63.2592 8.69298 63.3632C8.69947 63.4671 8.68498 63.5713 8.65036 63.6696C1.9435 84.9597 0.370279 122.096 2.28504 126.267C2.34092 126.385 2.36592 126.516 2.35772 126.647C2.34952 126.777 2.30838 126.904 2.23814 127.014C2.16789 127.125 2.07084 127.216 1.95598 127.279C1.84113 127.342 1.71221 127.375 1.58125 127.374Z" fill="#1C1C1C"/>
<path d="M17.7381 130.22C17.5538 130.22 17.3755 130.155 17.2352 130.035C17.0949 129.916 17.0016 129.75 16.9721 129.568C16.1752 124.528 15.1195 118.245 14.0017 111.59C10.6586 91.7077 6.8808 69.1548 7.11886 63.4519C7.12002 63.3491 7.14218 63.2475 7.18397 63.1535C7.22576 63.0596 7.28631 62.9751 7.36189 62.9053C7.43748 62.8356 7.52651 62.7819 7.62354 62.7478C7.72057 62.7136 7.82354 62.6997 7.92616 62.7067C8.02813 62.7107 8.12831 62.7348 8.22097 62.7775C8.31363 62.8203 8.39694 62.8809 8.46616 62.9559C8.53537 63.0309 8.58912 63.1188 8.62434 63.2145C8.65955 63.3103 8.67553 63.4121 8.67137 63.514C8.43332 69.072 12.3664 92.4943 15.5335 111.331C16.6513 117.987 17.707 124.269 18.504 129.32C18.5368 129.523 18.4877 129.731 18.3673 129.898C18.247 130.065 18.0653 130.177 17.8622 130.21L17.7381 130.22Z" fill="#1C1C1C"/>
<path d="M11.9936 130.22C11.8062 130.219 11.6255 130.151 11.4847 130.027C11.3439 129.904 11.2526 129.733 11.2276 129.548C11.2276 129.206 6.80817 94.7091 6.41486 73.595C6.4135 73.493 6.43222 73.3918 6.46997 73.2971C6.50772 73.2024 6.56375 73.1161 6.63488 73.043C6.706 72.97 6.79082 72.9116 6.88448 72.8714C6.97815 72.8311 7.07882 72.8097 7.18076 72.8083C7.38506 72.8108 7.58061 72.8917 7.72699 73.0343C7.87338 73.1768 7.95943 73.3701 7.96738 73.5743C8.35033 94.6056 12.7181 129.009 12.7595 129.361C12.7725 129.462 12.7655 129.565 12.7387 129.664C12.7119 129.762 12.666 129.855 12.6035 129.936C12.541 130.016 12.4632 130.084 12.3745 130.135C12.2858 130.185 12.188 130.218 12.0867 130.231L11.9936 130.22Z" fill="#1C1C1C"/>
<path d="M5.72108 121.837C5.5368 121.837 5.35854 121.771 5.21822 121.652C5.0779 121.532 4.98466 121.367 4.95517 121.185C4.25137 116.889 4.48942 96.9552 6.42488 83.9865C6.46739 83.7948 6.581 83.6263 6.74281 83.515C6.90462 83.4037 7.10262 83.3579 7.29688 83.3867C7.49114 83.4156 7.66722 83.5171 7.78966 83.6706C7.91211 83.8242 7.97179 84.0184 7.95669 84.2142C5.88667 97.7729 5.88668 117.221 6.48698 120.936C6.51983 121.139 6.4707 121.347 6.35037 121.514C6.23004 121.681 6.04837 121.793 5.84528 121.826L5.72108 121.837Z" fill="#1C1C1C"/>
<path d="M146.72 192.87C116.705 192.331 96.005 192.331 79.8175 192.87C75.3265 192.87 71.0191 191.088 67.8406 187.915C64.6621 184.742 62.8723 180.438 62.8641 175.947C64.4476 148.126 64.4476 127.074 62.8641 109.655C62.8586 107.428 63.2921 105.221 64.1397 103.162C64.9873 101.102 66.2325 99.2294 67.804 97.6512C69.3755 96.0729 71.2426 94.8198 73.2986 93.9634C75.3546 93.107 77.5592 92.6641 79.7864 92.66C103.219 93.2811 129.788 93.84 148.842 92.66C153.337 92.6546 157.65 94.434 160.833 97.6073C164.015 100.781 165.808 105.088 165.816 109.582C164.336 122.199 164.947 144.183 165.537 165.473C165.63 168.982 165.734 172.49 165.816 175.968C165.826 179.346 164.82 182.649 162.929 185.449C162.809 185.606 162.632 185.712 162.436 185.745C162.241 185.777 162.04 185.733 161.876 185.621C161.711 185.51 161.596 185.34 161.553 185.146C161.51 184.952 161.543 184.749 161.645 184.579C163.358 182.042 164.27 179.05 164.264 175.989C164.181 172.542 164.078 169.033 163.984 165.525C163.394 144.214 162.784 122.178 164.274 109.541C164.25 105.478 162.618 101.59 159.737 98.7257C156.855 95.8615 152.957 94.2539 148.894 94.254C129.819 95.4339 103.209 94.875 79.7658 94.254C75.7054 94.2703 71.8161 95.8905 68.9449 98.7616C66.0738 101.633 64.4536 105.522 64.4373 109.582C66.0208 127.012 66.0208 148.136 64.4373 175.989C64.4591 180.046 66.0835 183.931 68.9565 186.796C71.8296 189.661 75.7185 191.275 79.7761 191.286C95.9843 190.748 116.643 190.748 146.741 191.286C146.947 191.286 147.144 191.368 147.29 191.513C147.436 191.659 147.517 191.856 147.517 192.062C147.517 192.268 147.436 192.466 147.29 192.611C147.144 192.757 146.947 192.839 146.741 192.839L146.72 192.87Z" fill="#1C1C1C"/>
<path d="M266.078 193.936C265.921 193.936 265.769 193.889 265.64 193.801C265.511 193.713 265.412 193.588 265.355 193.443C265.298 193.298 265.286 193.139 265.321 192.987C265.355 192.835 265.435 192.696 265.55 192.59C278.291 180.75 302.634 160.867 322.568 160.743C322.696 160.743 322.823 160.775 322.936 160.834C323.05 160.894 323.147 160.98 323.22 161.085C325.342 164.273 327.412 165.711 330.362 166.053C332.432 166.301 334.988 166.053 338.942 162.689C339.034 162.612 339.143 162.557 339.259 162.528C339.376 162.499 339.498 162.498 339.615 162.523C353.732 165.68 365.335 172.873 373.18 183.379C373.304 183.543 373.357 183.751 373.328 183.954C373.299 184.158 373.19 184.342 373.025 184.466C372.86 184.589 372.653 184.642 372.449 184.613C372.246 184.584 372.062 184.475 371.938 184.31C364.383 174.219 353.225 167.243 339.646 164.117C335.392 167.636 332.473 167.854 330.186 167.595C326.884 167.212 324.473 165.628 322.165 162.306C302.831 162.699 279.088 182.126 266.605 193.729C266.462 193.862 266.273 193.936 266.078 193.936Z" fill="#1C1C1C"/>
<path d="M318.201 161.519C318.78 163.889 321.44 172.221 331.356 172.169C342.089 172.118 346.136 164.645 345.318 163.01C344.5 161.374 339.967 158.932 339.108 159.47C338.249 160.008 332.101 172.501 323.821 160.401C322.682 158.673 317.911 160.319 318.201 161.519Z" fill="#FE6059"/>
<path d="M323.396 159.097C323.294 159.093 323.194 159.069 323.101 159.026C323.009 158.984 322.925 158.923 322.856 158.848C322.787 158.773 322.733 158.685 322.698 158.589C322.663 158.494 322.647 158.392 322.651 158.29C322.738 156.742 322.738 155.19 322.651 153.643C322.632 153.44 322.693 153.239 322.821 153.081C322.95 152.924 323.134 152.823 323.336 152.8C323.538 152.777 323.74 152.834 323.901 152.958C324.061 153.083 324.166 153.265 324.193 153.467C324.291 155.09 324.291 156.718 324.193 158.342C324.19 158.444 324.168 158.544 324.126 158.637C324.085 158.73 324.025 158.814 323.951 158.884C323.877 158.955 323.79 159.01 323.695 159.046C323.6 159.083 323.498 159.1 323.396 159.097Z" fill="#1C1C1C"/>
<path d="M305.201 113.733C305.035 113.733 304.872 113.68 304.738 113.582C304.604 113.483 304.505 113.343 304.456 113.184C303.421 109.779 303.038 102.606 308.348 97.3796C308.496 97.2436 308.691 97.1705 308.893 97.1758C309.094 97.1811 309.285 97.2644 309.426 97.4081C309.567 97.5518 309.647 97.7446 309.648 97.9459C309.65 98.1472 309.573 98.3412 309.434 98.487C304.642 103.207 305.046 109.872 305.936 112.729C305.978 112.847 305.99 112.973 305.973 113.097C305.955 113.222 305.907 113.339 305.834 113.441C305.761 113.543 305.664 113.625 305.552 113.682C305.44 113.738 305.316 113.766 305.191 113.764L305.201 113.733Z" fill="#1C1C1C"/>
<path d="M314.992 113.422C314.805 113.421 314.624 113.353 314.483 113.229C314.343 113.106 314.251 112.935 314.226 112.749C313.409 106.436 314.796 100.857 317.756 98.5492C317.919 98.4396 318.117 98.396 318.311 98.427C318.505 98.458 318.68 98.5613 318.801 98.7162C318.921 98.8711 318.979 99.066 318.962 99.2616C318.945 99.4573 318.854 99.6391 318.708 99.7705C316.203 101.716 315.023 106.85 315.768 112.542C315.781 112.644 315.774 112.747 315.748 112.845C315.721 112.944 315.675 113.036 315.612 113.117C315.55 113.198 315.472 113.265 315.383 113.316C315.295 113.366 315.197 113.399 315.096 113.412L314.992 113.422Z" fill="#1C1C1C"/>
<path d="M325.084 113.422C324.948 113.423 324.814 113.388 324.696 113.321C324.578 113.254 324.48 113.157 324.411 113.039C322.475 109.748 322.92 102.389 326.056 99.0876C326.201 98.9748 326.381 98.9169 326.565 98.9243C326.748 98.9317 326.923 99.0039 327.058 99.128C327.193 99.2521 327.28 99.4201 327.304 99.6022C327.327 99.7842 327.285 99.9686 327.185 100.123C324.514 102.938 324.08 109.438 325.746 112.212C325.841 112.387 325.866 112.592 325.814 112.785C325.762 112.978 325.637 113.143 325.466 113.247C325.358 113.34 325.225 113.401 325.084 113.422Z" fill="#1C1C1C"/>
<path d="M331.635 114.882C331.502 114.882 331.371 114.847 331.255 114.782C331.139 114.717 331.042 114.623 330.973 114.509C329.141 111.508 329.058 105.018 331.708 101.468C331.769 101.386 331.845 101.318 331.933 101.266C332.021 101.214 332.118 101.18 332.219 101.165C332.32 101.151 332.423 101.156 332.521 101.182C332.62 101.207 332.713 101.252 332.794 101.313C332.876 101.374 332.945 101.451 332.997 101.538C333.048 101.626 333.083 101.723 333.097 101.824C333.111 101.925 333.106 102.028 333.081 102.126C333.055 102.225 333.011 102.318 332.95 102.399C330.714 105.401 330.724 111.125 332.298 113.702C332.369 113.819 332.408 113.954 332.411 114.092C332.413 114.229 332.379 114.365 332.311 114.485C332.244 114.606 332.146 114.706 332.027 114.775C331.908 114.845 331.773 114.882 331.635 114.882Z" fill="#1C1C1C"/>
<path d="M338.497 158.28C338.316 158.28 338.14 158.218 338 158.102C337.86 157.987 337.765 157.826 337.731 157.648C335.33 144.866 339.004 132.384 339.16 131.866C339.217 131.675 339.346 131.514 339.52 131.416C339.693 131.318 339.898 131.29 340.091 131.338C343.082 132.094 345.691 130.138 346.953 127.861C347.916 126.122 348.413 123.472 346.612 121.744C346.22 121.31 345.741 120.963 345.206 120.728C344.67 120.493 344.091 120.373 343.507 120.378C342.054 120.58 340.721 121.296 339.75 122.396C339.678 122.479 339.589 122.546 339.489 122.593C339.389 122.639 339.28 122.664 339.17 122.665C339.061 122.665 338.952 122.642 338.852 122.597C338.753 122.553 338.663 122.488 338.59 122.406C336.81 120.336 334.864 112.605 337.307 104.283C337.335 104.185 337.383 104.094 337.447 104.015C337.511 103.935 337.59 103.869 337.679 103.82C337.768 103.771 337.866 103.74 337.968 103.729C338.069 103.718 338.172 103.727 338.269 103.755C338.367 103.784 338.459 103.831 338.538 103.895C338.618 103.959 338.684 104.038 338.733 104.127C338.782 104.217 338.813 104.315 338.824 104.416C338.835 104.517 338.826 104.62 338.797 104.718C336.665 111.963 338.083 118.339 339.305 120.678C340.445 119.625 341.9 118.978 343.445 118.835C344.249 118.814 345.048 118.964 345.79 119.274C346.533 119.585 347.2 120.049 347.75 120.636C349.748 122.572 349.996 125.708 348.371 128.627C346.922 131.235 343.983 133.491 340.526 133.005C339.801 135.778 337.307 146.625 339.325 157.379C339.345 157.48 339.344 157.583 339.323 157.684C339.303 157.784 339.262 157.879 339.204 157.964C339.147 158.049 339.073 158.121 338.987 158.177C338.901 158.233 338.805 158.271 338.704 158.29L338.497 158.28Z" fill="#1C1C1C"/>
<path d="M325.321 119.353C325.146 119.353 324.976 119.294 324.839 119.185C324.702 119.076 324.606 118.923 324.566 118.753C324.46 118.053 324.189 117.388 323.775 116.814C323.361 116.24 322.816 115.772 322.185 115.451C321.76 115.268 321.298 115.188 320.836 115.216C320.374 115.245 319.925 115.382 319.525 115.617C319.438 115.669 319.341 115.704 319.24 115.718C319.139 115.733 319.036 115.728 318.937 115.703C318.838 115.678 318.745 115.634 318.663 115.573C318.581 115.512 318.512 115.435 318.459 115.348C318.407 115.26 318.372 115.163 318.358 115.062C318.343 114.961 318.348 114.858 318.373 114.759C318.398 114.66 318.442 114.567 318.503 114.485C318.564 114.403 318.641 114.334 318.728 114.281C319.338 113.921 320.025 113.71 320.731 113.665C321.438 113.62 322.145 113.743 322.796 114.023C323.654 114.436 324.4 115.05 324.97 115.812C325.541 116.574 325.921 117.462 326.077 118.401C326.124 118.601 326.089 118.812 325.98 118.986C325.871 119.161 325.698 119.286 325.497 119.332L325.321 119.353Z" fill="#1C1C1C"/>
<path d="M303.814 118.359H303.731C303.629 118.349 303.53 118.318 303.44 118.269C303.35 118.221 303.27 118.154 303.205 118.074C303.141 117.994 303.093 117.903 303.064 117.804C303.035 117.705 303.026 117.602 303.038 117.5C303.136 116.536 303.543 115.63 304.198 114.916C304.852 114.202 305.719 113.718 306.671 113.536C307.653 113.28 308.691 113.332 309.642 113.686C310.594 114.039 311.414 114.677 311.991 115.513C312.089 115.688 312.115 115.895 312.064 116.089C312.013 116.283 311.889 116.45 311.717 116.554C311.546 116.659 311.34 116.693 311.144 116.649C310.948 116.605 310.777 116.488 310.666 116.32C310.255 115.766 309.687 115.348 309.035 115.121C308.384 114.893 307.679 114.868 307.012 115.047C306.378 115.157 305.797 115.471 305.357 115.942C304.918 116.413 304.645 117.015 304.58 117.655C304.562 117.847 304.474 118.024 304.332 118.154C304.191 118.284 304.006 118.357 303.814 118.359Z" fill="#1C1C1C"/>
<path d="M324.225 154.336C322.74 154.339 321.262 154.13 319.836 153.715C317.824 153.11 315.951 152.111 314.327 150.777C312.703 149.442 311.36 147.799 310.376 145.942C306.174 138.242 305.149 125.946 305.988 117.179C305.99 117.073 306.015 116.968 306.06 116.872C306.105 116.776 306.169 116.689 306.249 116.619C306.328 116.548 306.421 116.495 306.522 116.462C306.624 116.429 306.73 116.417 306.836 116.427C306.942 116.437 307.045 116.468 307.138 116.52C307.231 116.571 307.313 116.641 307.378 116.725C307.443 116.809 307.49 116.906 307.516 117.009C307.542 117.112 307.547 117.219 307.53 117.324C306.712 125.853 307.685 137.786 311.732 145.187C312.597 146.852 313.786 148.327 315.229 149.527C316.672 150.726 318.339 151.626 320.134 152.172C321.929 152.719 323.815 152.902 325.682 152.71C327.548 152.518 329.358 151.955 331.004 151.055C331.185 150.956 331.398 150.934 331.596 150.992C331.794 151.05 331.961 151.185 332.06 151.366C332.158 151.547 332.181 151.76 332.123 151.958C332.065 152.156 331.93 152.323 331.749 152.421C329.441 153.68 326.854 154.339 324.225 154.336Z" fill="#1C1C1C"/>
<path d="M321.037 129.237C321.991 129.237 322.765 128.158 322.765 126.826C322.765 125.494 321.991 124.414 321.037 124.414C320.082 124.414 319.308 125.494 319.308 126.826C319.308 128.158 320.082 129.237 321.037 129.237Z" fill="#1C1C1C"/>
<path d="M310.397 129.765C311.352 129.765 312.125 128.685 312.125 127.353C312.125 126.022 311.352 124.942 310.397 124.942C309.442 124.942 308.668 126.022 308.668 127.353C308.668 128.685 309.442 129.765 310.397 129.765Z" fill="#1C1C1C"/>
<path d="M316.493 139.37H316.431C315.975 139.349 315.529 139.233 315.121 139.03C314.713 138.827 314.352 138.541 314.06 138.19C312.249 135.996 312.818 131.038 313.605 124.186L313.709 123.234C313.719 123.132 313.749 123.034 313.798 122.944C313.847 122.854 313.914 122.775 313.994 122.711C314.074 122.648 314.166 122.601 314.265 122.573C314.363 122.546 314.466 122.538 314.568 122.551C314.772 122.574 314.959 122.678 315.087 122.839C315.215 123 315.274 123.206 315.251 123.41L315.147 124.362C314.433 130.572 313.874 135.52 315.261 137.207C315.42 137.396 315.618 137.55 315.841 137.657C316.064 137.764 316.307 137.822 316.555 137.828C316.761 137.836 316.955 137.926 317.095 138.077C317.234 138.229 317.308 138.429 317.3 138.635C317.292 138.841 317.202 139.035 317.051 139.175C316.899 139.315 316.699 139.389 316.493 139.38V139.37Z" fill="#1C1C1C"/>
<path d="M323.521 148.198C320.302 148.198 317.818 144.918 316.545 141.719C316.476 141.574 316.453 141.412 316.48 141.254C316.507 141.095 316.583 140.949 316.696 140.836C316.81 140.722 316.956 140.647 317.114 140.62C317.272 140.593 317.435 140.615 317.58 140.684C320.592 141.906 326.502 139.411 327.599 137.434C327.672 137.301 327.782 137.193 327.917 137.123C328.051 137.053 328.203 137.025 328.354 137.041C328.504 137.055 328.646 137.113 328.764 137.207C328.881 137.3 328.969 137.426 329.017 137.569C330.052 140.788 329.938 146.191 325.26 147.867C324.704 148.078 324.115 148.19 323.521 148.198ZM318.646 142.537C319.681 144.452 321.751 147.474 324.721 146.429C327.692 145.383 328.292 142.071 327.826 139.484C325.232 141.571 321.973 142.655 318.646 142.537Z" fill="#1C1C1C"/>
<path d="M273.012 222.254H272.836C272.636 222.207 272.462 222.082 272.354 221.908C272.245 221.733 272.21 221.522 272.257 221.322C274.513 211.79 279.698 204.658 283.952 199.504C287.324 195.506 290.08 191.027 292.129 186.215C292.196 186.02 292.338 185.859 292.523 185.769C292.709 185.679 292.922 185.666 293.117 185.733C293.312 185.801 293.472 185.942 293.562 186.128C293.653 186.313 293.666 186.527 293.598 186.722C292.563 189.661 289.293 195.488 285.153 200.498C281.013 205.507 275.952 212.473 273.768 221.684C273.722 221.849 273.623 221.994 273.487 222.097C273.35 222.2 273.183 222.255 273.012 222.254Z" fill="#1C1C1C"/>
<path d="M310.407 230.803C310.263 230.803 310.122 230.763 309.999 230.687C309.876 230.611 309.777 230.503 309.713 230.374C309.648 230.245 309.621 230.1 309.634 229.957C309.647 229.813 309.699 229.676 309.786 229.561C313.677 224.327 317.843 219.303 322.268 214.512C325.032 211.541 327.644 208.432 330.093 205.197C336.137 197.082 343.082 190.055 347.367 187.726C347.548 187.627 347.761 187.604 347.959 187.662C348.057 187.691 348.149 187.739 348.228 187.803C348.308 187.867 348.374 187.947 348.423 188.036C348.472 188.126 348.503 188.224 348.513 188.326C348.524 188.428 348.515 188.53 348.486 188.628C348.457 188.726 348.41 188.818 348.345 188.897C348.281 188.977 348.202 189.043 348.112 189.092C344.065 191.297 337.162 198.293 331.335 206.128C328.654 209.73 326.16 212.545 323.417 215.526C319.015 220.28 314.869 225.266 310.997 230.461C310.931 230.559 310.844 230.641 310.741 230.7C310.639 230.759 310.525 230.795 310.407 230.803Z" fill="#1C1C1C"/>
<path d="M315.613 232.541C315.544 232.551 315.475 232.551 315.406 232.541C308.027 230.471 288.972 225.296 277.225 222.916C274.71 222.356 272.167 221.931 269.607 221.643L267.382 221.467C262.603 221.021 257.803 220.848 253.005 220.949C252.903 220.953 252.802 220.936 252.706 220.9C252.611 220.864 252.523 220.81 252.449 220.74C252.374 220.671 252.314 220.587 252.272 220.494C252.23 220.401 252.207 220.301 252.203 220.199C252.2 220.097 252.217 219.995 252.252 219.9C252.288 219.804 252.343 219.717 252.412 219.642C252.482 219.568 252.566 219.508 252.659 219.466C252.751 219.424 252.852 219.4 252.954 219.397C257.811 219.298 262.669 219.474 267.506 219.925L269.742 220.101C272.361 220.392 274.962 220.824 277.535 221.394C289.324 223.837 308.42 228.95 315.83 231.051C316.009 231.103 316.163 231.217 316.264 231.373C316.366 231.529 316.408 231.717 316.382 231.901C316.357 232.085 316.267 232.254 316.128 232.378C315.988 232.501 315.809 232.57 315.623 232.573L315.613 232.541Z" fill="#1C1C1C"/>
<path d="M230.784 235.698C230.651 235.698 230.521 235.665 230.404 235.6C230.288 235.535 230.191 235.442 230.121 235.328C230.052 235.215 230.012 235.086 230.007 234.953C230.002 234.82 230.03 234.689 230.091 234.57C231.126 232.624 231.788 231.196 232.316 230.13C233.672 227.366 233.92 226.87 235.017 226.186C236.446 225.286 247.334 220.887 250.698 220.256C250.893 220.232 251.09 220.284 251.248 220.4C251.407 220.516 251.516 220.688 251.553 220.881C251.589 221.075 251.551 221.274 251.447 221.441C251.342 221.607 251.178 221.727 250.988 221.777C247.769 222.378 236.973 226.776 235.856 227.491C235.152 227.936 235.079 228.06 233.713 230.813C233.185 231.848 232.482 233.318 231.478 235.274C231.413 235.402 231.313 235.509 231.191 235.584C231.068 235.659 230.928 235.699 230.784 235.698Z" fill="#1C1C1C"/>
<path d="M233.847 242.084C233.715 242.085 233.585 242.053 233.468 241.989C233.352 241.926 233.254 241.834 233.184 241.722C233.113 241.61 233.072 241.482 233.065 241.349C233.058 241.217 233.085 241.085 233.144 240.967C237.066 232.272 241.061 229.136 241.227 229.002C241.39 228.876 241.597 228.819 241.802 228.846C242.007 228.872 242.193 228.978 242.319 229.142C242.445 229.305 242.501 229.512 242.475 229.716C242.449 229.921 242.343 230.107 242.179 230.233C242.179 230.233 238.298 233.339 234.561 241.619C234.501 241.757 234.401 241.876 234.274 241.958C234.147 242.041 233.999 242.085 233.847 242.084Z" fill="#1C1C1C"/>
<path d="M240.327 244.361C240.124 244.361 239.93 244.282 239.785 244.141C239.64 244 239.556 243.808 239.55 243.606C239.323 239.81 240.444 236.056 242.718 233.007C242.781 232.928 242.86 232.862 242.95 232.812C243.039 232.763 243.138 232.733 243.239 232.721C243.34 232.71 243.443 232.719 243.541 232.748C243.639 232.777 243.73 232.824 243.809 232.888C243.889 232.952 243.955 233.031 244.004 233.12C244.053 233.21 244.084 233.308 244.095 233.409C244.106 233.511 244.097 233.613 244.069 233.711C244.04 233.809 243.992 233.901 243.929 233.98C241.891 236.74 240.891 240.13 241.103 243.554C241.106 243.656 241.088 243.757 241.052 243.853C241.015 243.948 240.96 244.035 240.89 244.109C240.82 244.183 240.736 244.242 240.643 244.284C240.55 244.325 240.449 244.348 240.347 244.351L240.327 244.361Z" fill="#1C1C1C"/>
<path d="M246.34 244.361C246.136 244.361 245.94 244.281 245.795 244.138C245.65 243.994 245.567 243.799 245.564 243.595C245.564 241.298 245.761 236.236 247.034 233.545C247.121 233.359 247.28 233.215 247.474 233.145C247.668 233.075 247.882 233.085 248.069 233.173C248.255 233.261 248.399 233.419 248.469 233.613C248.539 233.807 248.529 234.021 248.441 234.208C247.406 236.454 247.075 241.132 247.116 243.523C247.118 243.625 247.099 243.726 247.061 243.821C247.023 243.915 246.967 244.002 246.896 244.075C246.825 244.148 246.74 244.206 246.647 244.246C246.553 244.287 246.452 244.308 246.35 244.309L246.34 244.361Z" fill="#1C1C1C"/>
<path d="M251.939 244.703H251.836C251.734 244.689 251.637 244.655 251.548 244.603C251.46 244.551 251.383 244.482 251.322 244.401C251.26 244.319 251.215 244.226 251.19 244.127C251.164 244.027 251.159 243.924 251.173 243.823C251.95 238.203 252.664 236.174 254.03 235.75C254.221 235.706 254.422 235.736 254.592 235.834C254.762 235.932 254.889 236.09 254.947 236.278C255.004 236.466 254.989 236.668 254.903 236.845C254.818 237.021 254.668 237.159 254.485 237.23C254.154 237.333 253.45 238.348 252.705 244.03C252.68 244.216 252.589 244.386 252.448 244.51C252.307 244.633 252.127 244.702 251.939 244.703Z" fill="#1C1C1C"/>
<path d="M299.498 254.887C299.348 254.888 299.2 254.845 299.074 254.763C292.719 250.623 283.693 246.224 277.245 243.316C274.14 241.919 271.812 240.935 271.035 240.604C265.477 242.674 262.3 240.242 260.395 238.783L259.93 238.431C258.377 237.292 255.893 237.82 253.44 238.555C253.342 238.584 253.24 238.594 253.138 238.583C253.036 238.573 252.938 238.542 252.848 238.494C252.758 238.445 252.679 238.38 252.614 238.3C252.55 238.221 252.502 238.13 252.472 238.032C252.443 237.934 252.434 237.832 252.444 237.73C252.454 237.628 252.485 237.53 252.533 237.44C252.582 237.35 252.648 237.271 252.727 237.206C252.806 237.142 252.897 237.094 252.995 237.064C255.831 236.216 258.739 235.646 260.851 237.178L261.348 237.551C263.138 238.917 265.829 240.987 270.766 239.041C270.952 238.966 271.16 238.966 271.346 239.041C271.346 239.041 274.058 240.169 277.887 241.888C284.387 244.817 293.495 249.205 299.933 253.449C300.074 253.54 300.181 253.674 300.24 253.831C300.298 253.989 300.304 254.161 300.256 254.322C300.208 254.483 300.109 254.624 299.975 254.724C299.84 254.824 299.676 254.878 299.508 254.877L299.498 254.887Z" fill="#1C1C1C"/>
<path d="M249.373 220.194C249.256 220.194 249.14 220.169 249.034 220.119C248.928 220.068 248.835 219.995 248.762 219.904C241.02 210.216 236 192.994 231.902 177.707C231.136 174.809 230.401 172.024 229.708 169.426C228.869 166.321 228.186 163.837 227.565 161.757C227.544 161.58 227.585 161.402 227.68 161.252C227.775 161.101 227.919 160.988 228.087 160.931C228.256 160.874 228.439 160.877 228.606 160.939C228.773 161 228.913 161.118 229.004 161.271C229.635 163.341 230.318 165.825 231.157 168.992C231.86 171.6 232.595 174.384 233.361 177.272C237.708 193.573 242.728 209.895 249.921 218.9C250.013 219.014 250.071 219.153 250.088 219.298C250.104 219.444 250.079 219.592 250.015 219.724C249.951 219.857 249.851 219.968 249.726 220.045C249.602 220.123 249.458 220.164 249.311 220.163L249.373 220.194Z" fill="#1C1C1C"/>
<path d="M236.001 157.514C235.88 157.514 235.761 157.486 235.653 157.432C235.546 157.378 235.452 157.3 235.38 157.203C234.411 155.963 233.831 154.464 233.713 152.895C233.595 151.325 233.945 149.756 234.717 148.385C232.181 148.054 226.841 147.236 224.657 145.58C223.218 144.483 223.342 143.396 223.539 142.848C224.367 140.612 229.273 139.412 236.032 139.795C236.134 139.801 236.233 139.827 236.325 139.871C236.417 139.916 236.499 139.978 236.567 140.055C236.635 140.131 236.687 140.22 236.72 140.317C236.753 140.413 236.767 140.515 236.761 140.617C236.755 140.719 236.729 140.819 236.684 140.911C236.64 141.003 236.577 141.085 236.501 141.153C236.425 141.22 236.336 141.272 236.239 141.306C236.143 141.339 236.04 141.353 235.939 141.347C228.404 140.912 225.299 142.537 224.988 143.417C224.864 143.759 225.309 144.173 225.588 144.38C226.975 145.415 230.349 146.305 235.618 146.967L236.094 147.029C236.229 147.049 236.357 147.103 236.464 147.188C236.572 147.273 236.655 147.384 236.705 147.511C236.756 147.639 236.772 147.777 236.751 147.912C236.731 148.047 236.676 148.175 236.591 148.282C235.714 149.433 235.24 150.84 235.24 152.287C235.24 153.734 235.714 155.141 236.591 156.293C236.677 156.408 236.73 156.545 236.743 156.689C236.756 156.832 236.728 156.977 236.664 157.106C236.599 157.234 236.5 157.343 236.378 157.419C236.255 157.494 236.114 157.535 235.97 157.535L236.001 157.514Z" fill="#1C1C1C"/>
<path d="M271.843 211.065C271.64 211.065 271.446 210.986 271.301 210.845C271.156 210.704 271.072 210.512 271.067 210.309C270.888 207.477 270.291 204.687 269.297 202.029C268.624 200.28 266.192 195.623 263.169 189.744C260.064 183.658 256.09 176.071 252.819 169.271C251.608 166.746 250.522 164.365 249.59 162.202L249.445 161.861C247.789 157.99 244.384 148.333 243.432 142.775C242.645 138.149 232.264 135.302 225.392 135.106C225.29 135.103 225.189 135.08 225.096 135.039C225.003 134.997 224.919 134.938 224.849 134.864C224.778 134.79 224.724 134.703 224.687 134.607C224.651 134.512 224.633 134.411 224.636 134.309C224.637 134.206 224.659 134.105 224.7 134.011C224.741 133.918 224.801 133.833 224.875 133.763C224.949 133.692 225.037 133.637 225.133 133.601C225.229 133.565 225.331 133.549 225.433 133.553C232.73 133.76 243.98 136.751 244.953 142.506C245.802 147.484 249.021 156.924 250.853 161.219L250.998 161.56C251.929 163.724 253.006 166.083 254.206 168.588C257.435 175.367 261.358 182.933 264.556 189.019C267.754 195.105 270.052 199.638 270.766 201.439C271.831 204.26 272.463 207.227 272.64 210.237C272.642 210.339 272.625 210.44 272.589 210.536C272.552 210.631 272.497 210.718 272.427 210.792C272.357 210.866 272.273 210.925 272.18 210.967C272.087 211.008 271.986 211.031 271.884 211.034L271.843 211.065Z" fill="#1C1C1C"/>
<path d="M224.864 162.679C222.93 162.641 221.034 162.136 219.337 161.209C219.241 161.165 219.156 161.102 219.085 161.024C219.015 160.946 218.961 160.855 218.927 160.756C218.893 160.656 218.879 160.551 218.887 160.446C218.895 160.342 218.924 160.239 218.972 160.146C219.021 160.053 219.087 159.971 219.169 159.904C219.25 159.837 219.343 159.788 219.444 159.758C219.545 159.729 219.651 159.72 219.755 159.733C219.859 159.746 219.96 159.78 220.051 159.832C224.605 162.182 228.579 161.343 232.554 157.203C232.699 157.097 232.877 157.045 233.056 157.056C233.236 157.066 233.406 157.139 233.538 157.261C233.67 157.383 233.756 157.548 233.78 157.726C233.804 157.904 233.766 158.085 233.672 158.238C230.867 161.271 227.969 162.679 224.864 162.679Z" fill="#1C1C1C"/>
<path d="M209.587 130.221C209.393 130.221 209.206 130.15 209.062 130.019C208.919 129.889 208.829 129.71 208.811 129.517C208.645 127.643 209.846 126.567 210.881 125.708C211.916 124.849 212.506 124.249 212.413 123.213C212.32 122.178 211.616 121.713 210.467 121.04C209.318 120.367 207.931 119.539 207.755 117.666C207.579 115.792 208.79 114.716 209.825 113.867C210.86 113.019 211.45 112.408 211.357 111.373C211.355 111.177 211.427 110.988 211.558 110.843C211.69 110.698 211.871 110.608 212.066 110.591C212.261 110.574 212.455 110.631 212.609 110.751C212.764 110.871 212.867 111.045 212.899 111.238C213.065 113.112 211.864 114.188 210.829 115.037C209.794 115.886 209.204 116.496 209.297 117.531C209.391 118.566 210.094 119.032 211.243 119.705C212.392 120.378 213.779 121.206 213.955 123.079C214.131 124.952 212.92 126.029 211.885 126.888C210.85 127.747 210.26 128.347 210.353 129.382C210.37 129.587 210.306 129.789 210.174 129.946C210.042 130.104 209.854 130.202 209.649 130.221H209.587Z" fill="#1C1C1C"/>
<path d="M202.093 127.747C201.896 127.747 201.706 127.673 201.562 127.538C201.418 127.404 201.33 127.219 201.317 127.022C201.299 126.547 201.391 126.074 201.585 125.64C201.778 125.206 202.069 124.822 202.435 124.518C202.911 124.031 203.16 123.752 203.118 123.203C203.077 122.655 202.797 122.417 202.259 122.003C201.843 121.766 201.492 121.431 201.237 121.027C200.981 120.623 200.829 120.162 200.794 119.685C200.76 119.208 200.843 118.73 201.037 118.293C201.231 117.856 201.53 117.473 201.907 117.179C202.394 116.683 202.632 116.414 202.59 115.875C202.583 115.773 202.595 115.671 202.628 115.574C202.66 115.477 202.711 115.387 202.777 115.31C202.844 115.232 202.926 115.169 203.017 115.123C203.108 115.077 203.208 115.05 203.31 115.042C203.412 115.035 203.514 115.047 203.611 115.079C203.708 115.112 203.798 115.162 203.875 115.229C203.953 115.296 204.016 115.377 204.062 115.469C204.108 115.56 204.135 115.66 204.143 115.761C204.161 116.237 204.069 116.71 203.875 117.144C203.682 117.578 203.391 117.962 203.025 118.266C202.539 118.763 202.3 119.032 202.342 119.57C202.383 120.108 202.663 120.357 203.201 120.771C203.617 121.007 203.968 121.342 204.223 121.746C204.479 122.15 204.631 122.611 204.666 123.088C204.7 123.565 204.617 124.044 204.423 124.481C204.229 124.918 203.93 125.3 203.553 125.594C203.077 126.08 202.828 126.36 202.87 126.908C202.884 127.113 202.817 127.314 202.683 127.47C202.549 127.625 202.36 127.721 202.156 127.737L202.093 127.747Z" fill="#1C1C1C"/>
<path d="M218.654 126.443C218.456 126.443 218.266 126.368 218.122 126.234C217.978 126.099 217.89 125.915 217.877 125.718C217.859 125.243 217.951 124.77 218.145 124.336C218.338 123.901 218.629 123.517 218.995 123.213C219.471 122.727 219.72 122.447 219.678 121.899C219.637 121.35 219.357 121.112 218.819 120.698C218.403 120.462 218.052 120.127 217.797 119.723C217.541 119.319 217.389 118.858 217.354 118.381C217.32 117.904 217.403 117.426 217.597 116.989C217.791 116.552 218.09 116.169 218.467 115.875C218.954 115.378 219.192 115.109 219.15 114.571C219.143 114.469 219.156 114.367 219.188 114.27C219.22 114.173 219.271 114.083 219.337 114.005C219.404 113.928 219.486 113.865 219.577 113.819C219.668 113.773 219.768 113.745 219.87 113.738C219.972 113.73 220.074 113.743 220.171 113.775C220.268 113.807 220.358 113.858 220.435 113.925C220.513 113.992 220.576 114.073 220.622 114.164C220.668 114.256 220.695 114.355 220.703 114.457C220.721 114.932 220.629 115.405 220.436 115.84C220.242 116.274 219.951 116.658 219.585 116.962C219.109 117.448 218.861 117.728 218.902 118.266C218.943 118.804 219.223 119.053 219.761 119.467C220.177 119.703 220.528 120.038 220.784 120.442C221.039 120.846 221.191 121.307 221.226 121.784C221.261 122.261 221.177 122.739 220.983 123.176C220.789 123.613 220.49 123.996 220.113 124.29C219.637 124.776 219.388 125.056 219.43 125.604C219.444 125.808 219.377 126.01 219.243 126.165C219.109 126.32 218.92 126.416 218.716 126.432L218.654 126.443Z" fill="#1C1C1C"/>
<path d="M234.665 248.118C234.498 248.119 234.336 248.066 234.202 247.967C234.067 247.868 233.969 247.729 233.92 247.57L216.677 192.425C210.839 191.783 162.628 185.956 146.223 183.627C146.122 183.613 146.025 183.579 145.937 183.527C145.849 183.475 145.772 183.406 145.71 183.324C145.586 183.159 145.532 182.952 145.561 182.747C145.59 182.543 145.699 182.358 145.864 182.234C146.029 182.11 146.236 182.056 146.441 182.085C164.626 184.662 216.107 190.831 217.329 190.934C217.481 190.947 217.627 191.006 217.746 191.101C217.866 191.197 217.955 191.326 218.001 191.472L235.41 247.114C235.472 247.311 235.453 247.523 235.358 247.706C235.263 247.888 235.099 248.025 234.903 248.087C234.826 248.11 234.745 248.121 234.665 248.118Z" fill="#1C1C1C"/>
<path d="M273.012 250.561H238.319C238.113 250.561 237.915 250.479 237.77 250.334C237.624 250.188 237.542 249.991 237.542 249.785C237.542 249.579 237.624 249.382 237.77 249.236C237.915 249.09 238.113 249.009 238.319 249.009H269.566L252.271 240.904C252.178 240.861 252.095 240.8 252.027 240.724C251.958 240.649 251.905 240.56 251.87 240.464C251.835 240.368 251.82 240.266 251.825 240.164C251.83 240.062 251.855 239.962 251.898 239.869C251.942 239.777 252.003 239.694 252.078 239.625C252.154 239.557 252.242 239.503 252.338 239.469C252.434 239.434 252.536 239.419 252.639 239.424C252.741 239.429 252.841 239.453 252.933 239.497L273.385 249.081C273.545 249.156 273.676 249.283 273.754 249.442C273.832 249.601 273.854 249.782 273.815 249.954C273.776 250.127 273.68 250.282 273.541 250.392C273.403 250.502 273.231 250.562 273.054 250.561H273.012Z" fill="#1C1C1C"/>
<path d="M190.884 225.845L190.553 225.659C186.377 223.288 182.04 221.213 177.574 219.449L176.819 219.159L177.139 218.414C178.319 215.681 181.942 213.849 186.144 213.849C191.319 213.849 195.542 216.727 195.542 220.266C195.542 222.461 193.938 224.479 191.247 225.659L190.884 225.845ZM178.961 218.352C183.076 220.018 187.082 221.94 190.957 224.106C192.861 223.175 193.979 221.767 193.979 220.287C193.979 217.648 190.388 215.423 186.134 215.423C182.998 215.433 180.203 216.603 178.951 218.362L178.961 218.352Z" fill="#1C1C1C"/>
<path d="M155.735 217.006C155.577 217.005 155.423 216.956 155.294 216.866C155.164 216.775 155.066 216.647 155.011 216.499L143.884 186.701C143.813 186.507 143.822 186.294 143.908 186.106C143.994 185.919 144.151 185.774 144.345 185.702C144.539 185.631 144.753 185.639 144.94 185.726C145.127 185.812 145.272 185.969 145.344 186.163L156.47 215.961C156.512 216.058 156.533 216.163 156.532 216.269C156.531 216.375 156.509 216.48 156.466 216.577C156.423 216.674 156.361 216.761 156.284 216.833C156.206 216.905 156.115 216.96 156.015 216.996C155.923 217.016 155.828 217.02 155.735 217.006Z" fill="#1C1C1C"/>
<path d="M126.144 169.83C119.676 169.83 109.864 169.592 94.9285 168.971L91.7614 168.847C91.6028 168.844 91.4465 168.809 91.3022 168.743C91.1579 168.677 91.0288 168.582 90.9231 168.464C88.998 166.477 87.9526 151.345 88.3252 139.649C88.3252 139.443 88.407 139.246 88.5526 139.1C88.6982 138.955 88.8956 138.873 89.1014 138.873C89.3073 138.873 89.5048 138.955 89.6503 139.1C89.7959 139.246 89.8777 139.443 89.8777 139.649C89.443 153.022 90.8092 165.638 91.9477 167.243L94.9803 167.367C127.531 168.723 136.153 168.247 137.519 167.574C138.088 165.742 137.892 153.57 137.405 142.734C137.401 142.632 137.417 142.53 137.452 142.434C137.488 142.338 137.541 142.25 137.611 142.175C137.68 142.1 137.763 142.04 137.856 141.997C137.948 141.954 138.049 141.93 138.151 141.926C138.253 141.918 138.357 141.931 138.455 141.964C138.552 141.998 138.642 142.051 138.718 142.121C138.794 142.191 138.855 142.277 138.896 142.371C138.937 142.466 138.958 142.568 138.958 142.672C139.134 146.563 139.993 166.073 138.885 168.35C138.606 169.012 138.223 169.83 126.144 169.83Z" fill="#FE6059"/>
<path d="M135.553 166.549C135.443 166.548 135.334 166.524 135.234 166.477C135.134 166.431 135.045 166.364 134.973 166.28C134.89 166.187 126.766 156.965 119.51 151.356C115.66 148.406 113.714 147.992 112.762 148.157C111.965 148.302 110.444 148.913 107.753 151.045C102.723 155.285 98.2075 160.1 94.2974 165.39C94.1739 165.555 93.99 165.664 93.7862 165.693C93.5824 165.722 93.3753 165.669 93.2106 165.546C93.0459 165.422 92.9371 165.238 92.908 165.034C92.8788 164.83 92.9319 164.623 93.0554 164.459C97.0344 159.076 101.638 154.184 106.769 149.886C109.129 148.012 111.054 146.936 112.472 146.677C114.335 146.356 116.943 147.495 120.442 150.176C127.821 155.827 136.05 165.214 136.132 165.307C136.229 165.419 136.292 165.557 136.313 165.703C136.334 165.85 136.313 165.999 136.252 166.134C136.191 166.269 136.093 166.384 135.969 166.465C135.845 166.546 135.701 166.589 135.553 166.591V166.549Z" fill="#FE6059"/>
<path d="M281.396 262.391C281.289 262.392 281.183 262.371 281.085 262.329C273.043 258.758 262.217 250.758 261.761 250.416C261.595 250.294 261.485 250.111 261.454 249.907C261.423 249.703 261.474 249.495 261.596 249.329C261.718 249.163 261.901 249.053 262.105 249.021C262.309 248.99 262.517 249.042 262.683 249.164C262.796 249.247 273.83 257.444 281.716 260.901C281.882 260.971 282.017 261.096 282.1 261.256C282.183 261.415 282.209 261.598 282.172 261.773C282.136 261.949 282.039 262.107 281.9 262.219C281.76 262.332 281.585 262.393 281.406 262.391H281.396Z" fill="#1C1C1C"/>
<path d="M131.216 122.81C126.3 128.068 127.283 135.551 132.541 140.467C137.799 145.384 145.334 145.86 150.25 140.612C155.166 135.365 154.183 127.871 148.925 122.955C143.668 118.039 136.133 117.552 131.216 122.81Z" fill="white"/>
<path d="M141.773 145.156C138.111 145.071 134.619 143.59 132.013 141.016C129.362 138.634 127.681 135.358 127.293 131.815C127.137 130.075 127.356 128.322 127.934 126.674C128.513 125.027 129.438 123.522 130.647 122.261C135.697 116.859 143.605 116.9 149.453 122.365C155.301 127.83 155.87 135.717 150.809 141.119C149.666 142.383 148.272 143.395 146.716 144.09C145.161 144.785 143.477 145.148 141.773 145.156ZM139.703 119.829C138.213 119.832 136.741 120.146 135.379 120.75C134.018 121.354 132.797 122.235 131.795 123.338C130.728 124.433 129.911 125.747 129.401 127.189C128.892 128.632 128.702 130.168 128.846 131.69C129.204 134.852 130.71 137.773 133.079 139.898C138.254 144.742 145.251 144.825 149.639 140.074C154.027 135.323 153.541 128.368 148.356 123.514C146.034 121.246 142.937 119.944 139.693 119.871L139.703 119.829Z" fill="#1C1C1C"/>
<path d="M140.697 137.766C139.98 137.783 139.27 137.626 138.627 137.311C138.048 137.014 137.551 136.58 137.178 136.048C136.782 135.47 136.494 134.824 136.329 134.143C135.954 132.568 135.954 130.927 136.329 129.351C136.496 128.659 136.787 128.004 137.188 127.416C137.566 126.878 138.066 126.438 138.648 126.132C139.29 125.814 140 125.654 140.718 125.667C141.435 125.65 142.146 125.81 142.788 126.132C143.369 126.438 143.869 126.878 144.247 127.416C144.65 128.002 144.938 128.658 145.096 129.351C145.281 130.142 145.371 130.951 145.365 131.763C145.371 132.569 145.274 133.373 145.075 134.154C144.906 134.835 144.615 135.481 144.216 136.058C143.836 136.592 143.332 137.026 142.746 137.321C142.107 137.626 141.405 137.778 140.697 137.766ZM140.697 135.106C140.934 135.082 141.158 134.989 141.342 134.838C141.527 134.687 141.662 134.485 141.732 134.257C142.258 132.615 142.258 130.849 141.732 129.206C141.662 128.979 141.527 128.777 141.342 128.626C141.158 128.475 140.934 128.382 140.697 128.358C140.446 128.367 140.204 128.454 140.004 128.605C139.804 128.757 139.656 128.967 139.579 129.206C139.273 130.015 139.139 130.879 139.186 131.742C139.141 132.6 139.278 133.457 139.59 134.257C139.669 134.501 139.822 134.713 140.028 134.865C140.234 135.017 140.482 135.101 140.738 135.106H140.697Z" fill="#1C1C1C"/>
<path d="M226.468 145.891C226.385 151.904 224.988 158.445 219.709 160.526C218.823 160.864 217.892 161.073 216.946 161.147C204.091 162.254 198.585 157.773 198.212 137.062C198.212 133.957 224.843 131.98 225.443 134.992C225.867 137.149 226.161 139.33 226.323 141.523" fill="#1C1C1C"/>
<path d="M213.644 162.078C209.008 162.078 205.768 161.043 203.356 158.88C199.465 155.372 197.633 148.644 197.426 137.073C197.426 136.421 197.426 134.423 208.904 133.212C210.601 133.036 225.547 131.556 226.199 134.847C226.63 137.036 226.931 139.247 227.099 141.471C227.107 141.573 227.094 141.676 227.062 141.773C227.03 141.87 226.979 141.96 226.912 142.037C226.846 142.114 226.764 142.178 226.673 142.224C226.582 142.27 226.482 142.297 226.38 142.305C226.278 142.312 226.176 142.299 226.079 142.267C225.982 142.235 225.892 142.184 225.815 142.117C225.737 142.051 225.674 141.969 225.628 141.878C225.582 141.787 225.554 141.687 225.547 141.585C225.385 139.424 225.095 137.274 224.678 135.147C224.233 134.589 219.854 133.926 211.957 134.495C204.06 135.065 199.372 136.431 198.989 137.145C199.206 148.158 200.872 154.533 204.422 157.731C207.031 160.081 210.881 160.898 216.894 160.381C217.77 160.312 218.631 160.117 219.451 159.801C224.502 157.814 225.661 151.138 225.713 145.881C225.713 145.675 225.794 145.477 225.94 145.332C226.086 145.186 226.283 145.104 226.489 145.104C226.695 145.104 226.892 145.186 227.038 145.332C227.183 145.477 227.265 145.675 227.265 145.881C227.151 154.098 224.647 159.408 220.02 161.23C219.061 161.597 218.053 161.823 217.029 161.902C215.814 162.02 214.686 162.078 213.644 162.078Z" fill="#1C1C1C"/>
<path d="M225.66 152.711C227.329 152.733 228.964 152.235 230.336 151.285C231.709 150.335 232.752 148.982 233.319 147.412C230.018 147.412 222.328 144.39 222.328 144.39L225.66 152.711Z" fill="#1C1C1C"/>
<path d="M225.836 153.487H225.65C225.498 153.484 225.35 153.436 225.225 153.35C225.1 153.263 225.003 153.142 224.946 153.001L221.614 144.721C221.544 144.576 221.522 144.413 221.549 144.255C221.576 144.097 221.652 143.951 221.765 143.837C221.879 143.724 222.025 143.648 222.183 143.621C222.341 143.594 222.504 143.617 222.649 143.686C222.721 143.686 230.225 146.656 233.351 146.656C233.473 146.659 233.594 146.691 233.702 146.749C233.81 146.807 233.902 146.89 233.972 146.991C234.042 147.092 234.086 147.209 234.103 147.33C234.119 147.452 234.106 147.576 234.065 147.691C233.444 149.379 232.325 150.838 230.855 151.873C229.385 152.908 227.634 153.472 225.836 153.487ZM223.704 145.745L226.188 151.955C227.428 151.895 228.629 151.509 229.672 150.837C230.715 150.164 231.562 149.229 232.129 148.126C229.254 147.592 226.434 146.795 223.704 145.745Z" fill="#1C1C1C"/>
</svg>
