<svg width="15" height="14" viewBox="0 0 15 14" fill="none" xmlns="http://www.w3.org/2000/svg">
    <path fill-rule="evenodd" clip-rule="evenodd" d="M2.6001 6.99995C2.6001 6.71 2.83515 6.47495 3.1251 6.47495L10.5716 6.47495L7.66121 3.70339C7.45221 3.50242 7.44569 3.17007 7.64666 2.96107C7.84763 2.75206 8.17997 2.74555 8.38898 2.94651L12.239 6.62151C12.3419 6.72049 12.4001 6.85714 12.4001 6.99995C12.4001 7.14276 12.3419 7.27941 12.239 7.37839L8.38898 11.0534C8.17997 11.2544 7.84763 11.2478 7.64666 11.0388C7.44569 10.8298 7.45221 10.4975 7.66122 10.2965L10.5716 7.52495L3.1251 7.52495C2.83515 7.52495 2.6001 7.2899 2.6001 6.99995Z" fill="#DC3829"/>
</svg>
