<svg width="14" height="14" viewBox="0 0 14 14" xmlns="http://www.w3.org/2000/svg" fill="currentColor">
    <g id="heroicons-mini/arrow-right">
        <path id="Vector (Stroke)" fill-rule="evenodd" clip-rule="evenodd" d="M2.1001 7.00001C2.1001 6.71006 2.33515 6.47501 2.6251 6.47501L10.0716 6.47501L7.16121 3.70345C6.95221 3.50248 6.94569 3.17013 7.14666 2.96113C7.34763 2.75212 7.67997 2.74561 7.88898 2.94657L11.739 6.62157C11.8419 6.72056 11.9001 6.8572 11.9001 7.00001C11.9001 7.14282 11.8419 7.27947 11.739 7.37845L7.88898 11.0534C7.67997 11.2544 7.34763 11.2479 7.14666 11.0389C6.94569 10.8299 6.95221 10.4975 7.16122 10.2966L10.0716 7.52501L2.6251 7.52501C2.33515 7.52501 2.1001 7.28996 2.1001 7.00001Z" fill="currentColor"/>
    </g>
</svg>
