<svg width="24" height="24" viewBox="0 0 24 24" fill="none" xmlns="http://www.w3.org/2000/svg">
<g id="icon / asset growth">
<path id="Vector" d="M11.6328 12.4895V19.4863" stroke="#73B7AF" stroke-linecap="round" stroke-linejoin="round"/>
<path id="Vector_2" d="M14.5365 13.3921C13.8261 13.8673 13.4597 14.7313 14.5365 15.4593C15.1269 16.9361 16.2245 16.5409 16.8757 15.8529C17.6149 14.7889 17.8037 13.4369 17.3845 12.2113C16.3477 12.9953 15.4229 12.8017 14.5365 13.3921Z" stroke="#73B7AF" stroke-linecap="round" stroke-linejoin="round"/>
<path id="Vector_3" d="M6.77349 15.9632C7.30149 16.5392 8.13669 16.7488 8.64229 15.672C9.89349 14.9312 9.38149 13.9936 8.66949 13.5024C7.60389 12.9824 6.35429 13.0016 5.30469 13.5536C6.15909 14.3824 6.11429 15.2448 6.77349 15.9616V15.9632Z" stroke="#73B7AF" stroke-linecap="round" stroke-linejoin="round"/>
<path id="Vector_4" d="M11.6328 19.4864C11.6328 19.4864 13.2232 15.9888 15.7672 14.3984" stroke="#73B7AF" stroke-linecap="round" stroke-linejoin="round"/>
<path id="Vector_5" d="M7.82031 8.67367C7.82031 10.7809 9.52911 12.4897 11.6363 12.4897C13.7435 12.4897 15.4523 10.7809 15.4523 8.67367C15.4523 6.56647 13.7435 4.85767 11.6363 4.85767C9.52911 4.85767 7.82031 6.56647 7.82031 8.67367Z" stroke="#73B7AF" stroke-linecap="round" stroke-linejoin="round"/>
<path id="Vector_6" d="M11.6363 18.8513C11.6363 18.8513 10.9995 16.6257 7.82031 14.7169" stroke="#73B7AF" stroke-linecap="round" stroke-linejoin="round"/>
<path id="Vector_7" d="M12.5909 6.76489H11.2981C10.8261 6.76489 10.4453 7.14729 10.4453 7.61929C10.4453 7.96809 10.6565 8.28009 10.9797 8.41129L12.2933 8.93609C12.7301 9.11209 12.9429 9.60969 12.7669 10.0465C12.6373 10.3697 12.3237 10.5809 11.9749 10.5809H10.6837" stroke="#73B7AF" stroke-linecap="round" stroke-linejoin="round"/>
<path id="Vector_8" d="M11.6328 11.2176V10.5808" stroke="#73B7AF" stroke-linecap="round" stroke-linejoin="round"/>
<path id="Vector_9" d="M11.6328 6.76485V6.12805" stroke="#73B7AF" stroke-linecap="round" stroke-linejoin="round"/>
</g>
</svg>
