<svg width="80" height="80" viewBox="0 0 80 80" fill="none" xmlns="http://www.w3.org/2000/svg">
<g id="icon / clipboard">
<path id="Vector" fill-rule="evenodd" clip-rule="evenodd" d="M69.4726 61.6853C55.4672 72.5333 37.5952 72.896 19.3979 59.5787C9.33391 52.208 1.89924 31.5573 12.3632 17.4827C16.5072 11.92 29.8939 0.773325 45.5366 5.24266C61.7232 9.86666 56.9339 18.3413 62.4006 27.7333C69.4246 39.808 83.2912 44.0533 69.4726 61.6853Z" fill="#A6BAD2"/>
<path id="Vector_2" d="M57.1459 49.6374V56.3307C57.1459 57.3867 56.2873 58.2454 55.2313 58.2454H24.6393C23.5833 58.2454 22.7246 57.3867 22.7246 56.3307V21.9094C22.7246 20.8534 23.5833 19.9947 24.6393 19.9947H30.3779" stroke="#281E1E" stroke-width="2" stroke-linecap="round" stroke-linejoin="round"/>
<path id="Vector_3" d="M49.498 20H55.2367C56.2927 20 57.1514 20.8587 57.1514 21.9147V28.608" stroke="#281E1E" stroke-width="2" stroke-linecap="round" stroke-linejoin="round"/>
<path id="Vector_4" d="M37.0664 17.1256C37.0664 18.7096 38.3517 19.9949 39.9357 19.9949C41.5197 19.9949 42.8051 18.7096 42.8051 17.1256C42.8051 15.5416 41.5197 14.2562 39.9357 14.2562C38.3517 14.2562 37.0664 15.5416 37.0664 17.1256Z" stroke="#281E1E" stroke-width="2" stroke-linecap="round" stroke-linejoin="round"/>
<path id="Vector_5" d="M42.6397 18.0853H47.5837C48.6397 18.0853 49.4984 18.944 49.4984 20V21.9147C49.4984 22.9707 48.6397 23.8293 47.5837 23.8293H32.2877C31.2317 23.8293 30.373 22.9707 30.373 21.9147V20C30.373 18.944 31.2317 18.0853 32.2877 18.0853H37.2317" stroke="#281E1E" stroke-width="2" stroke-linecap="round" stroke-linejoin="round"/>
<path id="Vector_6" d="M28.4648 31.4667H51.4088" stroke="#281E1E" stroke-width="2" stroke-linecap="round" stroke-linejoin="round"/>
<path id="Vector_7" d="M28.4648 39.1147H46.5662" stroke="#281E1E" stroke-width="2" stroke-linecap="round" stroke-linejoin="round"/>
<path id="Vector_8" d="M28.4648 46.7625H43.7288" stroke="#281E1E" stroke-width="2" stroke-linecap="round" stroke-linejoin="round"/>
<path id="Vector_9" d="M54.2773 46.768L47.584 48.6827L49.4986 41.9893L60.9387 30.5493C62.2827 29.2533 64.4213 29.2853 65.7173 30.6293C66.9867 31.9413 66.9867 34.0213 65.7173 35.3333L54.2773 46.7733V46.768Z" fill="white" stroke="#281E1E" stroke-width="2" stroke-linecap="round" stroke-linejoin="round"/>
</g>
</svg>
