<svg width="80" height="80" viewBox="0 0 80 80" fill="none" xmlns="http://www.w3.org/2000/svg">
<g id="icon / community">
<path id="Vector" d="M58.9279 20.9654C67.0239 28.7894 75.3706 36.8694 75.1732 44.6934C74.9279 52.5174 66.2346 60.1388 58.1386 65.4721C50.0426 70.8054 42.6346 73.8028 34.9279 74.1068C27.2266 74.4108 19.1732 72.0214 13.5466 66.6881C7.91457 61.4028 4.6079 53.1254 4.80524 45.0934C5.00257 37.0668 8.6559 29.1894 14.3359 21.3654C19.9679 13.5414 27.6212 5.76543 35.3226 5.66409C43.0239 5.56276 50.8799 13.1308 58.9279 20.9548V20.9654Z" fill="#A6BAD2"/>
<path id="Vector_2" d="M14.5508 31.568C14.5508 34.8907 17.2441 37.584 20.5668 37.584C23.8894 37.584 26.5828 34.8907 26.5828 31.568C26.5828 28.2453 23.8894 25.552 20.5668 25.552C17.2441 25.552 14.5508 28.2453 14.5508 31.568Z" stroke="#281E1E" stroke-width="2" stroke-linecap="round" stroke-linejoin="round"/>
<path id="Vector_3" d="M29.0365 43.6483C24.0605 38.9549 16.2205 39.1843 11.5272 44.1603C10.0818 45.6909 9.05249 47.5683 8.53516 49.6109H24.5778" stroke="#281E1E" stroke-width="2" stroke-linecap="round" stroke-linejoin="round"/>
<path id="Vector_4" d="M51.9805 31.568C51.9805 34.8907 54.6738 37.584 57.9965 37.584C61.3191 37.584 64.0125 34.8907 64.0125 31.568C64.0125 28.2453 61.3191 25.552 57.9965 25.552C54.6738 25.552 51.9805 28.2453 51.9805 31.568Z" stroke="#281E1E" stroke-width="2" stroke-linecap="round" stroke-linejoin="round"/>
<path id="Vector_5" d="M49.5195 43.6483C54.4955 38.9549 62.3355 39.1843 67.0289 44.1603C68.4742 45.6909 69.5035 47.5683 70.0209 49.6109H53.9782" stroke="#281E1E" stroke-width="2" stroke-linecap="round" stroke-linejoin="round"/>
<path id="Vector_6" d="M33.2656 39.5892C33.2656 42.9119 35.959 45.6052 39.2816 45.6052C42.6043 45.6052 45.2976 42.9119 45.2976 39.5892C45.2976 36.2666 42.6043 33.5732 39.2816 33.5732C35.959 33.5732 33.2656 36.2666 33.2656 39.5892Z" fill="white" stroke="#281E1E" stroke-width="2" stroke-linecap="round" stroke-linejoin="round"/>
<path id="Vector_7" d="M51.3062 57.6323C49.6102 50.9869 42.8529 46.9763 36.2075 48.6669C31.8075 49.7869 28.3675 53.2269 27.2422 57.6323H51.3009H51.3062Z" fill="white" stroke="#281E1E" stroke-width="2" stroke-linecap="round" stroke-linejoin="round"/>
</g>
</svg>
