<svg width="40" height="41" viewBox="0 0 40 41" fill="none" xmlns="http://www.w3.org/2000/svg">
<g id="icon / consolidate">
<path id="Vector" d="M3.96752 20.9215C3.79418 15.3695 3.61818 9.64413 6.37552 7.02546C9.15152 4.4228 14.8422 4.8788 19.5408 5.90813C24.2368 6.93746 27.8875 8.5268 30.7142 11.1455C33.5435 13.7641 35.5675 17.4308 35.7248 21.2548C35.8982 25.0601 34.2235 29.0761 31.3942 31.7641C28.5648 34.4521 24.5675 35.8681 19.8715 36.5481C15.1915 37.2468 9.81552 37.2121 7.05552 34.5241C4.29818 31.8361 4.12218 26.4575 3.96485 20.9241L3.96752 20.9215Z" fill="#FDD6C3"/>
<path id="Vector_2" d="M24.8595 21.9641H14.2969" stroke="#281E1E" stroke-linecap="round" stroke-linejoin="round"/>
<path id="Vector_3" d="M27.3006 15.8735H25.6766C25.2274 15.8735 24.8633 16.2377 24.8633 16.6869V27.2442C24.8633 27.6934 25.2274 28.0575 25.6766 28.0575H27.3006C27.7498 28.0575 28.1139 27.6934 28.1139 27.2442V16.6869C28.1139 16.2377 27.7498 15.8735 27.3006 15.8735Z" fill="white" stroke="#281E1E" stroke-linecap="round" stroke-linejoin="round"/>
<path id="Vector_4" d="M13.4863 19.9346H11.0516C10.6024 19.9346 10.2383 20.2987 10.2383 20.7479V23.1826C10.2383 23.6318 10.6024 23.9959 11.0516 23.9959H13.4863C13.9355 23.9959 14.2996 23.6318 14.2996 23.1826V20.7479C14.2996 20.2987 13.9355 19.9346 13.4863 19.9346Z" fill="white" stroke="#281E1E" stroke-linecap="round" stroke-linejoin="round"/>
<path id="Vector_5" d="M13.4863 12.6228H11.0516C10.6024 12.6228 10.2383 12.9869 10.2383 13.4361V15.8708C10.2383 16.32 10.6024 16.6841 11.0516 16.6841H13.4863C13.9355 16.6841 14.2996 16.32 14.2996 15.8708V13.4361C14.2996 12.9869 13.9355 12.6228 13.4863 12.6228Z" fill="white" stroke="#281E1E" stroke-linecap="round" stroke-linejoin="round"/>
<path id="Vector_6" d="M13.4863 27.2441H11.0516C10.6024 27.2441 10.2383 27.6083 10.2383 28.0575V30.4921C10.2383 30.9413 10.6024 31.3055 11.0516 31.3055H13.4863C13.9355 31.3055 14.2996 30.9413 14.2996 30.4921V28.0575C14.2996 27.6083 13.9355 27.2441 13.4863 27.2441Z" fill="white" stroke="#281E1E" stroke-linecap="round" stroke-linejoin="round"/>
<path id="Vector_7" d="M14.2969 28.8707H18.3582C18.8062 28.8707 19.1715 28.5081 19.1715 28.0574V15.8734C19.1715 15.4254 18.8089 15.0601 18.3582 15.0601H14.2969" stroke="#281E1E" stroke-linecap="round" stroke-linejoin="round"/>
</g>
</svg>
