<svg width="24" height="24" viewBox="0 0 24 24" fill="none" xmlns="http://www.w3.org/2000/svg">
<path d="M4.36719 9.47033C4.36719 10.4671 5.17519 11.2751 6.17199 11.2751C7.16879 11.2751 7.97679 10.4671 7.97679 9.47033C7.97679 8.47353 7.16879 7.66553 6.17199 7.66553C5.17519 7.66553 4.36719 8.47353 4.36719 9.47033Z" stroke="#7fc1dd" stroke-linecap="round" stroke-linejoin="round"/>
<path d="M8.7129 13.0944C7.2201 11.6864 4.8681 11.7552 3.4601 13.248C3.0265 13.7072 2.7177 14.2704 2.5625 14.8832H7.3753" stroke="#7fc1dd" stroke-linecap="round" stroke-linejoin="round"/>
<path d="M15.5938 9.47033C15.5938 10.4671 16.4017 11.2751 17.3985 11.2751C18.3953 11.2751 19.2033 10.4671 19.2033 9.47033C19.2033 8.47353 18.3953 7.66553 17.3985 7.66553C16.4017 7.66553 15.5938 8.47353 15.5938 9.47033Z" stroke="#7fc1dd" stroke-linecap="round" stroke-linejoin="round"/>
<path d="M14.8594 13.0944C16.3522 11.6864 18.7042 11.7552 20.1122 13.248C20.5458 13.7072 20.8546 14.2704 21.0098 14.8832H16.197" stroke="#7fc1dd" stroke-linecap="round" stroke-linejoin="round"/>
<path d="M9.97656 11.8768C9.97656 12.8736 10.7846 13.6816 11.7814 13.6816C12.7782 13.6816 13.5862 12.8736 13.5862 11.8768C13.5862 10.88 12.7782 10.072 11.7814 10.072C10.7846 10.072 9.97656 10.88 9.97656 11.8768Z" stroke="#7fc1dd" stroke-linecap="round" stroke-linejoin="round"/>
<path d="M15.3911 17.2897C14.8823 15.2961 12.8551 14.0929 10.8615 14.6001C9.54147 14.9361 8.50947 15.9681 8.17188 17.2897H15.3895H15.3911Z" fill="white" stroke="#7fc1dd" stroke-linecap="round" stroke-linejoin="round"/>
<path d="M13.8591 5.34084C13.8591 5.69124 13.7615 5.93764 13.6319 6.17124C13.4159 6.55524 13.1183 6.87204 12.7871 7.15524C12.4415 7.45124 12.0815 7.73124 11.7295 8.01924C11.6799 8.06084 11.6447 8.06084 11.5903 8.02084C11.1119 7.67364 10.6399 7.31844 10.2191 6.90084C9.94554 6.62884 9.70394 6.33444 9.54874 5.97764C9.40954 5.65924 9.34874 5.33124 9.51194 5.00484C9.68154 4.66724 9.94714 4.44164 10.3359 4.40004C10.6143 4.37124 10.8639 4.45924 11.0911 4.61924C11.2751 4.74884 11.4143 4.91844 11.5231 5.11524C11.5439 5.15364 11.5983 5.19844 11.6383 5.19844C11.6783 5.19844 11.7343 5.15684 11.7551 5.11684C11.8911 4.86564 12.0767 4.66084 12.3311 4.52964C12.6591 4.36004 12.9967 4.32964 13.3231 4.52324C13.6575 4.72164 13.8511 5.01764 13.8623 5.33924L13.8591 5.34084Z" fill="white" stroke="#7fc1dd" stroke-linecap="round" stroke-linejoin="round"/>
</svg>
