<svg width="41" height="41" viewBox="0 0 41 41" fill="none" xmlns="http://www.w3.org/2000/svg">
<g id="icon / data">
<path id="Vector" fill-rule="evenodd" clip-rule="evenodd" d="M3.52973 24.1267C-0.294274 15.4254 8.56973 8.86804 18.5724 6.57737C24.1057 5.31071 32.3111 9.85737 35.9537 17.6574C37.3937 20.7427 39.0897 28.6787 33.5111 32.7267C27.7377 36.916 25.3217 33.0414 19.9884 32.1187C13.1324 30.9347 7.93239 34.14 3.53239 24.124L3.52973 24.1267Z" fill="#FDD6C3"/>
<path id="Vector_2" d="M14.1196 26.1295C14.1196 25.9108 13.9409 25.7322 13.7223 25.7322H12.1356C11.9169 25.7322 11.7383 25.9108 11.7383 26.1295V28.9055H14.1196V26.1295Z" fill="white" stroke="#281E1E" stroke-linecap="round" stroke-linejoin="round"/>
<path id="Vector_3" d="M18.8813 22.1639C18.8813 21.9453 18.7027 21.7666 18.484 21.7666H16.8973C16.6787 21.7666 16.5 21.9453 16.5 22.1639V28.9079H18.8813V22.1639Z" fill="white" stroke="#281E1E" stroke-linecap="round" stroke-linejoin="round"/>
<path id="Vector_4" d="M23.6431 24.5426C23.6431 24.3239 23.4644 24.1453 23.2457 24.1453H21.6591C21.4404 24.1453 21.2617 24.3239 21.2617 24.5426V28.9079H23.6431V24.5426Z" fill="white" stroke="#281E1E" stroke-linecap="round" stroke-linejoin="round"/>
<path id="Vector_5" d="M28.4048 18.1962C28.4048 17.9775 28.2261 17.7988 28.0074 17.7988H26.4208C26.2021 17.7988 26.0234 17.9775 26.0234 18.1962V28.9082H28.4048V18.1962Z" fill="white" stroke="#281E1E" stroke-linecap="round" stroke-linejoin="round"/>
<g id="Vector_6">
<path d="M10.9492 28.9082H29.1999H10.9492Z" fill="white"/>
<path d="M10.9492 28.9082H29.1999" stroke="#281E1E" stroke-linecap="round" stroke-linejoin="round"/>
</g>
<g id="Vector_7">
<path d="M13.6602 17.0734L15.7802 14.9534L13.6602 17.0734Z" fill="white"/>
<path d="M13.6602 17.0734L15.7802 14.9534" stroke="#281E1E" stroke-linecap="round" stroke-linejoin="round"/>
</g>
<g id="Vector_8">
<path d="M18.2734 14.6309L20.2921 15.8095L18.2734 14.6309Z" fill="white"/>
<path d="M18.2734 14.6309L20.2921 15.8095" stroke="#281E1E" stroke-linecap="round" stroke-linejoin="round"/>
</g>
<g id="Vector_9">
<path d="M22.9102 15.6283L25.9688 13.2256L22.9102 15.6283Z" fill="white"/>
<path d="M22.9102 15.6283L25.9688 13.2256" stroke="#281E1E" stroke-linecap="round" stroke-linejoin="round"/>
</g>
<path id="Vector_10" d="M25.6289 12.2441C25.6289 13.1215 26.3382 13.8308 27.2156 13.8308C28.0929 13.8308 28.8022 13.1215 28.8022 12.2441C28.8022 11.3668 28.0929 10.6575 27.2156 10.6575C26.3382 10.6575 25.6289 11.3668 25.6289 12.2441Z" fill="white" stroke="#281E1E" stroke-linecap="round" stroke-linejoin="round"/>
<path id="Vector_11" d="M20.0742 16.6094C20.0742 17.4867 20.7836 18.196 21.6609 18.196C22.5382 18.196 23.2476 17.4867 23.2476 16.6094C23.2476 15.732 22.5382 15.0227 21.6609 15.0227C20.7836 15.0227 20.0742 15.732 20.0742 16.6094Z" fill="white" stroke="#281E1E" stroke-linecap="round" stroke-linejoin="round"/>
<path id="Vector_12" d="M15.3164 13.8308C15.3164 14.7081 16.0257 15.4175 16.9031 15.4175C17.7804 15.4175 18.4897 14.7081 18.4897 13.8308C18.4897 12.9535 17.7804 12.2415 16.9031 12.2415C16.0257 12.2415 15.3164 12.9508 15.3164 13.8281V13.8308Z" fill="white" stroke="#281E1E" stroke-linecap="round" stroke-linejoin="round"/>
<path id="Vector_13" d="M10.9492 18.196C10.9492 19.0734 11.6586 19.7827 12.5359 19.7827C13.4132 19.7827 14.1226 19.0734 14.1226 18.196C14.1226 17.3187 13.4132 16.6094 12.5359 16.6094C11.6586 16.6094 10.9492 17.3187 10.9492 18.196Z" fill="white" stroke="#281E1E" stroke-linecap="round" stroke-linejoin="round"/>
</g>
</svg>
