<svg xmlns="http://www.w3.org/2000/svg" width="14" height="14" viewBox="0 0 14 14" fill="none">
    <path fill-rule="evenodd" clip-rule="evenodd" d="M7.00156 2.09961C7.38816 2.09961 7.70156 2.41301 7.70156 2.79961V6.29961H11.2016C11.5882 6.29961 11.9016 6.61301 11.9016 6.99961C11.9016 7.38621 11.5882 7.69961 11.2016 7.69961H7.70156V11.1996C7.70156 11.5862 7.38816 11.8996 7.00156 11.8996C6.61496 11.8996 6.30156 11.5862 6.30156 11.1996V7.69961H2.80156C2.41496 7.69961 2.10156 7.38621 2.10156 6.99961C2.10156 6.61301 2.41496 6.29961 2.80156 6.29961L6.30156 6.29961V2.79961C6.30156 2.41301 6.61496 2.09961 7.00156 2.09961Z" fill="#FB4D3D"/>
</svg>