<svg width="235" height="73" viewBox="0 0 235 73" fill="none" xmlns="http://www.w3.org/2000/svg">
<g id="firstpremier 1">
<path id="Vector" d="M32.9724 48.6642C32.9724 48.8706 32.9418 49.0535 32.8819 49.2115C32.822 49.3695 32.737 49.5025 32.6269 49.6092C32.5168 49.7159 32.3858 49.7977 32.2325 49.8545C32.0793 49.9113 31.9107 49.939 31.7281 49.939C31.5456 49.939 31.377 49.9113 31.2237 49.8572C31.0704 49.8032 30.9381 49.7228 30.8266 49.6175C30.7151 49.5122 30.6287 49.3833 30.566 49.2309C30.5033 49.0785 30.4727 48.9039 30.4727 48.7071C30.4727 48.5006 30.5033 48.3177 30.5632 48.1625C30.6231 48.0073 30.7081 47.8743 30.8182 47.7676C30.9283 47.6609 31.0593 47.5792 31.2126 47.5251C31.3658 47.4711 31.5344 47.4434 31.717 47.4434C31.8995 47.4434 32.0681 47.4711 32.2214 47.5251C32.3747 47.5792 32.507 47.6581 32.6185 47.7621C32.73 47.866 32.8164 47.9935 32.8791 48.1431C32.9418 48.2942 32.9724 48.4674 32.9724 48.6642ZM32.7258 48.6863C32.7258 48.5117 32.6979 48.3593 32.6436 48.229C32.5893 48.0988 32.5154 47.9907 32.4248 47.9076C32.3329 47.8244 32.227 47.7607 32.1043 47.7191C31.9817 47.6775 31.8535 47.6568 31.7184 47.6568C31.5832 47.6568 31.4494 47.6762 31.3296 47.7136C31.2098 47.751 31.1039 47.8133 31.0147 47.8965C30.9255 47.9796 30.8545 48.0863 30.8015 48.2152C30.7486 48.3441 30.7221 48.502 30.7221 48.6863C30.7221 48.8706 30.7472 49.0189 30.7959 49.1492C30.8447 49.2794 30.9144 49.3889 31.0035 49.4762C31.0927 49.5635 31.1986 49.6286 31.3212 49.6702C31.4439 49.7117 31.579 49.7325 31.7295 49.7325C31.8647 49.7325 31.9929 49.7131 32.1127 49.6729C32.2339 49.6328 32.3398 49.5704 32.4304 49.4845C32.5224 49.3986 32.5934 49.2905 32.6464 49.1575C32.6993 49.0244 32.7258 48.8679 32.7258 48.6863ZM31.2237 47.999H31.7936C31.9469 47.999 32.0653 48.0392 32.1475 48.1196C32.2298 48.2 32.2716 48.3011 32.2716 48.4244C32.2716 48.5297 32.2437 48.6143 32.1866 48.678C32.1294 48.7418 32.0681 48.7903 32.0026 48.8221C32.0612 48.9136 32.1225 49.0078 32.1866 49.109C32.2507 49.2087 32.3106 49.3044 32.3649 49.3958H32.0305L31.7239 48.8776H31.5052V49.3958H31.2251V48.0004L31.2237 47.999ZM31.5038 48.6586H31.7017C31.7825 48.6586 31.8494 48.642 31.9023 48.6073C31.9553 48.5727 31.9817 48.5145 31.9817 48.43C31.9817 48.3538 31.9594 48.2997 31.9162 48.2692C31.873 48.2387 31.8117 48.2235 31.7351 48.2235H31.5052V48.66L31.5038 48.6586Z" fill="#2A544A"/>
<path id="Vector_2" d="M177.7 45.2553H178.813L179.212 46.5426C179.24 46.6202 179.267 46.7103 179.297 46.8142C179.326 46.9181 179.355 47.0234 179.385 47.1343C179.414 47.2452 179.442 47.3574 179.467 47.4696C179.492 47.5819 179.513 47.6872 179.528 47.7842H179.557C179.573 47.6789 179.595 47.5653 179.624 47.4433C179.653 47.3214 179.683 47.2022 179.712 47.0872C179.741 46.9722 179.769 46.8669 179.797 46.7699C179.825 46.6729 179.846 46.5967 179.861 46.5426L180.248 45.2553H181.362L181.625 48.926H180.793L180.729 47.6844C180.721 47.568 180.715 47.4405 180.711 47.3034C180.707 47.1662 180.704 47.0248 180.703 46.8807C180.701 46.7366 180.7 46.5953 180.7 46.4553V46.0701H180.682C180.654 46.199 180.625 46.3306 180.591 46.4664C180.558 46.6022 180.524 46.738 180.488 46.871C180.453 47.0054 180.418 47.1357 180.382 47.2618C180.347 47.3879 180.313 47.5043 180.276 47.6082L179.867 48.9246H179.199L178.771 47.6138C178.737 47.5057 178.702 47.3879 178.666 47.2618C178.631 47.1357 178.596 47.0054 178.562 46.871C178.529 46.7366 178.497 46.6022 178.466 46.4664C178.436 46.3306 178.408 46.199 178.384 46.0701H178.366C178.37 46.1948 178.37 46.3292 178.369 46.4747C178.367 46.6202 178.363 46.7657 178.36 46.9112C178.356 47.0567 178.352 47.1967 178.345 47.3311C178.339 47.4655 178.334 47.5833 178.331 47.683L178.267 48.9246H177.446L177.699 45.2539L177.7 45.2553Z" fill="#2A544A"/>
<path id="Vector_3" d="M184.753 47.7791H182.936V47.8026C182.936 47.9966 183.013 48.1393 183.165 48.228C183.317 48.3181 183.509 48.3624 183.739 48.3624C183.899 48.3624 184.04 48.3472 184.161 48.3153C184.282 48.2848 184.384 48.2474 184.466 48.2045L184.625 48.7989C184.519 48.8488 184.385 48.8945 184.224 48.9333C184.062 48.9721 183.863 48.9915 183.629 48.9915C183.418 48.9915 183.218 48.9638 183.028 48.907C182.839 48.8502 182.673 48.7643 182.531 48.6479C182.389 48.5315 182.274 48.3832 182.191 48.2045C182.107 48.0257 182.065 47.8123 182.065 47.5629C182.065 47.3412 182.099 47.1389 182.169 46.9546C182.237 46.7703 182.333 46.6123 182.458 46.4793C182.584 46.3476 182.733 46.2451 182.907 46.173C183.081 46.101 183.274 46.0649 183.484 46.0649C183.871 46.0649 184.179 46.1813 184.409 46.4141C184.639 46.6469 184.755 46.9795 184.755 47.4105V47.7777L184.753 47.7791ZM183.869 47.1901C183.869 47.1236 183.86 47.0599 183.845 46.9975C183.829 46.9352 183.804 46.8797 183.771 46.8312C183.738 46.7827 183.694 46.7439 183.641 46.7148C183.588 46.6857 183.526 46.6705 183.45 46.6705C183.314 46.6705 183.201 46.7176 183.11 46.8132C183.02 46.9088 182.968 47.0377 182.952 47.2012L183.866 47.1901H183.869Z" fill="#2A544A"/>
<path id="Vector_4" d="M186.101 48.9263H185.234V46.1286H185.908L186.007 46.4778C186.133 46.3489 186.269 46.2492 186.417 46.1743C186.565 46.0995 186.732 46.0635 186.914 46.0635C187.317 46.0635 187.592 46.2048 187.741 46.4889C187.866 46.36 188.007 46.2575 188.166 46.1799C188.324 46.1023 188.493 46.0635 188.673 46.0635C188.974 46.0635 189.207 46.1438 189.37 46.306C189.534 46.4667 189.616 46.7037 189.616 47.0141V48.9249H188.749V47.1014C188.749 46.985 188.719 46.8921 188.656 46.8215C188.593 46.7522 188.51 46.7161 188.404 46.7161C188.311 46.7161 188.213 46.7397 188.111 46.7854C188.01 46.8312 187.926 46.9004 187.859 46.9891V48.9236H186.992V47.1C186.992 46.9836 186.962 46.8907 186.899 46.8201C186.836 46.7508 186.753 46.7148 186.647 46.7148C186.553 46.7148 186.456 46.7425 186.354 46.7965C186.252 46.8506 186.169 46.9226 186.102 47.0127V48.9236L186.101 48.9263Z" fill="#2A544A"/>
<path id="Vector_5" d="M193.054 47.539C193.054 47.7649 193.019 47.9658 192.951 48.1445C192.882 48.3233 192.789 48.4757 192.669 48.6018C192.549 48.7279 192.409 48.8249 192.247 48.89C192.085 48.9566 191.908 48.9898 191.716 48.9898C191.524 48.9898 191.376 48.9621 191.248 48.9053C191.118 48.8485 191.01 48.7709 190.919 48.6697H190.895L190.842 48.9261H190.215V44.7593H191.076V46.321C191.166 46.2475 191.272 46.1865 191.393 46.138C191.514 46.0895 191.649 46.0646 191.797 46.0646C192.187 46.0646 192.494 46.1935 192.717 46.4526C192.939 46.7117 193.051 47.0734 193.051 47.539H193.054ZM192.163 47.5625C192.163 47.2785 192.109 47.0679 191.999 46.9279C191.889 46.7879 191.736 46.7187 191.536 46.7187C191.443 46.7187 191.354 46.7436 191.27 46.7921C191.187 46.8406 191.125 46.8877 191.086 46.9348V48.193C191.129 48.2429 191.187 48.2845 191.256 48.315C191.326 48.3455 191.401 48.3621 191.479 48.3621C191.568 48.3621 191.655 48.3469 191.737 48.315C191.819 48.2845 191.892 48.236 191.957 48.1695C192.021 48.103 192.073 48.0198 192.109 47.9187C192.147 47.8175 192.165 47.6997 192.165 47.5625H192.163Z" fill="#2A544A"/>
<path id="Vector_6" d="M196.064 47.7791H194.247V47.8026C194.247 47.9966 194.324 48.1393 194.475 48.228C194.627 48.3181 194.82 48.3624 195.049 48.3624C195.21 48.3624 195.35 48.3472 195.472 48.3153C195.593 48.2848 195.695 48.2474 195.777 48.2045L195.936 48.7989C195.83 48.8488 195.696 48.8945 195.534 48.9333C195.373 48.9721 195.173 48.9915 194.939 48.9915C194.729 48.9915 194.528 48.9638 194.339 48.907C194.149 48.8502 193.984 48.7643 193.841 48.6479C193.699 48.5315 193.585 48.3832 193.501 48.2045C193.418 48.0257 193.376 47.8123 193.376 47.5629C193.376 47.3412 193.409 47.1389 193.479 46.9546C193.547 46.7703 193.644 46.6123 193.769 46.4793C193.894 46.3476 194.043 46.2451 194.218 46.173C194.392 46.101 194.584 46.0649 194.794 46.0649C195.182 46.0649 195.49 46.1813 195.72 46.4141C195.95 46.6469 196.065 46.9795 196.065 47.4105V47.7777L196.064 47.7791ZM195.179 47.1901C195.179 47.1236 195.171 47.0599 195.155 46.9975C195.14 46.9352 195.115 46.8797 195.082 46.8312C195.048 46.7827 195.005 46.7439 194.952 46.7148C194.899 46.6857 194.836 46.6705 194.761 46.6705C194.624 46.6705 194.512 46.7176 194.421 46.8132C194.33 46.9088 194.279 47.0377 194.262 47.2012L195.176 47.1901H195.179Z" fill="#2A544A"/>
<path id="Vector_7" d="M196.543 48.9264V46.1287H197.223L197.311 46.6178C197.346 46.5486 197.389 46.4793 197.44 46.4114C197.49 46.3435 197.552 46.2839 197.621 46.234C197.691 46.1841 197.773 46.1425 197.865 46.1121C197.957 46.0816 198.059 46.0649 198.173 46.0649C198.26 46.0649 198.338 46.076 198.41 46.0968C198.483 46.1176 198.54 46.1425 198.583 46.1703L198.442 46.8409C198.399 46.8174 198.345 46.7966 198.278 46.7772C198.211 46.7578 198.129 46.7481 198.031 46.7481C197.851 46.7481 197.702 46.8063 197.582 46.9227C197.463 47.0391 197.404 47.2414 197.404 47.5282V48.9264H196.543Z" fill="#2A544A"/>
<path id="Vector_8" d="M202.673 45.2554V45.9316H201.161V46.8295H202.545V47.5002H201.161V48.9275H200.271V45.2568H202.673V45.2554Z" fill="#2A544A"/>
<path id="Vector_9" d="M204.452 45.2554C204.745 45.2554 205.011 45.2928 205.249 45.3662C205.487 45.4397 205.692 45.5505 205.861 45.6988C206.031 45.8471 206.162 46.03 206.254 46.2489C206.346 46.4679 206.392 46.7242 206.392 47.0152C206.392 47.3408 206.337 47.6235 206.227 47.8633C206.117 48.1016 205.968 48.2998 205.778 48.4577C205.589 48.6157 205.367 48.7321 205.114 48.8097C204.86 48.8873 204.59 48.9261 204.306 48.9261H203.134V45.2554H204.452ZM204.024 48.2513H204.253C204.409 48.2513 204.561 48.2319 204.707 48.1931C204.853 48.1543 204.981 48.0877 205.09 47.9921C205.199 47.8965 205.288 47.7704 205.353 47.6111C205.42 47.4517 205.454 47.2535 205.454 47.0166C205.454 46.6632 205.354 46.3944 205.154 46.2101C204.955 46.0258 204.686 45.933 204.346 45.933H204.024V48.2526V48.2513Z" fill="#2A544A"/>
<path id="Vector_10" d="M207.81 45.2554V48.9261H206.92V45.2554H207.81Z" fill="#2A544A"/>
<path id="Vector_11" d="M210.412 48.3154C210.587 48.3154 210.736 48.3001 210.858 48.2682C210.979 48.2378 211.081 48.1962 211.163 48.1463L211.338 48.7809C211.26 48.8281 211.133 48.8738 210.961 48.9209C210.786 48.968 210.573 48.9902 210.318 48.9902C210.028 48.9902 209.764 48.9458 209.521 48.8558C209.279 48.7671 209.073 48.6396 208.9 48.4747C208.728 48.3098 208.595 48.1103 208.499 47.8747C208.402 47.6391 208.355 47.3759 208.355 47.0849C208.355 46.7939 208.401 46.5417 208.493 46.3075C208.585 46.0719 208.716 45.8724 208.886 45.7075C209.056 45.5426 209.263 45.4137 209.507 45.3222C209.751 45.2308 210.026 45.1851 210.331 45.1851C210.589 45.1851 210.799 45.21 210.961 45.2585C211.122 45.307 211.25 45.3569 211.344 45.4068L211.145 46.0539C211.054 46.004 210.948 45.9583 210.826 45.9195C210.703 45.8807 210.566 45.8613 210.419 45.8613C210.263 45.8613 210.116 45.8835 209.98 45.9278C209.843 45.9721 209.723 46.0428 209.622 46.1412C209.52 46.2382 209.44 46.3643 209.382 46.5167C209.323 46.6705 209.294 46.8576 209.294 47.0793C209.294 47.2858 209.322 47.4659 209.379 47.6211C209.436 47.7763 209.514 47.9052 209.616 48.0091C209.718 48.113 209.836 48.1893 209.97 48.2391C210.105 48.289 210.253 48.3154 210.413 48.3154H210.412Z" fill="#2A544A"/>
<path id="Vector_12" d="M11.4067 33.415C11.8094 32.7235 12.1843 32.014 12.6176 31.3434C13.7546 29.5904 15.3696 28.3447 17.1184 27.2542C18.6511 26.2994 20.2995 25.583 22.0023 24.9913C23.8764 24.3414 25.8021 23.8814 27.7669 23.6222C29.3735 23.4116 30.9954 23.3132 32.6104 23.1691C32.6745 23.1636 32.7414 23.1927 32.8096 23.2592C32.1882 23.2883 31.5653 23.2952 30.9466 23.352C29.1519 23.5169 27.3725 23.765 25.6126 24.1835C22.5583 24.9082 19.685 26.0417 17.1128 27.8459C15.6762 28.8546 14.3942 30.0547 13.4732 31.5651C12.3152 33.4621 11.7927 35.5199 12.2205 37.7314C12.495 39.149 13.1137 40.4405 13.9748 41.6072C14.2814 42.0216 14.5712 42.4276 14.7565 42.9278C14.999 43.5846 15.3682 44.1943 15.7152 44.8886C14.8262 44.2151 14.0668 43.4918 13.3826 42.6895C12.5549 41.7181 11.9028 40.6386 11.4067 39.4649C11.4067 37.4474 11.4067 35.4298 11.4067 33.4122V33.415Z" fill="#2A544A"/>
<path id="Vector_13" d="M19.6626 49.8393C20.8735 49.2947 21.0142 48.1044 21.3695 47.079C22.1749 44.758 22.926 42.4189 23.6979 40.0868C24.1633 38.6789 24.6176 37.2669 25.0914 35.8618C25.841 33.6391 26.5851 31.4137 27.364 29.2007C27.8057 27.948 28.8132 27.4492 30.077 27.4464C35.2703 27.434 40.4635 27.4409 45.6568 27.4409C46.7813 27.4409 47.2314 28.052 46.883 29.1051C46.1389 31.3583 45.3935 33.6114 44.6494 35.8645C44.262 37.0368 43.8774 38.2105 43.4873 39.3828C43.249 40.0992 42.2402 40.7173 41.3107 40.7187C38.4737 40.7214 35.6381 40.7186 32.8011 40.72C31.6265 40.72 31.6293 40.7228 31.2698 41.848C30.6232 43.8656 29.96 45.879 29.3287 47.9007C28.9414 49.1437 27.8029 49.8116 26.6687 49.8421C24.396 49.9017 22.1206 49.8615 19.8451 49.8615C19.7838 49.8615 19.7239 49.8462 19.6626 49.8379V49.8393ZM31.6502 40.6383C31.9762 40.5926 32.2117 40.5413 32.4486 40.5302C33.6901 40.4748 34.5959 39.8124 35.2327 38.8396C35.6799 38.1565 35.9962 37.3694 36.268 36.5948C36.9828 34.5564 37.6614 32.5042 38.3107 30.4437C38.5114 29.8063 38.5964 29.1273 38.6842 28.4608C38.7301 28.1074 38.3999 27.7028 38.0655 27.6474C37.3409 27.5282 36.3321 27.6986 35.9168 28.4247C35.4904 29.1716 35.1198 29.9642 34.8383 30.7763C34.2029 32.6095 33.64 34.4691 33.045 36.3163C32.5935 37.7214 32.1393 39.1251 31.6502 40.6383Z" fill="#2A544A"/>
<path id="Vector_14" d="M140.209 41.0028C140.894 39.049 141.569 37.1256 142.243 35.2009C142.214 35.1856 142.185 35.1704 142.155 35.1538C141.808 35.7067 141.466 36.2623 141.114 36.8125C140.259 38.1469 139.408 39.4841 138.532 40.806C138.44 40.9446 138.202 41.0499 138.025 41.0596C137.451 41.0915 136.874 41.0541 136.3 41.0776C135.98 41.0901 135.904 40.9668 135.916 40.673C135.98 39.0019 136.03 37.3307 136.083 35.6595C136.09 35.4198 136.083 35.1801 136.083 34.939C136.048 34.9334 136.012 34.9293 135.977 34.9237C135.772 35.6429 135.567 36.3621 135.362 37.0813C135.017 38.291 134.685 39.5049 134.308 40.7049C134.257 40.8642 133.979 41.0458 133.799 41.0527C132.966 41.0901 132.128 41.0652 131.294 41.0707C131.037 41.0721 130.944 41.0042 131.039 40.7312C131.31 39.9511 131.572 39.1668 131.82 38.3797C132.165 37.2836 132.481 36.1792 132.826 35.0831C133.083 34.2683 133.373 33.4632 133.632 32.6498C133.803 32.1094 133.944 31.5593 134.106 31.0161C134.28 30.4327 134.635 30.1736 135.243 30.1736C136.215 30.1736 137.188 30.1708 138.16 30.1736C138.638 30.175 138.705 30.2941 138.695 30.7653C138.665 32.1399 138.673 33.5159 138.652 34.8905C138.644 35.442 138.602 35.9921 138.576 36.5422C138.612 36.5547 138.647 36.5672 138.683 36.581C139.07 35.9561 139.46 35.3339 139.844 34.7076C140.706 33.2942 141.558 31.8738 142.438 30.4715C142.533 30.3218 142.784 30.1902 142.965 30.186C144.156 30.1611 145.348 30.1791 146.539 30.168C146.857 30.1653 146.919 30.265 146.816 30.5574C146.552 31.3098 146.301 32.0664 146.057 32.8258C145.86 33.4424 145.693 34.0688 145.495 34.6854C145.115 35.8702 144.711 37.0466 144.336 38.2342C144.071 39.0725 143.848 39.9233 143.586 40.7631C143.549 40.8836 143.397 41.0527 143.295 41.0555C142.31 41.0762 141.323 41.0652 140.337 41.061C140.302 41.061 140.267 41.0291 140.21 41.0014L140.209 41.0028Z" fill="#2A544A"/>
<path id="Vector_15" d="M119.363 35.9408C119.597 36.1237 119.766 36.2567 119.937 36.387C120.394 36.7389 120.495 37.1837 120.331 37.7269C120.096 38.5154 119.888 39.3135 119.663 40.1048C119.594 40.3445 119.502 40.5718 119.782 40.7561C119.835 40.7907 119.823 40.9251 119.847 41.0415H116.017C116.059 40.7852 116.076 40.5593 116.135 40.3431C116.293 39.757 116.466 39.175 116.642 38.593C116.866 37.8502 116.501 37.332 115.715 37.3112C115.169 37.296 114.621 37.3084 114.001 37.3084C113.78 38.0484 113.569 38.7856 113.339 39.5159C113.206 39.9399 113.059 40.3625 112.881 40.7699C112.827 40.896 112.65 41.0498 112.526 41.0526C111.475 41.0748 110.424 41.0651 109.3 41.0651C109.389 40.781 109.46 40.5551 109.531 40.3279C109.859 39.2955 110.189 38.2646 110.515 37.2336C111.122 35.3116 111.737 33.3925 112.328 31.4663C112.446 31.0825 112.414 30.6363 112.807 30.3883C112.97 30.2843 113.174 30.1832 113.359 30.1818C115.467 30.1679 117.578 30.1167 119.684 30.1943C120.885 30.2386 121.931 30.98 122.024 32.3061C122.075 33.0239 121.75 33.6696 121.353 34.271C120.869 35.0054 120.181 35.4946 119.362 35.938L119.363 35.9408ZM114.857 34.817C115.611 34.817 116.261 34.8779 116.893 34.7948C117.285 34.7421 117.69 34.5246 118.013 34.2821C118.35 34.0285 118.4 33.6086 118.278 33.1985C118.183 32.8825 117.939 32.7398 117.625 32.7356C117.024 32.7273 116.42 32.7287 115.82 32.7509C115.714 32.755 115.552 32.852 115.517 32.9435C115.292 33.5366 115.092 34.1393 114.858 34.8183L114.857 34.817Z" fill="#2A544A"/>
<path id="Vector_16" d="M171.463 41.0431H167.627C167.827 40.2366 167.983 39.4579 168.216 38.7027C168.495 37.7964 168.173 37.3142 167.21 37.31C166.704 37.3086 166.2 37.31 165.644 37.31C165.305 38.3978 164.964 39.462 164.649 40.5346C164.536 40.9212 164.34 41.0902 163.92 41.0791C162.95 41.0556 161.981 41.0708 160.906 41.0708C161.147 40.2616 161.355 39.5119 161.595 38.7719C161.989 37.5511 162.407 36.3387 162.804 35.1179C163.144 34.0758 163.474 33.0324 163.795 31.9848C163.898 31.6495 163.941 31.2961 164.043 30.9608C164.2 30.4411 164.59 30.1751 165.142 30.1751C167.182 30.1751 169.222 30.1681 171.262 30.1765C172.278 30.1806 173.404 30.9635 173.571 32.0028C173.723 32.9465 173.451 33.7266 172.856 34.3848C172.314 34.9834 171.662 35.4837 171.057 36.0283C171.475 36.2569 171.91 36.5701 171.967 37.1562C171.995 37.4431 171.97 37.7465 171.902 38.0264C171.787 38.499 171.619 38.9576 171.478 39.4232C171.323 39.9332 171.031 40.432 171.461 41.0445L171.463 41.0431ZM166.492 34.8158C167.242 34.8158 167.903 34.8657 168.549 34.8005C169.155 34.7396 169.7 34.5123 169.898 33.8208C170.071 33.2153 169.812 32.7663 169.179 32.7386C168.606 32.7123 168.031 32.7303 167.458 32.7483C167.361 32.7511 167.207 32.8245 167.178 32.9035C166.943 33.5174 166.731 34.1396 166.491 34.8172L166.492 34.8158Z" fill="#2A544A"/>
<path id="Vector_17" d="M156.36 34.2752H160.75C160.487 35.1205 160.268 35.8965 159.988 36.6503C159.938 36.7861 159.64 36.9039 159.453 36.9067C158.262 36.9302 157.07 36.9261 155.877 36.9136C155.609 36.9108 155.446 36.9649 155.374 37.2531C155.276 37.6549 155.133 38.0471 154.988 38.5155C155.221 38.5155 155.381 38.5155 155.542 38.5155C157.021 38.5155 158.5 38.5196 159.98 38.5113C160.315 38.5099 160.424 38.5889 160.296 38.9409C160.07 39.5644 159.879 40.2005 159.697 40.8379C159.622 41.1012 159.44 41.0707 159.251 41.0693C156.799 41.0693 154.347 41.0693 151.895 41.0693C151.485 41.0693 151.077 41.0693 150.591 41.0693C150.686 40.7949 150.769 40.576 150.837 40.3529C151.288 38.891 151.724 37.4249 152.186 35.9672C152.636 34.5482 153.118 33.1389 153.576 31.7214C153.687 31.3736 153.744 31.0091 153.84 30.6558C153.928 30.3329 154.119 30.1652 154.49 30.168C157.051 30.1791 159.613 30.1722 162.174 30.1749C162.705 30.1749 162.825 30.344 162.67 30.8512C162.502 31.4068 162.343 31.968 162.139 32.5112C162.099 32.6179 161.876 32.7163 161.737 32.7191C160.285 32.7343 158.833 32.7274 157.381 32.7288C156.755 32.7288 156.677 32.8091 156.571 33.4383C156.527 33.7001 156.442 33.9565 156.36 34.2738V34.2752Z" fill="#2A544A"/>
<path id="Vector_18" d="M125.076 38.5282H130.491C130.237 39.3485 130.025 40.0982 129.758 40.8285C129.712 40.9532 129.432 41.0613 129.259 41.0613C126.575 41.0751 123.89 41.0724 121.207 41.071C120.754 41.071 120.708 41.0225 120.85 40.5638C121.071 39.8529 121.332 39.1545 121.552 38.4437C121.96 37.1273 122.341 35.8039 122.752 34.4889C122.965 33.8044 123.227 33.1337 123.449 32.4505C123.598 31.9877 123.692 31.5083 123.85 31.0482C124.063 30.4233 124.449 30.1738 125.111 30.1738C127.466 30.1738 129.822 30.1738 132.177 30.1738C132.766 30.1738 132.89 30.372 132.701 30.9401C132.56 31.3628 132.444 31.7937 132.344 32.226C132.255 32.614 132.039 32.7401 131.642 32.7346C130.19 32.7152 128.738 32.7374 127.287 32.7194C126.971 32.7152 126.815 32.8067 126.748 33.1143C126.669 33.4759 126.552 33.8293 126.43 34.2616C126.935 34.2616 127.342 34.2616 127.749 34.2616C128.639 34.2616 129.529 34.2741 130.418 34.2561C130.738 34.2492 130.823 34.403 130.751 34.6524C130.555 35.3411 130.349 36.0284 130.104 36.7005C130.062 36.8127 129.804 36.9056 129.645 36.9083C128.426 36.925 127.207 36.9333 125.989 36.9083C125.638 36.9 125.49 37.0705 125.402 37.3379C125.285 37.6968 125.201 38.0668 125.077 38.5282H125.076Z" fill="#2A544A"/>
<path id="Vector_19" d="M98.3433 41.0457C98.6512 40.1006 98.9355 39.2581 99.2002 38.4087C99.6573 36.9357 100.099 35.4585 100.553 33.9855C100.853 33.0169 101.151 32.0483 101.474 31.0867C101.703 30.4049 102.064 30.1749 102.788 30.1749C104.513 30.1749 106.24 30.1402 107.963 30.1873C109.187 30.2206 110.364 30.9689 110.643 32.1924C110.798 32.8728 110.735 33.5698 110.456 34.2253C109.694 36.0142 108.326 37.1477 106.454 37.5648C105.512 37.7754 104.502 37.7186 103.523 37.7228C103.11 37.7242 102.911 37.8406 102.801 38.2327C102.578 39.0267 102.305 39.8055 102.08 40.5995C101.976 40.9681 101.774 41.09 101.396 41.0789C100.548 41.0554 99.6991 41.072 98.8505 41.0706C98.7195 41.0706 98.5899 41.0581 98.3433 41.0457ZM103.863 35.144C104.402 35.144 104.864 35.1412 105.327 35.144C106.066 35.1481 106.601 34.7837 106.984 34.1948C107.413 33.5338 107.005 32.7661 106.216 32.7329C105.766 32.7135 105.313 32.7426 104.863 32.7259C104.626 32.7176 104.526 32.816 104.465 33.028C104.317 33.5324 104.147 34.0313 103.996 34.5357C103.943 34.713 103.916 34.8973 103.863 35.144Z" fill="#2A544A"/>
<path id="Vector_20" d="M177.356 40.7492C178.377 37.1423 179.369 33.6323 180.371 30.0932C180.491 30.0877 180.623 30.0752 180.756 30.0752C181.811 30.0738 182.865 30.053 183.919 30.0807C184.748 30.1029 185.578 30.1611 186.403 30.2456C187.28 30.3343 188.245 31.0078 188.165 32.2161C188.116 32.9436 188.12 33.6738 187.558 34.2184C187.173 34.594 186.721 34.9057 186.445 35.1288C186.633 35.3672 186.912 35.6845 187.147 36.0323C187.273 36.2166 187.365 36.4452 187.401 36.6642C187.62 38.0042 186.948 39.4148 185.779 40.1215C185.078 40.5455 184.34 40.7756 183.498 40.7603C181.609 40.7271 179.719 40.7492 177.828 40.7492C177.683 40.7492 177.54 40.7492 177.354 40.7492H177.356ZM180.154 39.0074C181.198 39.0074 182.152 39.0074 183.107 39.0074C184.253 39.0074 184.755 38.6139 185.031 37.497C185.197 36.8249 184.823 36.218 184.14 36.175C183.176 36.1141 182.206 36.1127 181.239 36.1127C181.126 36.1127 180.944 36.2582 180.909 36.3704C180.649 37.2171 180.416 38.0734 180.152 39.006L180.154 39.0074ZM181.458 34.3986C181.671 34.411 181.805 34.4263 181.939 34.4263C182.732 34.4291 183.523 34.411 184.315 34.4332C184.943 34.4512 185.395 34.1436 185.631 33.6337C185.974 32.8965 185.889 31.9708 184.688 32.0082C183.965 32.0304 183.24 32.0263 182.517 32.0055C182.24 31.9972 182.066 32.0845 181.996 32.3408C181.816 33.0018 181.649 33.6641 181.457 34.3986H181.458Z" fill="#2A544A"/>
<path id="Vector_21" d="M49.706 28.2544C50.23 28.6382 50.719 28.9902 51.2026 29.3505C52.3479 30.2041 53.393 31.1644 54.2012 32.3436C55.015 33.5298 55.6559 34.8115 55.929 36.2319C56.1297 37.2781 56.0893 38.3354 55.9109 39.3954C55.6072 41.1996 54.6638 42.6463 53.4613 43.9682C51.4715 46.1576 48.9494 47.5031 46.2002 48.4593C45.0729 48.8514 43.8927 49.0925 42.7362 49.4015C42.3641 49.5013 41.9907 49.5942 41.5991 49.6205C42.1342 49.3946 42.6734 49.1784 43.2029 48.9415C45.6052 47.869 47.7887 46.4639 49.6656 44.6223C50.7859 43.522 51.8073 42.3165 52.497 40.8989C53.6703 38.4878 54.1427 35.9783 53.2718 33.3496C52.7938 31.9071 52.0052 30.6489 50.9378 29.5611C50.5323 29.1482 50.1422 28.7186 49.706 28.2544Z" fill="#2A544A"/>
<path id="Vector_22" d="M67.2396 32.1758C66.9986 32.9919 66.7659 33.7804 66.5151 34.6284H71.1133C70.9447 35.2825 70.7942 35.87 70.634 36.4922C70.4863 36.4922 70.3372 36.4922 70.1895 36.4922C68.9285 36.4922 67.6674 36.5019 66.4078 36.4853C66.0914 36.4811 65.9382 36.5934 65.8588 36.8857C65.516 38.1634 65.1676 39.4396 64.8067 40.713C64.783 40.7948 64.6437 40.8973 64.5559 40.8987C63.9261 40.9154 63.2949 40.907 62.665 40.9084C62.3836 40.9084 62.4045 40.7685 62.4686 40.5592C62.7695 39.5782 63.0677 38.5943 63.3464 37.6063C63.6627 36.4867 63.9498 35.3587 64.2619 34.2391C64.5782 33.1069 64.907 31.9776 65.2345 30.8483C65.385 30.3258 65.5968 30.1748 66.1514 30.1748C68.2067 30.1748 70.262 30.1748 72.3172 30.1748C72.9596 30.1748 73.0767 30.3549 72.8579 30.9411C72.759 31.2058 72.6949 31.4857 72.6391 31.7642C72.5764 32.0677 72.4204 32.1841 72.0985 32.1813C70.6465 32.1661 69.1932 32.1744 67.7413 32.1744C67.5908 32.1744 67.4417 32.1744 67.241 32.1744L67.2396 32.1758Z" fill="#2A544A"/>
<path id="Vector_23" d="M208.951 37.4638C208.81 37.5455 208.65 37.6315 208.498 37.7285C207.838 38.1483 207.632 38.8273 207.463 39.5299C207.113 40.9876 207.045 40.7299 205.842 40.7493C205.585 40.7534 205.327 40.7493 204.998 40.7493C205.168 40.1022 205.319 39.5063 205.48 38.9118C205.755 37.9086 206.026 36.9054 206.316 35.9063C206.607 34.9072 206.929 33.9178 207.218 32.9187C207.439 32.1524 207.64 31.3792 207.825 30.6032C207.905 30.272 208.094 30.1612 208.411 30.1667C208.822 30.175 209.233 30.1667 209.644 30.1695C210.01 30.1736 210.098 30.2873 209.998 30.6531C209.879 31.0826 209.737 31.5053 209.616 31.9349C209.255 33.2042 208.901 34.4748 208.543 35.7455C208.572 35.7663 208.601 35.7871 208.631 35.8065C208.944 35.5543 209.269 35.3118 209.57 35.0457C210.223 34.4679 210.866 33.8776 211.514 33.2942C211.554 33.2582 211.6 33.2 211.643 33.1986C212.362 33.1792 213.083 33.1321 213.799 33.1737C214.041 33.1875 213.956 33.4466 213.803 33.5769C213.471 33.8596 213.133 34.134 212.79 34.4042C212.235 34.8434 211.673 35.273 211.118 35.7137C210.875 35.9063 210.71 36.1003 210.842 36.4716C211.257 37.6328 211.628 38.8107 212.025 39.9802C212.103 40.2089 212.22 40.4236 212.344 40.6994C212.191 40.7188 212.077 40.7451 211.964 40.7465C211.457 40.7507 210.949 40.7382 210.444 40.7521C210.108 40.7618 209.913 40.6467 209.822 40.3031C209.581 39.3885 209.312 38.4809 209.053 37.5719C209.046 37.5497 209.018 37.5331 208.95 37.4624L208.951 37.4638Z" fill="#2A544A"/>
<path id="Vector_24" d="M147.029 41.0709C146.578 41.0709 146.125 41.0612 145.673 41.0737C145.344 41.0834 145.225 41.0114 145.349 40.6497C145.718 39.5758 146.059 38.4908 146.398 37.4072C146.854 35.9466 147.295 34.4833 147.744 33.0214C147.978 32.2579 148.204 31.493 148.45 30.735C148.565 30.383 148.8 30.1683 149.208 30.1724C150.031 30.1821 150.853 30.1724 151.675 30.1766C152.133 30.1794 152.273 30.3664 152.13 30.7974C151.622 32.341 151.091 33.8778 150.596 35.4256C150.16 36.7905 149.769 38.1707 149.348 39.5411C149.232 39.9167 149.072 40.2769 148.952 40.6525C148.848 40.9809 148.636 41.0917 148.303 41.0765C147.879 41.0571 147.454 41.0723 147.029 41.0723V41.0709Z" fill="#2A544A"/>
<path id="Vector_25" d="M191.074 35.4339H189.085C189.312 34.3863 189.888 33.6145 190.866 33.2431C192.152 32.7553 193.501 32.8135 194.808 33.1419C195.758 33.3803 196.221 34.2796 196.008 35.2579C195.884 35.8246 195.686 36.3748 195.541 36.9387C195.246 38.0861 194.96 39.2362 194.681 40.3878C194.652 40.5111 194.691 40.6496 194.701 40.8381C194.076 40.8381 193.452 40.863 192.834 40.8173C192.698 40.8076 192.583 40.5416 192.481 40.4224C191.871 40.6178 191.212 40.9212 190.522 41.0238C189.716 41.143 188.931 40.9434 188.281 40.3822C187.792 39.9582 187.679 39.3914 187.803 38.8219C188.026 37.802 188.669 37.0621 189.658 36.7143C190.212 36.5189 190.827 36.4898 191.414 36.3845C192.069 36.2667 192.728 36.1738 193.374 36.0214C193.855 35.9092 193.962 35.6764 193.966 35.136C193.969 34.6953 193.711 34.4791 193.341 34.3974C192.834 34.2865 192.333 34.2948 191.832 34.5207C191.422 34.7064 191.152 34.9586 191.071 35.4339H191.074ZM193.286 37.3337C193.161 37.3267 193.068 37.3087 192.976 37.3184C192.422 37.3752 191.858 37.3822 191.324 37.5152C190.934 37.6122 190.525 37.8117 190.232 38.0819C189.658 38.6127 189.912 39.3887 190.67 39.5591C192.14 39.8889 193.144 38.7443 193.286 37.3323V37.3337Z" fill="#2A544A"/>
<path id="Vector_26" d="M200.882 40.7495C201.055 40.1134 201.209 39.5411 201.367 38.9716C201.685 37.8257 202.011 36.6811 202.32 35.5337C202.445 35.0681 202.157 34.7106 201.627 34.633C200.641 34.4903 199.72 34.9961 199.373 35.9356C199.079 36.7309 198.842 37.5485 198.594 38.3605C198.42 38.9301 198.267 39.5051 198.111 40.0788C197.961 40.6275 197.811 40.7481 197.254 40.7495C196.79 40.7495 196.326 40.7495 195.799 40.7495C195.905 40.3837 195.999 40.0663 196.089 39.7462C196.504 38.2621 196.921 36.7781 197.329 35.2926C197.45 34.8492 197.541 34.3974 197.656 33.9526C197.822 33.3166 198.081 33.1184 198.722 33.1184C198.927 33.1184 199.136 33.1406 199.338 33.1143C199.742 33.0616 199.891 33.2237 199.827 33.6145C199.812 33.7032 199.824 33.796 199.824 33.9609C200.022 33.8196 200.198 33.7074 200.358 33.5771C200.825 33.1946 201.339 32.9327 201.958 32.9549C202.447 32.9715 202.95 32.9466 203.419 33.0575C204.251 33.2528 204.633 33.7434 204.583 34.579C204.543 35.2483 204.416 35.9217 204.247 36.573C203.931 37.8035 203.548 39.016 203.212 40.2423C203.114 40.5984 202.953 40.7758 202.558 40.7564C202.027 40.7315 201.494 40.7495 200.883 40.7495H200.882Z" fill="#2A544A"/>
<path id="Vector_27" d="M84.2556 41.1304C83.7804 41.0583 83.283 41.0375 82.819 40.9017C81.9955 40.662 81.4214 40.1243 81.197 39.2777C81.0368 38.6721 81.3002 38.2758 81.8868 38.352C81.9676 38.3631 82.0512 38.359 82.1334 38.352C82.6434 38.3091 83.0991 38.2717 83.2426 38.977C83.2914 39.2139 83.6732 39.4828 83.9504 39.5562C84.5635 39.7169 85.2254 39.8597 85.7521 39.304C86.2078 38.8232 86.0684 38.2148 85.4526 37.9793C84.629 37.6647 83.7888 37.3862 82.9764 37.0425C82.2783 36.746 82.0916 36.0573 82.1961 35.3077C82.3062 34.522 82.7312 34.0037 83.3123 33.5935C83.9323 33.1543 84.6722 32.9741 85.4358 32.9575C86.212 32.9423 86.9937 32.9007 87.7238 33.2582C88.44 33.6088 88.872 34.3196 88.8316 35.0624C88.8204 35.2716 88.7522 35.3562 88.5404 35.352C88.1293 35.3437 87.7141 35.3853 87.31 35.3326C87.1372 35.3104 86.9365 35.1331 86.839 34.9723C86.4098 34.2601 85.1516 34.0966 84.5831 34.7007C84.2681 35.0347 84.3002 35.4504 84.7168 35.6444C85.3062 35.9187 85.9152 36.1806 86.5422 36.3469C87.5859 36.6241 88.1795 37.3114 88.1753 38.3756C88.1697 39.6116 87.0201 40.813 85.773 40.917C85.2742 40.9585 84.7795 41.0555 84.2584 41.1304H84.2556Z" fill="#2A544A"/>
<path id="Vector_28" d="M93.7606 33.1084H95.1916C95.0843 33.5726 94.9979 33.991 94.8823 34.4012C94.8642 34.465 94.7109 34.5218 94.6175 34.5273C94.3165 34.5439 94.0156 34.537 93.7132 34.5342C93.3927 34.5301 93.2199 34.6728 93.1349 34.9915C92.8827 35.9435 92.604 36.8885 92.3435 37.8391C92.2613 38.1398 92.1958 38.4447 92.1372 38.7509C92.0731 39.0904 92.2445 39.3121 92.5915 39.3288C92.9036 39.344 93.2157 39.3315 93.5711 39.3315C93.4275 39.8595 93.3035 40.3403 93.1614 40.8156C93.1391 40.8891 93.0304 40.9791 92.9538 40.9861C92.1149 41.0664 91.265 41.2036 90.4679 40.7865C90.0819 40.5842 89.8799 40.2918 89.8506 39.8151C89.8033 39.0655 90.1084 38.4073 90.2756 37.7158C90.4972 36.7971 90.8009 35.8978 91.0699 34.9901C91.1479 34.7255 91.0615 34.5689 90.7759 34.5481C90.5989 34.5356 90.4178 34.519 90.2422 34.537C89.9119 34.5703 89.813 34.4068 89.8799 34.1255C89.9384 33.8774 89.9942 33.6058 90.1363 33.4049C90.2394 33.258 90.4791 33.1388 90.6644 33.1291C91.6286 33.0834 91.6259 33.0959 91.8363 32.1744C91.8934 31.925 91.9352 31.6561 92.0634 31.4427C92.3031 31.0437 92.6319 30.7956 93.167 30.815C94.2706 30.8552 94.2803 30.8275 94.0755 31.8889C94.0016 32.2714 93.879 32.6441 93.7564 33.107L93.7606 33.1084Z" fill="#2A544A"/>
<path id="Vector_29" d="M39.9632 23.6592C40.7644 23.8185 41.8011 23.9502 42.5996 24.1262C44.8764 24.6278 47.0864 25.3456 49.196 26.3322C52.0818 27.6832 54.6972 29.4154 56.6759 31.9637C57.6513 33.2205 58.2574 34.6242 58.5667 36.2067C58.8844 37.8377 58.7507 39.3758 58.1125 40.8779C57.4214 42.5075 56.3596 43.8765 55.0275 45.0488C53.2341 46.6271 51.1816 47.7925 48.9689 48.6433C47.5016 49.2073 45.9633 49.5939 44.4431 50.0138C42.0255 50.6817 39.5368 50.8327 37.0356 50.8951C37.3993 50.8216 37.7644 50.7593 38.1239 50.6706C38.8109 50.5016 39.4867 50.2743 40.182 50.1524C41.1198 49.9875 42.0826 49.9584 43.012 49.7671C45.5397 49.2475 48.0046 48.5103 50.3135 47.3408C51.9633 46.5052 53.5072 45.495 54.8184 44.1772C56.7776 42.2081 58.0247 39.9093 57.9188 37.0603C57.845 35.0635 57.0605 33.312 55.8356 31.7489C54.3238 29.8214 52.4427 28.3442 50.2954 27.1622C47.9461 25.868 45.4742 24.9202 42.8615 24.3243C41.9725 24.122 41.0041 23.8975 40.0468 23.7548C40.0482 23.7312 39.9646 23.6841 39.966 23.6619L39.9632 23.6592Z" fill="#2A544A"/>
<path id="Vector_30" d="M36.2984 24.4118C35.7327 24.4118 35.1572 24.3495 34.6012 24.4243C32.9806 24.6405 31.3531 24.8414 29.7563 25.1768C26.8371 25.792 24.1227 26.9366 21.5895 28.5163C20.2727 29.338 19.0771 30.3066 17.9791 31.3875C16.8867 32.4641 15.9837 33.6974 15.301 35.0748C14.9958 35.6914 14.738 36.333 14.3994 36.9704C14.4315 36.4259 14.4175 35.873 14.5053 35.3367C14.9721 32.4835 16.6191 30.3884 18.8597 28.6701C20.7214 27.2428 22.8226 26.2909 25.0312 25.562C25.8686 25.2862 26.7367 25.0881 27.6034 24.9204C28.7238 24.7028 29.8538 24.5088 30.9881 24.38C32.7521 24.1804 34.5246 24.1596 36.2956 24.2816V24.4118H36.2984Z" fill="#2A544A"/>
<path id="Vector_31" d="M79.0764 34.0993C79.9904 33.1833 81.0662 32.7967 82.4024 32.9976C82.2352 33.5658 82.0973 34.1284 81.9008 34.6702C81.8116 34.9154 81.6068 35.0471 81.2766 34.9847C80.1883 34.781 79.1697 35.2771 78.7141 36.2804C78.4089 36.951 78.1929 37.666 77.9742 38.3714C77.7303 39.1571 77.5325 39.958 77.2997 40.7465C77.2788 40.8171 77.1437 40.8975 77.0601 40.9003C76.5403 40.9141 76.0192 40.9127 75.4995 40.9058C75.0884 40.9003 75.2166 40.576 75.2598 40.3973C75.3936 39.8319 75.5831 39.2804 75.7405 38.7206C76.0108 37.7575 76.27 36.7903 76.5417 35.8258C76.7577 35.0596 76.9779 34.2933 77.2134 33.5311C77.297 33.2623 77.4934 33.1057 77.8014 33.1168C78.0745 33.1265 78.349 33.1168 78.6221 33.1196C79.1572 33.1237 79.2673 33.2665 79.146 33.7944C79.1223 33.8956 79.1 33.9981 79.0778 34.0993H79.0764Z" fill="#2A544A"/>
<path id="Vector_32" d="M75.5453 33.1237C75.2806 34.0896 75.0451 34.9598 74.8026 35.8272C74.4682 37.0231 74.1338 38.2176 73.791 39.4106C73.6642 39.8527 73.5249 40.2919 73.3618 40.7229C73.3284 40.8088 73.1682 40.8947 73.0623 40.8989C72.5982 40.9183 72.1328 40.91 71.6674 40.9058C71.2912 40.903 71.2118 40.7825 71.3247 40.3903C71.4877 39.8194 71.6465 39.2471 71.8151 38.6776C72.2206 37.3058 72.6303 35.9339 73.0372 34.5621C73.1486 34.1879 73.2378 33.8055 73.3772 33.441C73.4273 33.3122 73.5931 33.1445 73.7144 33.1376C74.2968 33.1057 74.8807 33.1237 75.5467 33.1237H75.5453Z" fill="#2A544A"/>
<path id="Vector_33" d="M73.769 31.8391C73.8554 31.5107 73.9278 31.21 74.0142 30.9121C74.1633 30.398 74.4643 30.1763 74.9938 30.1749C75.253 30.1749 75.5135 30.1666 75.7727 30.1776C76.2005 30.1943 76.3872 30.4603 76.2353 30.8469C75.7992 31.9596 76.0235 31.9305 74.7179 31.9167C74.4448 31.9139 74.1717 31.9125 73.8986 31.9042C73.8637 31.9042 73.8289 31.871 73.7676 31.8391H73.769Z" fill="#2A544A"/>
<path id="Vector_34" d="M34.3299 23.2451H33.1733C33.1733 23.2243 33.1733 23.2035 33.1733 23.1841H34.3327C34.3327 23.2049 34.3313 23.2257 34.3299 23.2451Z" fill="#2A544A"/>
<path id="Vector_35" d="M11.4066 33.4146C11.4066 33.4146 10.2501 35.906 11.4066 39.4673L12.46 40.8544L11.4066 33.4146Z" fill="#2A544A"/>
<path id="Vector_36" d="M25.2266 24.0737C25.2266 24.0737 34.5388 21.4935 45.9328 25.0382C45.9328 25.0382 37.2086 21.9411 25.2266 24.0737Z" fill="#2A544A"/>
</g>
</svg>
