<svg width="256" height="98" viewBox="0 0 256 98" fill="none" xmlns="http://www.w3.org/2000/svg">
<g id="Container">
<g id="Page-1">
<g id="Flushing-Bank">
<g id="Group">
<path id="Path" fill-rule="evenodd" clip-rule="evenodd" d="M50.5255 40.8188H53.1223C56.4107 40.8188 56.5239 40.5893 56.9055 37.8756H58.5862V46.3582H56.9055C56.5239 43.3395 56.4107 43.1106 53.1223 43.1106H50.5255V48.4217C50.5255 52.547 50.8318 52.8129 53.9655 53.0431V54.5345H41.2036V53.0431C43.7243 52.8129 44.0318 52.547 44.0318 48.4217V35.8146C44.0318 31.6887 43.7243 31.4189 41.2036 31.1907V29.6992H59.6564C59.6947 30.3506 59.8871 33.1385 60.077 36.0811L58.397 36.1949C58.014 34.247 57.594 33.1769 56.9822 32.5651C56.3698 31.9162 55.1092 31.6887 53.0865 31.6887H51.2901C50.6016 31.6887 50.5255 31.6887 50.5255 33.1014V40.8188Z" fill="#3C86EE"/>
<path id="Path_2" fill-rule="evenodd" clip-rule="evenodd" d="M70.0862 48.9165C70.0862 50.9047 70.161 51.8598 70.8502 52.203C71.4613 52.5086 72.3403 52.547 73.5249 52.547C74.7477 52.547 76.3896 52.4313 77.1925 51.441C77.8036 50.7123 78.4524 49.6817 79.0642 47.6571L80.7071 47.9237C80.4783 49.3755 79.6754 53.3506 79.3328 54.5345H60.3813V53.0431C63.285 52.8129 63.5918 52.547 63.5918 48.4217V35.8146C63.5918 31.6887 63.285 31.4189 60.7253 31.1907V29.6992H73.142V31.1907C70.3918 31.4189 70.0862 31.6887 70.0862 35.8146V48.9165Z" fill="#3C86EE"/>
<path id="Path_3" fill-rule="evenodd" clip-rule="evenodd" d="M90.9445 29.7V31.1914C88.4236 31.419 88.1181 31.6887 88.1181 35.8146V43.6093C88.1181 49.0317 90.0288 52.1271 93.4293 52.1271C97.3255 52.1271 99.4658 48.7657 99.4658 42.4599V40.1694C99.4658 36.4245 99.313 34.3245 99.1589 33.1393C98.9691 31.8038 97.9387 31.3065 95.4155 31.1914V29.7H105.081V31.1914C103.248 31.2662 102.254 31.8038 102.065 33.1393C101.91 34.3245 101.757 36.4245 101.757 40.1694V43.1113C101.757 46.3972 101.146 49.8736 99.0061 52.2422C97.3255 54.0762 94.4214 55.1074 91.7484 55.1074C88.997 55.1074 86.4004 54.6113 84.5254 53.0438C82.5026 51.4015 81.6236 48.652 81.6236 44.1815V35.8146C81.6236 31.6887 81.318 31.419 78.644 31.1914V29.7H90.9445Z" fill="#3C86EE"/>
<g id="Clipped">
<g id="Mask group">
<mask id="mask0_2778_4493" style="mask-type:luminance" maskUnits="userSpaceOnUse" x="103" y="29" width="19" height="27">
<g id="Group_2">
<path id="Vector" d="M103.863 29.1279H121.363V55.1072H103.863V29.1279Z" fill="#3C86EE"/>
</g>
</mask>
<g mask="url(#mask0_2778_4493)">
<path id="Path_4" fill-rule="evenodd" clip-rule="evenodd" d="M105.546 46.6639C106.347 48.8809 108.601 53.12 112.347 53.12C114.332 53.12 115.86 51.8216 115.86 49.34C115.86 47.0852 114.408 45.7485 112.04 44.7531L111.466 44.4885C108.297 43.0725 104.78 41.0473 104.78 36.9591C104.78 32.6439 107.913 29.1279 113.912 29.1279C115.096 29.1279 116.32 29.2807 117.426 29.5857C118.305 29.8139 118.917 29.9686 119.413 30.1207C119.568 31.6102 119.834 33.4833 120.254 36.0813L118.573 36.3479C117.733 33.8272 116.395 31.1142 113.378 31.1142C111.428 31.1142 110.056 32.6043 110.056 34.4384C110.056 36.3479 111.507 37.4948 113.987 38.5662L114.828 38.9466C118.344 40.5122 121.363 42.4997 121.363 46.9702C121.363 51.6701 117.578 55.1075 111.657 55.1075C110.13 55.1075 108.563 54.8013 107.531 54.4574C106.385 54.0764 105.583 53.7695 105.125 53.5413C104.819 51.7846 104.322 49.721 103.863 47.1613L105.546 46.6639Z" fill="#3C86EE"/>
</g>
</g>
</g>
<path id="Path_5" fill-rule="evenodd" clip-rule="evenodd" d="M139.238 40.2467V35.8146C139.238 31.6887 138.931 31.419 136.524 31.1914V29.7H148.751V31.1914C146.039 31.419 145.732 31.6887 145.732 35.8146V48.4218C145.732 52.5471 146.039 52.813 148.675 53.0438V54.5352H136.218V53.0438C138.931 52.813 139.238 52.5471 139.238 48.4218V42.6127H131.329V48.4218C131.329 52.5471 131.635 52.813 134.118 53.0438V54.5352H121.893V53.0438C124.53 52.813 124.835 52.5471 124.835 48.4218V35.8146C124.835 31.6887 124.53 31.419 121.74 31.1914V29.7H133.965V31.1914C131.635 31.419 131.329 31.6887 131.329 35.8146V40.2467H139.238Z" fill="#3C86EE"/>
<path id="Path_6" fill-rule="evenodd" clip-rule="evenodd" d="M159.334 48.4218C159.334 52.5471 159.64 52.813 162.275 53.0431V54.5352H149.896V53.0431C152.532 52.813 152.838 52.5471 152.838 48.4218V35.8146C152.838 31.6887 152.532 31.419 149.896 31.1914V29.7H162.275V31.1914C159.64 31.419 159.334 31.6887 159.334 35.8146V48.4218Z" fill="#3C86EE"/>
<path id="Path_7" fill-rule="evenodd" clip-rule="evenodd" d="M186.994 54.8011H183.707L169.571 36.7677H169.497V43.7985C169.497 47.8106 169.647 49.9106 169.8 51.0946C169.992 52.4313 171.023 52.9299 173.546 53.0431V54.5345H164.032V53.0431C165.714 52.9689 166.705 52.4313 166.896 51.0946C167.049 49.9106 167.201 47.8106 167.201 43.7985V36.7677C167.201 33.9415 167.126 33.4441 166.362 32.374C165.79 31.5736 164.834 31.3057 163.458 31.1907V29.6992H171.903L184.622 45.5539H184.701V40.4359C184.701 36.4238 184.548 34.3244 184.394 33.1385C184.204 31.8031 183.171 31.3057 180.65 31.1907V29.6992H190.392V31.1907C188.484 31.2661 187.49 31.8031 187.298 33.1385C187.145 34.3244 186.994 36.4238 186.994 40.4359V54.8011Z" fill="#3C86EE"/>
<path id="Path_8" fill-rule="evenodd" clip-rule="evenodd" d="M210.755 37.1892C209.61 32.146 206.439 31.1135 203.955 31.1135C199.905 31.1135 196.543 35.125 196.543 41.659C196.543 47.5813 199.065 53.1194 204.339 53.1194C205.292 53.1194 205.904 52.8125 205.904 51.0187V47.3505C205.904 44.7915 205.751 44.5243 201.738 44.2187V42.4997H214.5V44.2187C212.551 44.5639 212.4 44.6777 212.4 47.3505V50.1033C212.4 51.479 212.438 52.7006 212.629 53.5796C210.261 54.2266 207.164 55.1069 203.995 55.1069C194.862 55.1069 189.437 50.1793 189.437 42.3859C189.437 33.6342 196.39 29.1279 204.529 29.1279C207.47 29.1279 210.489 29.7768 211.826 30.1201C211.94 31.4191 212.132 33.4053 212.438 37.0729L210.755 37.1892Z" fill="#3C86EE"/>
<path id="Shape" fill-rule="evenodd" clip-rule="evenodd" d="M180.532 59.5636C180.532 59.0969 180.549 58.7312 180.635 58.682C180.689 58.6283 180.876 58.5753 181.31 58.5753C181.931 58.5753 182.849 58.9934 182.849 60.5129C182.849 61.8976 182.089 62.5361 181.086 62.5361H180.532V59.5636ZM177.764 66.1832C177.764 68.0505 177.628 68.1733 176.417 68.2777V68.9502H181.396C182.831 68.9502 184.04 68.7604 184.871 68.2777C185.805 67.7226 186.429 66.91 186.429 65.6488C186.429 63.8348 185.028 62.9177 183.368 62.7259V62.6916C184.352 62.5702 185.787 61.7761 185.787 60.2713C185.787 58.4231 184.352 57.7129 181.916 57.7129H176.522V58.3886C177.628 58.4909 177.764 58.6136 177.764 60.479V66.1832ZM180.532 63.332H181.037C182.244 63.332 183.3 64.0736 183.3 65.8216C183.3 67.5148 182.244 68.0866 181.553 68.0866C180.913 68.1026 180.532 67.793 180.532 66.2365V63.332Z" fill="black"/>
<path id="Shape_2" fill-rule="evenodd" clip-rule="evenodd" d="M191.215 67.533C191.023 67.6367 190.799 67.6871 190.676 67.6871C190.367 67.6871 189.692 67.2715 189.692 66.3214C189.692 65.752 189.898 65.337 190.348 65.0949C190.609 64.9394 190.832 64.836 191.215 64.6979V67.533ZM193.787 63.2462C193.787 62.6054 193.667 61.9828 193.045 61.5334C192.594 61.2042 192.059 60.9971 191.023 60.9971C189.779 61.1876 188.394 61.8281 187.827 62.2762C187.394 62.624 187.168 62.8976 187.168 63.2462C187.168 63.8846 188.05 64.2119 188.518 64.2119C188.828 64.2119 189.155 64.0574 189.241 63.7108C189.397 63.0537 189.554 62.5363 189.763 62.2603C189.881 62.103 190.072 62.0359 190.28 62.0359C190.747 62.0359 191.215 62.5537 191.215 63.2779V63.7806C190.659 64.0574 189.501 64.4567 188.586 64.799C187.511 65.1989 187.013 65.7173 187.013 66.7014C187.013 68.017 187.928 69.1575 189.606 69.1575C189.916 69.1575 190.609 68.6025 191.317 68.2095C191.506 68.6909 191.957 69.1575 192.856 69.1575L195.018 68.1558L194.808 67.533C194.635 67.6021 194.411 67.6871 194.238 67.6871C193.997 67.6871 193.787 67.4289 193.787 66.7014V63.2462Z" fill="black"/>
<path id="Path_9" fill-rule="evenodd" clip-rule="evenodd" d="M204.681 68.9498H200.235V68.2773C200.947 68.1729 201.017 68.1029 201.017 67.1181V63.817C201.017 62.7956 200.619 62.4644 200.032 62.4644C199.528 62.4644 199.234 62.6912 198.974 62.9687V67.1181C198.974 68.1029 199.062 68.1729 199.65 68.2773V68.9498H195.138V68.2773C196.176 68.1729 196.261 68.1029 196.261 67.1181V63.369C196.261 62.3262 196.225 62.3109 195.26 62.2419V61.6537C196.434 61.5335 197.698 61.2913 198.974 60.9978V62.068L199.632 61.6045C200.235 61.1877 200.619 60.9978 201.225 60.9978C202.884 60.9978 203.73 61.9836 203.73 63.3146V67.1181C203.73 68.1029 203.816 68.1729 204.681 68.2773V68.9498Z" fill="black"/>
<path id="Path_10" fill-rule="evenodd" clip-rule="evenodd" d="M208.657 64.6793C208.935 64.5425 209.21 64.265 209.435 64.0248C209.712 63.6769 210.317 62.8306 210.544 62.484C210.697 62.2085 210.732 62.0538 210.37 62.0001L210.008 61.9317V61.2733L213.931 61.1019V61.7757L213.376 61.8972C212.875 62.0001 212.426 62.2085 211.944 62.6574C211.562 63.0204 211.165 63.3823 210.68 63.9537C211.475 65.1813 212.341 66.3388 213.133 67.4123C213.548 67.964 213.842 68.1365 214.154 68.2089L214.5 68.2773V68.9498H211.01L209.072 65.7017C208.986 65.5442 208.829 65.3187 208.657 65.2667V67.1017C208.657 68.0861 208.744 68.1728 209.66 68.2773V68.9498H205.028V68.2773C205.942 68.1728 206.029 68.0861 206.029 67.1017V59.1112C206.029 58.0929 205.994 58.0756 204.958 58.0078V57.3852C205.908 57.2644 207.275 57.0221 208.657 56.7798V64.6793Z" fill="black"/>
<path id="Shape_3" fill-rule="evenodd" clip-rule="evenodd" d="M180.532 59.5636C180.532 59.0969 180.549 58.7312 180.635 58.682C180.689 58.6283 180.876 58.5753 181.31 58.5753C181.931 58.5753 182.849 58.9934 182.849 60.5129C182.849 61.8976 182.089 62.5361 181.086 62.5361H180.532V59.5636ZM177.764 66.1832C177.764 68.0505 177.628 68.1733 176.417 68.2777V68.9502H181.396C182.831 68.9502 184.04 68.7604 184.871 68.2777C185.805 67.7226 186.429 66.91 186.429 65.6488C186.429 63.8348 185.028 62.9177 183.368 62.7259V62.6916C184.352 62.5702 185.787 61.7761 185.787 60.2713C185.787 58.4231 184.352 57.7129 181.916 57.7129H176.522V58.3886C177.628 58.4909 177.764 58.6136 177.764 60.479V66.1832ZM180.532 63.332H181.036C182.244 63.332 183.3 64.0736 183.3 65.8216C183.3 67.5148 182.244 68.0866 181.553 68.0866C180.913 68.1026 180.532 67.793 180.532 66.2365V63.332Z" fill="#8A8A8A"/>
<path id="Shape_4" fill-rule="evenodd" clip-rule="evenodd" d="M191.215 67.533C191.023 67.6367 190.799 67.6871 190.676 67.6871C190.367 67.6871 189.692 67.2715 189.692 66.3214C189.692 65.752 189.898 65.337 190.348 65.0949C190.609 64.9394 190.832 64.836 191.215 64.6979V67.533ZM193.787 63.2462C193.787 62.6054 193.667 61.9828 193.045 61.5334C192.594 61.2042 192.059 60.9971 191.023 60.9971C189.779 61.1876 188.394 61.8281 187.827 62.2762C187.394 62.624 187.168 62.8976 187.168 63.2462C187.168 63.8846 188.05 64.2119 188.518 64.2119C188.828 64.2119 189.155 64.0574 189.241 63.7108C189.397 63.0537 189.554 62.5363 189.763 62.2603C189.881 62.103 190.072 62.0359 190.28 62.0359C190.747 62.0359 191.215 62.5537 191.215 63.2779V63.7806C190.659 64.0574 189.501 64.4567 188.586 64.799C187.511 65.1989 187.013 65.7173 187.013 66.7014C187.013 68.017 187.928 69.1575 189.606 69.1575C189.916 69.1575 190.609 68.6025 191.317 68.2095C191.506 68.6909 191.957 69.1575 192.856 69.1575L195.018 68.1558L194.808 67.533C194.635 67.6021 194.411 67.6871 194.238 67.6871C193.997 67.6871 193.787 67.4289 193.787 66.7014V63.2462Z" fill="#8A8A8A"/>
<path id="Path_11" fill-rule="evenodd" clip-rule="evenodd" d="M204.681 68.9498H200.235V68.2773C200.947 68.1729 201.017 68.1029 201.017 67.1181V63.817C201.017 62.7956 200.619 62.4644 200.032 62.4644C199.528 62.4644 199.234 62.6912 198.974 62.9687V67.1181C198.974 68.1029 199.062 68.1729 199.65 68.2773V68.9498H195.138V68.2773C196.176 68.1729 196.261 68.1029 196.261 67.1181V63.369C196.261 62.3262 196.225 62.3109 195.26 62.2419V61.6537C196.434 61.5335 197.698 61.2913 198.974 60.9978V62.068L199.632 61.6045C200.235 61.1877 200.619 60.9978 201.225 60.9978C202.884 60.9978 203.73 61.9836 203.73 63.3146V67.1181C203.73 68.1029 203.816 68.1729 204.681 68.2773V68.9498Z" fill="#8A8A8A"/>
<path id="Path_12" fill-rule="evenodd" clip-rule="evenodd" d="M208.657 64.6793C208.935 64.5425 209.21 64.265 209.435 64.0248C209.712 63.6769 210.317 62.8306 210.544 62.484C210.697 62.2085 210.732 62.0538 210.37 62.0001L210.008 61.9317V61.2733L213.931 61.1019V61.7757L213.376 61.8972C212.875 62.0001 212.426 62.2085 211.944 62.6574C211.562 63.0204 211.165 63.3823 210.68 63.9537C211.475 65.1813 212.341 66.3388 213.133 67.4123C213.548 67.964 213.842 68.1365 214.154 68.2089L214.5 68.2773V68.9498H211.01L209.072 65.7017C208.986 65.5442 208.829 65.3187 208.657 65.2667V67.1017C208.657 68.0861 208.744 68.1728 209.66 68.2773V68.9498H205.028V68.2773C205.942 68.1728 206.029 68.0861 206.029 67.1017V59.1112C206.029 58.0929 205.994 58.0756 204.958 58.0078V57.3852C205.908 57.2644 207.275 57.0221 208.657 56.7798V64.6793Z" fill="#8A8A8A"/>
</g>
</g>
</g>
</g>
</svg>
