<svg width="80" height="81" viewBox="0 0 80 81" fill="none" xmlns="http://www.w3.org/2000/svg">
<g id="icon / gears">
<path id="Vector" d="M10.1097 50.415C9.48034 44.2283 7.09634 38.2817 8.07768 32.9803C9.05901 27.679 13.4537 22.9377 18.7603 18.5163C24.099 14.1323 30.4243 10.015 37.251 9.22568C44.0403 8.46301 51.4003 11.039 56.7443 15.6577C62.051 20.3083 65.379 26.975 67.8057 33.7803C70.3017 40.591 71.9017 47.471 68.915 52.1964C65.9657 56.895 58.4297 59.4443 53.2457 62.991C48.0883 66.575 45.3203 71.1297 41.171 73.5404C36.9843 75.983 31.3577 76.2764 25.6777 75.1883C19.9923 74.1644 14.2217 71.727 11.9283 67.359C9.60834 62.959 10.771 56.5644 10.1043 50.4043L10.1097 50.415Z" fill="#A6BAD2"/>
<path id="Vector_2" d="M50.7747 23.5399L51.3134 25.3105C51.5 25.9185 52.124 26.2759 52.7427 26.1319L54.54 25.7159C55.42 25.5185 56.2947 26.0679 56.492 26.9479C56.6094 27.4759 56.46 28.0252 56.092 28.4199L54.8334 29.7905C54.396 30.2599 54.396 30.9852 54.8334 31.4492L56.092 32.8039C56.7054 33.4652 56.668 34.4999 56.0067 35.1132C55.612 35.4812 55.0627 35.6305 54.5347 35.5079L52.7427 35.0865C52.124 34.9425 51.5 35.3052 51.3134 35.9079L50.7694 37.6892C50.5134 38.5479 49.6067 39.0332 48.748 38.7772C48.2254 38.6225 47.8147 38.2119 47.66 37.6892L47.1214 35.9185C46.9347 35.3105 46.3107 34.9532 45.692 35.0972L43.8947 35.5132C43.0147 35.7105 42.14 35.1559 41.9427 34.2759C41.8254 33.7532 41.9747 33.1985 42.3374 32.8039L43.596 31.4492C44.0334 30.9799 44.0334 30.2545 43.596 29.7905L42.3374 28.4359C41.724 27.7745 41.756 26.7399 42.4174 26.1265C42.812 25.7585 43.3614 25.6092 43.8894 25.7265L45.6867 26.1425C46.3054 26.2865 46.9294 25.9239 47.116 25.3212L47.6547 23.5292C47.9107 22.6705 48.812 22.1799 49.6707 22.4359C50.1934 22.5905 50.604 23.0012 50.764 23.5292L50.7747 23.5399Z" fill="#A6BAD2" stroke="#281E1E" stroke-width="2" stroke-linecap="round" stroke-linejoin="round"/>
<path id="Vector_3" d="M41.5112 49.5135C41.4526 49.4601 41.3939 49.4015 41.3406 49.3428C40.5512 48.4628 40.6259 47.1081 41.5112 46.3188L42.6526 45.2841C43.1326 44.8521 43.3939 44.2228 43.3619 43.5775C43.3032 42.3935 42.2899 41.4815 41.1006 41.5401L39.5646 41.6201C39.4899 41.6201 39.4206 41.6201 39.3459 41.6201C38.1566 41.5615 37.2446 40.5481 37.3032 39.3641L37.3832 37.8281C37.4152 37.1828 37.1592 36.5535 36.6739 36.1215C35.7939 35.3268 34.4339 35.3961 33.6339 36.2761L32.5939 37.4175C32.5406 37.4761 32.4872 37.5348 32.4232 37.5881C31.5432 38.3775 30.1886 38.3028 29.3992 37.4175L28.3592 36.2761C27.9272 35.8015 27.3086 35.5455 26.6686 35.5775C25.4792 35.6361 24.5672 36.6441 24.6206 37.8281L24.7006 39.3695C24.7006 39.4441 24.7006 39.5135 24.7006 39.5881C24.6419 40.7775 23.6286 41.6895 22.4446 41.6308L20.9086 41.5508C20.2632 41.5188 19.6339 41.7748 19.2019 42.2601C18.4072 43.1401 18.4766 44.5001 19.3566 45.3001L20.4979 46.3348C20.5566 46.3881 20.6152 46.4468 20.6686 46.5055C21.4579 47.3855 21.3832 48.7401 20.4979 49.5295L19.3566 50.5641C18.8819 50.9961 18.6259 51.6148 18.6526 52.2548C18.7059 53.4441 19.7139 54.3615 20.8979 54.3081L22.4339 54.2281C22.5086 54.2281 22.5779 54.2281 22.6526 54.2281C23.8419 54.2868 24.7539 55.3001 24.6952 56.4841L24.6152 58.0201C24.5832 58.6655 24.8392 59.2948 25.3246 59.7268C26.2046 60.5215 27.5646 60.4521 28.3646 59.5721L29.4099 58.4308C29.4632 58.3721 29.5166 58.3135 29.5806 58.2601C30.4606 57.4708 31.8152 57.5455 32.6046 58.4308L33.6392 59.5721C34.0712 60.0521 34.7006 60.3135 35.3459 60.2815C36.5299 60.2228 37.4472 59.2095 37.3832 58.0201L37.3032 56.4841C37.3032 56.4095 37.3032 56.3401 37.3032 56.2655C37.3619 55.0761 38.3752 54.1641 39.5592 54.2228L41.0952 54.3028C41.7406 54.3348 42.3699 54.0788 42.8019 53.5935C43.5966 52.7135 43.5272 51.3535 42.6472 50.5535L41.5059 49.5188L41.5112 49.5135ZM31.0046 53.6841C27.8206 53.6841 25.2392 51.1028 25.2392 47.9188C25.2392 44.7348 27.8206 42.1535 31.0046 42.1535C34.1886 42.1535 36.7699 44.7348 36.7699 47.9188C36.7699 51.1028 34.1886 53.6841 31.0046 53.6841Z" fill="white" stroke="#281E1E" stroke-width="2" stroke-linecap="round" stroke-linejoin="round"/>
<path id="Vector_4" d="M46.8516 30.623C46.8516 31.9297 47.9129 32.991 49.2196 32.991C50.5262 32.991 51.5876 31.9297 51.5876 30.623C51.5876 29.3163 50.5262 28.255 49.2196 28.255C47.9129 28.255 46.8516 29.3163 46.8516 30.623Z" stroke="#281E1E" stroke-width="2" stroke-linecap="round" stroke-linejoin="round"/>
</g>
</svg>
