<svg width="80" height="81" viewBox="0 0 80 81" fill="none" xmlns="http://www.w3.org/2000/svg">
<g id="icon / gears">
<path id="Vector" d="M10.1058 50.415C9.47644 44.2283 7.09244 38.2817 8.07377 32.9803C9.0551 27.679 13.4498 22.9377 18.7564 18.5163C24.0951 14.1323 30.4204 10.015 37.2471 9.22568C44.0364 8.46301 51.3964 11.039 56.7404 15.6577C62.0471 20.3083 65.3751 26.975 67.8018 33.7803C70.2978 40.591 71.8978 47.471 68.9111 52.1964C65.9618 56.895 58.4258 59.4443 53.2418 62.991C48.0844 66.575 45.3164 71.1297 41.1671 73.5404C36.9804 75.983 31.3538 76.2764 25.6738 75.1883C19.9884 74.1644 14.2178 71.727 11.9244 67.359C9.60444 62.959 10.7671 56.5644 10.1004 50.4043L10.1058 50.415Z" fill="#FDD6C3"/>
<path id="Vector_2" d="M50.7747 23.5399L51.3134 25.3105C51.5 25.9185 52.124 26.2759 52.7427 26.1319L54.54 25.7159C55.42 25.5185 56.2947 26.0679 56.492 26.9479C56.6094 27.4759 56.46 28.0252 56.092 28.4199L54.8334 29.7905C54.396 30.2599 54.396 30.9852 54.8334 31.4492L56.092 32.8039C56.7054 33.4652 56.668 34.4999 56.0067 35.1132C55.612 35.4812 55.0627 35.6305 54.5347 35.5079L52.7427 35.0865C52.124 34.9425 51.5 35.3052 51.3134 35.9079L50.7694 37.6892C50.5134 38.5479 49.6067 39.0332 48.748 38.7772C48.2254 38.6225 47.8147 38.2119 47.66 37.6892L47.1214 35.9185C46.9347 35.3105 46.3107 34.9532 45.692 35.0972L43.8947 35.5132C43.0147 35.7105 42.14 35.1559 41.9427 34.2759C41.8254 33.7532 41.9747 33.1985 42.3374 32.8039L43.596 31.4492C44.0334 30.9799 44.0334 30.2545 43.596 29.7905L42.3374 28.4359C41.724 27.7745 41.756 26.7399 42.4174 26.1265C42.812 25.7585 43.3614 25.6092 43.8894 25.7265L45.6867 26.1425C46.3054 26.2865 46.9294 25.9239 47.116 25.3212L47.6547 23.5292C47.9107 22.6705 48.812 22.1799 49.6707 22.4359C50.1934 22.5905 50.604 23.0012 50.764 23.5292L50.7747 23.5399Z" stroke="#281E1E" stroke-width="2" stroke-linecap="round" stroke-linejoin="round"/>
<path id="Vector_3" d="M41.5151 49.5135C41.4565 49.4601 41.3978 49.4015 41.3445 49.3428C40.5551 48.4628 40.6298 47.1081 41.5151 46.3188L42.6565 45.2841C43.1365 44.8521 43.3978 44.2228 43.3658 43.5775C43.3071 42.3935 42.2938 41.4815 41.1045 41.5401L39.5685 41.6201C39.4938 41.6201 39.4245 41.6201 39.3498 41.6201C38.1605 41.5615 37.2485 40.5481 37.3071 39.3641L37.3871 37.8281C37.4191 37.1828 37.1631 36.5535 36.6778 36.1215C35.7978 35.3268 34.4378 35.3961 33.6378 36.2761L32.5978 37.4175C32.5445 37.4761 32.4911 37.5348 32.4271 37.5881C31.5471 38.3775 30.1925 38.3028 29.4032 37.4175L28.3632 36.2761C27.9312 35.8015 27.3125 35.5455 26.6725 35.5775C25.4832 35.6361 24.5711 36.6441 24.6245 37.8281L24.7045 39.3695C24.7045 39.4441 24.7045 39.5135 24.7045 39.5881C24.6458 40.7775 23.6325 41.6895 22.4485 41.6308L20.9125 41.5508C20.2672 41.5188 19.6378 41.7748 19.2058 42.2601C18.4112 43.1401 18.4805 44.5001 19.3605 45.3001L20.5018 46.3348C20.5605 46.3881 20.6192 46.4468 20.6725 46.5055C21.4618 47.3855 21.3872 48.7401 20.5018 49.5295L19.3605 50.5641C18.8858 50.9961 18.6298 51.6148 18.6565 52.2548C18.7098 53.4441 19.7178 54.3615 20.9018 54.3081L22.4378 54.2281C22.5125 54.2281 22.5818 54.2281 22.6565 54.2281C23.8458 54.2868 24.7578 55.3001 24.6992 56.4841L24.6192 58.0201C24.5872 58.6655 24.8432 59.2948 25.3285 59.7268C26.2085 60.5215 27.5685 60.4521 28.3685 59.5721L29.4138 58.4308C29.4672 58.3721 29.5205 58.3135 29.5845 58.2601C30.4645 57.4708 31.8191 57.5455 32.6085 58.4308L33.6432 59.5721C34.0752 60.0521 34.7045 60.3135 35.3498 60.2815C36.5338 60.2228 37.4511 59.2095 37.3871 58.0201L37.3071 56.4841C37.3071 56.4095 37.3071 56.3401 37.3071 56.2655C37.3658 55.0761 38.3792 54.1641 39.5632 54.2228L41.0991 54.3028C41.7445 54.3348 42.3738 54.0788 42.8058 53.5935C43.6005 52.7135 43.5312 51.3535 42.6511 50.5535L41.5098 49.5188L41.5151 49.5135ZM31.0085 53.6841C27.8245 53.6841 25.2432 51.1028 25.2432 47.9188C25.2432 44.7348 27.8245 42.1535 31.0085 42.1535C34.1925 42.1535 36.7738 44.7348 36.7738 47.9188C36.7738 51.1028 34.1925 53.6841 31.0085 53.6841Z" fill="white" stroke="#281E1E" stroke-width="2" stroke-linecap="round" stroke-linejoin="round"/>
<path id="Vector_4" d="M46.8477 30.623C46.8477 31.9297 47.909 32.991 49.2157 32.991C50.5223 32.991 51.5837 31.9297 51.5837 30.623C51.5837 29.3163 50.5223 28.255 49.2157 28.255C47.909 28.255 46.8477 29.3163 46.8477 30.623Z" stroke="#281E1E" stroke-width="2" stroke-linecap="round" stroke-linejoin="round"/>
</g>
</svg>
