<svg width="200" height="78" viewBox="0 0 200 78" fill="none" xmlns="http://www.w3.org/2000/svg">
<g id="Container">
<g id="gsb-logo_tagonly_fullcolor_horiz">
<path id="Path 61" d="M40.7242 32.3886C44.8255 32.3886 47.3521 34.412 48.7286 36.7382L44.6838 38.8713C44.2679 38.1952 43.6856 37.6368 42.9925 37.2493C42.2994 36.8617 41.5185 36.6579 40.7242 36.6573C37.6643 36.6573 35.501 39.0142 35.501 42.0725C35.501 45.1308 37.6643 47.4877 40.7242 47.4877C41.9949 47.5089 43.2377 47.1147 44.2634 46.3651V44.7899H39.9675V40.7788H49.0091V48.107C47.9737 49.2767 46.697 50.2084 45.2668 50.838C43.8366 51.4677 42.2869 51.7804 40.7242 51.7545C35.1353 51.7545 30.5859 48.0261 30.5859 42.0743C30.5859 36.1226 35.1353 32.3886 40.7242 32.3886Z" fill="#27B67B"/>
<path id="Path 62" d="M42.006 54.1262C41.6034 54.1593 41.1978 54.1801 40.7848 54.1801C39.8086 54.1809 38.8349 54.0819 37.8789 53.8846C40.3253 56.2363 43.2115 58.0834 46.3725 59.3207C46.551 59.3924 46.6793 59.1263 46.5216 59.0043C44.7548 57.6411 43.2286 55.9923 42.006 54.1262Z" fill="#0E426A"/>
<path id="Path 63" d="M46.4329 59.3666C46.4076 59.3666 46.3825 59.3614 46.3593 59.3513C43.1937 58.1154 40.3045 56.2653 37.8584 53.9078L37.7773 53.8281L37.8878 53.8514C38.8416 54.0484 39.813 54.1474 40.7869 54.147C41.1729 54.147 41.5681 54.1304 42.0057 54.093H42.0247L42.0364 54.1096C43.256 55.972 44.7782 57.618 46.5403 58.9797C46.5826 59.0132 46.6111 59.061 46.6206 59.114C46.6301 59.1671 46.6199 59.2218 46.5919 59.2679C46.5766 59.297 46.5538 59.3216 46.5259 59.3389C46.4979 59.3563 46.4658 59.3658 46.4329 59.3666ZM37.986 53.9397C40.4108 56.252 43.264 58.0692 46.3857 59.2893C46.4132 59.3008 46.4441 59.3014 46.472 59.2909C46.5 59.2804 46.5229 59.2597 46.536 59.2329C46.5566 59.1997 46.564 59.1599 46.5566 59.1215C46.5492 59.0831 46.5276 59.0489 46.4961 59.0257C44.7346 57.6639 43.2124 56.0184 41.9922 54.1568C41.5626 54.1917 41.1662 54.2095 40.7875 54.2095C39.8472 54.212 38.9088 54.1223 37.986 53.9416V53.9397Z" fill="#0E426A"/>
<path id="Path 64" d="M87.8206 30.743C83.0337 23.4657 72.3898 18.8825 60.3356 19.7678C50.5551 20.4877 42.1211 24.6392 37.1992 30.407C38.3707 30.1024 39.5764 29.9495 40.7869 29.952C42.4607 29.9367 44.1206 30.2571 45.6682 30.8944C50.0721 26.6852 56.6644 23.8875 65.0665 23.8783C74.1959 23.8679 82.428 26.0641 87.5892 30.9858C87.7279 31.1286 87.9298 30.9165 87.8206 30.743Z" fill="#0E426A"/>
<path id="Path 65" d="M87.6883 31.0686C87.6399 31.0682 87.5936 31.0488 87.5594 31.0146C84.775 28.4761 81.4326 26.6264 77.8017 25.6147C73.6829 24.4315 69.4129 23.8577 65.1276 23.9114H65.0662C61.2513 23.8746 57.4612 24.5278 53.8792 25.8397C50.833 26.961 48.0458 28.6871 45.6857 30.914L45.6692 30.9294L45.6483 30.9214C44.1051 30.2859 42.4501 29.9663 40.7811 29.9815C39.5731 29.9795 38.3699 30.1319 37.2008 30.4352L37.0977 30.4622L37.167 30.3812C39.875 27.3133 43.2018 24.8523 46.9291 23.1597C51.1516 21.217 55.6917 20.0553 60.3291 19.7311C65.9367 19.2662 71.5761 20.0963 76.8112 22.1572C81.641 24.1285 85.4563 27.0881 87.8448 30.7184C87.876 30.7643 87.889 30.8201 87.8811 30.875C87.8733 30.9299 87.8453 30.9799 87.8025 31.0152C87.7712 31.0466 87.7295 31.0654 87.6852 31.0679L87.6883 31.0686ZM65.1282 23.8489C69.4202 23.795 73.6969 24.3699 77.8219 25.5552C81.4627 26.5649 84.8134 28.4193 87.6012 30.9674C87.6113 30.9777 87.6235 30.986 87.6368 30.9916C87.6502 30.9972 87.6646 31.0001 87.6791 31.0001C87.6936 31.0001 87.708 30.9972 87.7214 30.9916C87.7348 30.986 87.7469 30.9777 87.757 30.9674C87.7872 30.9426 87.8069 30.9075 87.8124 30.8689C87.8178 30.8303 87.8086 30.791 87.7865 30.7589C85.406 27.1414 81.6005 24.1879 76.7836 22.2216C71.5582 20.1648 65.9293 19.3364 60.3322 19.8003C55.7024 20.1258 51.1699 21.2858 46.9536 23.2241C43.268 24.8982 39.9738 27.3245 37.283 30.3469C38.4253 30.0598 39.5989 29.9156 40.7768 29.9177C42.4474 29.9029 44.1041 30.2212 45.6501 30.854C48.0114 28.6278 50.7988 26.9016 53.8448 25.779C57.4349 24.4655 61.2327 23.8099 65.0558 23.844L65.1282 23.8489Z" fill="#0E426A"/>
<path id="Path 66" d="M53.1975 45.1578C54.7855 46.7406 56.9374 47.6289 59.1804 47.6275C60.8374 47.6275 61.8482 46.9255 61.8482 46.0279C61.8482 44.961 60.641 44.5404 58.6465 44.1198C55.5578 43.5024 51.2331 42.7169 51.2331 38.2827C51.2331 35.1404 53.9008 32.4187 58.7036 32.4187C61.4729 32.339 64.1771 33.2665 66.3134 35.0288L63.6745 38.4796C62.1768 37.2709 60.3215 36.5902 58.3967 36.5433C56.7956 36.5433 56.1782 37.1858 56.1782 38.0025C56.1782 38.9836 57.3289 39.3214 59.4069 39.7138C62.4956 40.3564 66.7651 41.2564 66.7651 45.4993C66.7651 49.2585 63.9857 51.757 58.9577 51.757C55.1662 51.757 52.5231 50.5779 50.6445 48.7821L53.1975 45.1578Z" fill="#27B67B"/>
<path id="Path 67" d="M69.4336 32.6982H80.0505C83.7567 32.6982 85.5259 35.1103 85.5259 37.4684C85.579 38.4449 85.2877 39.4092 84.7027 40.1934C84.1177 40.9775 83.2761 41.532 82.3243 41.7603C83.3649 41.9768 84.2947 42.5553 84.9481 43.3929C85.6014 44.2305 85.9358 45.2727 85.8917 46.3337C85.8917 49.0554 84.0653 51.4123 80.3862 51.4123H69.4336V32.6982ZM78.9563 39.9369C79.1742 39.9466 79.3917 39.9114 79.5954 39.8335C79.799 39.7555 79.9843 39.6364 80.1398 39.4836C80.2953 39.3309 80.4176 39.1477 80.4991 38.9456C80.5805 38.7435 80.6194 38.5268 80.6133 38.309C80.6188 38.0926 80.5792 37.8775 80.4972 37.6773C80.4151 37.477 80.2923 37.2959 80.1365 37.1455C79.9807 36.9951 79.7954 36.8787 79.5923 36.8036C79.3891 36.7285 79.1725 36.6964 78.9563 36.7093H74.2646V39.9363L78.9563 39.9369ZM79.1251 47.4006C79.3628 47.4258 79.6031 47.4 79.8301 47.3249C80.057 47.2498 80.2652 47.1271 80.4408 46.9651C80.6164 46.8031 80.7553 46.6054 80.8483 46.3854C80.9412 46.1654 80.986 45.928 80.9797 45.6893C80.9852 45.4483 80.9404 45.2089 80.848 44.9862C80.7556 44.7635 80.6177 44.5626 80.4432 44.3962C80.2686 44.2298 80.0612 44.1017 79.8343 44.02C79.6073 43.9382 79.3658 43.9048 79.1251 43.9216H74.2646V47.4006H79.1251Z" fill="#27B67B"/>
<path id="Path 68" d="M98.2055 34.2336H96.3398L96.6811 32.7382H102.121L101.791 34.2336H99.9226L98.7953 39.3895H97.0769L98.2055 34.2336Z" fill="#0E426A"/>
<path id="Path 69" d="M105.372 36.6567C105.397 36.552 105.414 36.4453 105.421 36.3378C105.421 35.9583 105.102 35.8093 104.763 35.8093C104.569 35.8153 104.378 35.8597 104.201 35.9401C104.024 36.0204 103.865 36.1349 103.733 36.2771L103.054 39.3882H101.52L102.988 32.7375H104.532L103.98 35.1612C104.182 34.9461 104.424 34.7729 104.693 34.6513C104.962 34.5298 105.252 34.4624 105.547 34.4531C106.515 34.4531 107.091 34.9675 107.091 35.7002C107.085 35.8342 107.068 35.9674 107.041 36.0987L106.323 39.3888H104.789L105.372 36.6567Z" fill="#0E426A"/>
<path id="Path 70" d="M110.53 34.4536C110.823 34.4341 111.116 34.4766 111.391 34.5784C111.667 34.6802 111.917 34.839 112.126 35.0443C112.335 35.2497 112.499 35.4969 112.606 35.7698C112.713 36.0427 112.761 36.3351 112.746 36.6278C112.741 36.9094 112.708 37.1897 112.647 37.4647H109.233V37.5261C109.298 37.7758 109.451 37.9938 109.663 38.1401C109.876 38.2865 110.134 38.3515 110.391 38.3231C110.787 38.3316 111.178 38.2283 111.518 38.0252L111.988 39.0423C111.471 39.3588 110.875 39.5212 110.269 39.5102C108.725 39.5102 107.704 38.7131 107.704 37.3243C107.697 36.9494 107.765 36.577 107.904 36.2287C108.043 35.8805 108.25 35.5634 108.514 35.2961C108.777 35.0288 109.091 34.8166 109.437 34.672C109.783 34.5273 110.155 34.4531 110.53 34.4536ZM111.389 36.4003C111.381 36.2885 111.35 36.1795 111.299 36.08C111.247 35.9805 111.176 35.8926 111.089 35.8216C111.002 35.7507 110.902 35.6981 110.794 35.6672C110.686 35.6363 110.573 35.6277 110.462 35.6419C110.217 35.6454 109.98 35.7278 109.785 35.877C109.591 36.0262 109.451 36.2341 109.384 36.4696H111.38C111.387 36.4472 111.39 36.4237 111.388 36.4003H111.389Z" fill="#0E426A"/>
<path id="Path 71" d="M118.714 34.4537C120.341 34.4537 121.199 35.4206 121.199 36.6781C121.2 37.05 121.128 37.4185 120.986 37.7623C120.845 38.1062 120.636 38.4186 120.373 38.6816C120.11 38.9445 119.797 39.1528 119.453 39.2944C119.109 39.436 118.74 39.5081 118.368 39.5065C116.751 39.5065 115.883 38.5396 115.883 37.2937C115.881 36.9213 115.953 36.5523 116.095 36.2078C116.237 35.8633 116.445 35.5501 116.708 35.2862C116.971 35.0223 117.284 34.813 117.628 34.6701C117.972 34.5272 118.341 34.4537 118.714 34.4537ZM118.663 35.8099C118.492 35.8226 118.324 35.869 118.17 35.9467C118.016 36.0243 117.879 36.1315 117.767 36.2622C117.654 36.3929 117.569 36.5445 117.516 36.7083C117.462 36.872 117.442 37.0448 117.455 37.2165C117.446 37.3446 117.465 37.4733 117.511 37.5933C117.556 37.7134 117.628 37.8219 117.72 37.9113C117.813 38.0007 117.924 38.0688 118.045 38.1107C118.167 38.1526 118.296 38.1674 118.424 38.154C118.771 38.1264 119.092 37.963 119.318 37.6994C119.544 37.4359 119.657 37.0936 119.631 36.7474C119.641 36.6194 119.622 36.4908 119.576 36.3708C119.53 36.2507 119.459 36.1422 119.367 36.0528C119.274 35.9634 119.163 35.8953 119.042 35.8534C118.921 35.8114 118.791 35.7966 118.663 35.8099Z" fill="#0E426A"/>
<path id="Path 72" d="M125.391 36.6854C125.42 36.5714 125.437 36.4547 125.441 36.3372C125.441 35.9576 125.122 35.8086 124.782 35.8086C124.588 35.815 124.397 35.8597 124.221 35.9399C124.044 36.0202 123.885 36.1346 123.753 36.2765L123.065 39.3875H121.531L122.599 34.5713H124.133L123.994 35.1599C124.196 34.9448 124.438 34.7715 124.706 34.65C124.975 34.5285 125.265 34.4611 125.56 34.4518C126.529 34.4518 127.104 34.9662 127.104 35.6989C127.097 35.8327 127.08 35.9658 127.055 36.0974L126.325 39.3875H124.791L125.391 36.6854Z" fill="#0E426A"/>
<path id="Path 73" d="M128.986 32.7382H130.531L129.058 39.3888H127.523L128.986 32.7382Z" fill="#0E426A"/>
<path id="Path 74" d="M130.746 39.9781C130.853 39.9891 130.961 39.9711 131.058 39.9258C131.155 39.8806 131.238 39.8099 131.298 39.7212L131.487 39.4146L130.669 34.5776H132.247L132.645 37.6298L134.432 34.5776H136.098L132.696 40.0829C132.518 40.4723 132.229 40.8004 131.865 41.0258C131.501 41.2511 131.078 41.3636 130.65 41.349C130.349 41.3517 130.05 41.3103 129.762 41.2264L130.253 39.9112C130.412 39.961 130.579 39.9836 130.746 39.9781Z" fill="#0E426A"/>
<path id="Path 75" d="M139.737 39.3889H138.203L139.666 32.7382H141.21L140.681 35.1294C140.844 34.9195 141.053 34.7494 141.292 34.6318C141.53 34.5142 141.792 34.4523 142.058 34.4506C143.147 34.4506 143.876 35.168 143.876 36.455C143.876 37.8407 143.007 39.506 141.33 39.506C141.048 39.5168 140.768 39.46 140.513 39.3403C140.257 39.2206 140.034 39.0415 139.863 38.818L139.737 39.3889ZM141.343 35.8094C141.167 35.8162 140.994 35.8597 140.836 35.937C140.677 36.0142 140.537 36.1236 140.423 36.2582L140.104 37.7138C140.219 37.855 140.366 37.9679 140.532 38.0441C140.697 38.1203 140.879 38.1577 141.061 38.1534C141.232 38.1435 141.399 38.0999 141.553 38.0252C141.707 37.9506 141.844 37.8462 141.957 37.7182C142.071 37.5902 142.157 37.4411 142.213 37.2794C142.268 37.1178 142.291 36.9468 142.28 36.7763C142.286 36.65 142.267 36.5237 142.222 36.4053C142.178 36.2869 142.109 36.179 142.021 36.0882C141.933 35.9975 141.827 35.9259 141.71 35.8779C141.593 35.8299 141.467 35.8066 141.34 35.8094H141.343Z" fill="#0E426A"/>
<path id="Path 76" d="M148.491 34.5732H150.017L148.95 39.3894H147.423L147.546 38.8315C147.384 39.0427 147.176 39.2138 146.937 39.3313C146.698 39.4488 146.435 39.5096 146.169 39.509C145.091 39.509 144.367 38.802 144.367 37.5151C144.367 36.1189 145.226 34.4537 146.902 34.4537C147.184 34.4417 147.465 34.498 147.72 34.6178C147.976 34.7376 148.199 34.9173 148.37 35.1416L148.491 34.5732ZM146.884 38.1539C147.059 38.1495 147.231 38.1071 147.388 38.0296C147.544 37.9521 147.683 37.8414 147.792 37.7051L148.122 36.2483C148.006 36.1074 147.859 35.9948 147.693 35.9188C147.527 35.8429 147.346 35.8056 147.163 35.8099C146.991 35.8189 146.823 35.8622 146.668 35.9371C146.513 36.0121 146.375 36.1173 146.262 36.2465C146.148 36.3757 146.062 36.5263 146.008 36.6894C145.953 36.8525 145.932 37.0249 145.946 37.1962C145.939 37.322 145.959 37.4477 146.004 37.5654C146.048 37.6832 146.117 37.7904 146.205 37.8804C146.293 37.9704 146.399 38.0411 146.516 38.0882C146.633 38.1353 146.758 38.1577 146.884 38.1539Z" fill="#0E426A"/>
<path id="Path 77" d="M154.014 36.6856C154.043 36.5716 154.06 36.4549 154.064 36.3373C154.064 35.9578 153.745 35.8088 153.405 35.8088C153.211 35.8151 153.02 35.8597 152.843 35.94C152.667 36.0203 152.507 36.1347 152.375 36.2766L151.687 39.3883H150.152L151.22 34.5721H152.754L152.615 35.1607C152.817 34.9456 153.059 34.7723 153.328 34.6508C153.596 34.5293 153.886 34.4619 154.181 34.4525C155.15 34.4525 155.725 34.967 155.725 35.6997C155.718 35.8334 155.701 35.9666 155.676 36.0982L154.947 39.3883H153.412L154.014 36.6856Z" fill="#0E426A"/>
<path id="Path 78" d="M158.556 37.6555L157.936 38.2343L157.687 39.3912H156.152L157.62 32.7406H159.154L158.335 36.4194L160.163 34.5745H162.079L159.812 36.7676L161.101 39.3906H159.255L158.556 37.6555Z" fill="#0E426A"/>
<path id="Path 79" d="M95.8517 51.1499C96.1089 51.1499 96.3009 51.0408 96.5298 50.7011L96.9594 50.0426L96.0714 45.1989H96.9993L97.6585 48.9776L100.013 45.1989H101.012L97.3584 50.9304C97.2155 51.237 96.9887 51.4969 96.7044 51.6802C96.42 51.8636 96.0895 51.9629 95.7511 51.9666C95.5171 51.9682 95.2845 51.9314 95.0625 51.8575L95.3693 51.0604C95.5226 51.1219 95.6866 51.1524 95.8517 51.1499Z" fill="#0E426A"/>
<path id="Path 80" d="M103.646 45.0769C103.941 45.0493 104.238 45.0852 104.518 45.182C104.798 45.2789 105.054 45.4344 105.269 45.6383C105.484 45.8422 105.652 46.0896 105.763 46.364C105.874 46.6384 105.925 46.9334 105.912 47.229C105.934 47.974 105.659 48.6972 105.149 49.2408C104.638 49.7845 103.934 50.1044 103.188 50.131C102.894 50.1593 102.596 50.1238 102.316 50.027C102.037 49.9302 101.781 49.7744 101.567 49.5701C101.353 49.3657 101.186 49.1178 101.076 48.843C100.966 48.5682 100.917 48.2731 100.932 47.9777C100.911 47.2344 101.183 46.5126 101.692 45.9694C102.2 45.4261 102.902 45.1054 103.646 45.0769ZM103.627 45.874C102.597 45.874 101.871 46.8912 101.871 47.939C101.851 48.1231 101.872 48.3092 101.932 48.4843C101.993 48.6594 102.09 48.8191 102.219 48.9522C102.348 49.0853 102.504 49.1886 102.677 49.2548C102.85 49.321 103.036 49.3484 103.221 49.3352C103.725 49.2879 104.191 49.0455 104.519 48.6597C104.848 48.2739 105.012 47.7752 104.977 47.2701C104.996 47.0869 104.974 46.9018 104.914 46.7277C104.854 46.5536 104.757 46.3946 104.629 46.2618C104.502 46.129 104.347 46.0255 104.175 45.9586C104.003 45.8916 103.819 45.8627 103.635 45.874H103.627Z" fill="#0E426A"/>
<path id="Path 81" d="M107.818 48.2775C107.792 48.3855 107.776 48.4957 107.769 48.6067C107.769 49.1211 108.177 49.3357 108.716 49.3357C109.25 49.2795 109.745 49.0271 110.103 48.6276L110.861 45.1971H111.762L110.694 50.0133H109.793L109.942 49.3357C109.507 49.8044 108.908 50.0895 108.269 50.1328C107.401 50.1328 106.812 49.6944 106.812 48.9268C106.819 48.7918 106.84 48.6578 106.874 48.527L107.61 45.1971H108.511L107.818 48.2775Z" fill="#0E426A"/>
<path id="Path 82" d="M113.074 45.2712C113.454 45.1002 113.764 44.8045 113.953 44.4331H113.873C113.808 44.4339 113.742 44.4211 113.682 44.3955C113.621 44.3699 113.567 44.3321 113.522 44.2844C113.477 44.2367 113.442 44.1802 113.42 44.1184C113.398 44.0566 113.389 43.9909 113.393 43.9254C113.399 43.7481 113.473 43.5799 113.599 43.4554C113.726 43.331 113.895 43.26 114.073 43.2571C114.155 43.2563 114.237 43.2727 114.313 43.3054C114.389 43.338 114.457 43.386 114.514 43.4465C114.57 43.507 114.613 43.5785 114.64 43.6565C114.667 43.7345 114.678 43.8173 114.671 43.8996C114.628 44.2696 114.49 44.6223 114.272 44.9243C114.054 45.2263 113.762 45.4675 113.424 45.625L113.074 45.2712Z" fill="#0E426A"/>
<path id="Path 83" d="M116.115 43.3618H117.016L115.549 50.0144H114.648L116.115 43.3618Z" fill="#0E426A"/>
<path id="Path 84" d="M118.51 43.3618H119.412L117.944 50.0144H117.043L118.51 43.3618Z" fill="#0E426A"/>
<path id="Path 85" d="M125.019 45.0768C125.301 45.0614 125.584 45.106 125.848 45.2076C126.111 45.3091 126.351 45.4654 126.55 45.6661C126.749 45.8668 126.903 46.1073 127.002 46.3718C127.101 46.6363 127.143 46.9189 127.125 47.2007C127.121 47.4361 127.091 47.6703 127.036 47.8991H123.212C123.2 47.9652 123.193 48.0323 123.192 48.0996C123.201 48.2895 123.25 48.4754 123.335 48.6455C123.42 48.8156 123.54 48.9662 123.686 49.088C123.832 49.2097 124.002 49.2999 124.185 49.3529C124.368 49.4059 124.56 49.4205 124.748 49.3958C125.23 49.3974 125.699 49.2436 126.086 48.9574L126.375 49.5858C125.883 49.9378 125.294 50.1291 124.688 50.1334C123.202 50.1334 122.295 49.2964 122.295 47.9874C122.281 47.6172 122.341 47.248 122.471 46.901C122.6 46.554 122.797 46.2361 123.051 45.9655C123.304 45.695 123.608 45.4772 123.946 45.3246C124.284 45.1721 124.649 45.0879 125.019 45.0768ZM126.316 47.0904C126.323 46.9134 126.291 46.7372 126.223 46.5737C126.155 46.4101 126.053 46.2629 125.924 46.1421C125.794 46.0212 125.64 45.9295 125.472 45.8731C125.304 45.8167 125.126 45.7969 124.95 45.815C124.553 45.8315 124.173 45.9828 123.874 46.2439C123.574 46.5049 123.373 46.8602 123.303 47.251H126.31C126.317 47.1978 126.319 47.144 126.316 47.0904Z" fill="#0E426A"/>
<path id="Path 86" d="M128.133 45.1971H129.059L129.719 48.9758L132.071 45.1971H133.069L130.016 50.0133H129.047L128.133 45.1971Z" fill="#0E426A"/>
<path id="Path 87" d="M135.724 45.0768C136.007 45.0614 136.289 45.106 136.553 45.2076C136.817 45.3091 137.056 45.4654 137.255 45.666C137.454 45.8667 137.608 46.1072 137.708 46.3717C137.807 46.6362 137.849 46.9188 137.831 47.2007C137.827 47.4362 137.797 47.6704 137.741 47.8991H133.918C133.905 47.9648 133.899 48.0315 133.898 48.0984C133.908 48.2883 133.957 48.4742 134.042 48.6443C134.127 48.8144 134.247 48.965 134.393 49.0868C134.539 49.2085 134.709 49.2987 134.892 49.3517C135.075 49.4046 135.267 49.4192 135.455 49.3945C135.937 49.3962 136.406 49.2424 136.793 48.9561L137.082 49.5846C136.59 49.9366 136.001 50.1279 135.395 50.1321C133.908 50.1321 133.002 49.2952 133.002 47.9861C132.988 47.6163 133.048 47.2474 133.178 46.9007C133.308 46.5539 133.505 46.2363 133.758 45.9659C134.011 45.6955 134.315 45.4778 134.652 45.3252C134.99 45.1726 135.354 45.0882 135.724 45.0768ZM137.022 47.0904C137.028 46.9134 136.996 46.7372 136.928 46.5737C136.86 46.4101 136.758 46.2629 136.629 46.1421C136.499 46.0212 136.345 45.9295 136.177 45.8731C136.009 45.8167 135.831 45.7969 135.655 45.815C135.258 45.8314 134.878 45.9826 134.579 46.2437C134.279 46.5048 134.078 46.8601 134.008 47.251H137.015C137.022 47.1978 137.024 47.144 137.022 47.0904Z" fill="#0E426A"/>
<path id="Path 88" d="M139.548 45.1964H140.449L140.279 45.9046C140.49 45.64 140.759 45.4282 141.066 45.286C141.372 45.1438 141.708 45.0751 142.046 45.0855L141.847 45.9929C141.715 45.9681 141.581 45.9547 141.446 45.9531C141.184 45.9713 140.929 46.0458 140.698 46.1713C140.468 46.2969 140.267 46.4707 140.109 46.6809L139.381 50.012H138.48L139.548 45.1964Z" fill="#0E426A"/>
<path id="Path 89" d="M148.521 46.9224C148.549 46.8179 148.566 46.7106 148.571 46.6024C148.571 46.088 148.162 45.8746 147.703 45.8746C147.142 45.9079 146.616 46.1584 146.236 46.573L145.488 50.0127H144.586L145.654 45.1965H146.555L146.396 45.874C146.832 45.4053 147.43 45.1202 148.069 45.0769C148.946 45.0769 149.526 45.5153 149.526 46.2829C149.518 46.4167 149.502 46.5499 149.476 46.6815L148.74 50.0127H147.839L148.521 46.9224Z" fill="#0E426A"/>
<path id="Path 90" d="M153.16 45.0768C153.442 45.0615 153.724 45.1061 153.988 45.2077C154.252 45.3093 154.491 45.4656 154.69 45.6663C154.889 45.8669 155.043 46.1074 155.142 46.3719C155.241 46.6364 155.283 46.9188 155.265 47.2007C155.261 47.4361 155.231 47.6704 155.175 47.899H151.353C151.34 47.9647 151.333 48.0314 151.332 48.0983C151.342 48.2883 151.391 48.4741 151.476 48.6442C151.561 48.8143 151.68 48.965 151.827 49.0867C151.973 49.2085 152.143 49.2987 152.326 49.3516C152.508 49.4046 152.7 49.4192 152.889 49.3945C153.37 49.3961 153.839 49.2424 154.226 48.9561L154.516 49.5846C154.024 49.9368 153.434 50.128 152.829 50.1321C151.342 50.1321 150.435 49.2952 150.435 47.9861C150.422 47.6161 150.482 47.247 150.612 46.9002C150.741 46.5534 150.939 46.2356 151.192 45.9652C151.445 45.6948 151.749 45.4771 152.087 45.3247C152.425 45.1722 152.789 45.0879 153.16 45.0768ZM154.463 47.0903C154.469 46.9133 154.437 46.737 154.369 46.5734C154.301 46.4098 154.199 46.2626 154.07 46.1418C153.94 46.0209 153.786 45.9292 153.618 45.8729C153.45 45.8165 153.272 45.7968 153.095 45.815C152.698 45.8314 152.318 45.9826 152.019 46.2437C151.719 46.5048 151.518 46.8601 151.448 47.251H154.455C154.464 47.1979 154.466 47.144 154.463 47.0903Z" fill="#0E426A"/>
<path id="Path 91" d="M158.826 45.0768C159.109 45.0614 159.391 45.106 159.655 45.2076C159.919 45.3091 160.158 45.4654 160.357 45.6661C160.556 45.8668 160.71 46.1073 160.809 46.3718C160.908 46.6363 160.95 46.9189 160.932 47.2007C160.928 47.4362 160.898 47.6704 160.842 47.8991H157.02C157.007 47.9647 157 48.0314 156.999 48.0984C157.009 48.2883 157.058 48.4742 157.143 48.6443C157.228 48.8144 157.347 48.965 157.493 49.0868C157.64 49.2085 157.81 49.2987 157.992 49.3517C158.175 49.4046 158.367 49.4192 158.556 49.3945C159.038 49.396 159.507 49.2423 159.894 48.9561L160.184 49.5846C159.691 49.9364 159.102 50.1276 158.497 50.1321C157.009 50.1321 156.103 49.2952 156.103 47.9861C156.09 47.6162 156.15 47.2472 156.279 46.9004C156.409 46.5537 156.606 46.2359 156.859 45.9655C157.112 45.6951 157.416 45.4774 157.754 45.3249C158.092 45.1724 158.456 45.0881 158.826 45.0768ZM160.125 47.0904C160.131 46.9133 160.099 46.737 160.031 46.5733C159.963 46.4097 159.861 46.2624 159.732 46.1416C159.602 46.0207 159.448 45.929 159.28 45.8727C159.112 45.8164 158.934 45.7967 158.757 45.815C158.36 45.8318 157.981 45.9831 157.681 46.2441C157.382 46.5051 157.18 46.8603 157.11 47.251H160.117C160.126 47.198 160.13 47.1441 160.128 47.0904H160.125Z" fill="#0E426A"/>
<path id="Path 92" d="M166.49 43.3618H167.391L165.913 50.0144H165.012L165.161 49.3461C164.983 49.5886 164.751 49.7861 164.483 49.9229C164.215 50.0597 163.918 50.132 163.617 50.1339C163.359 50.1455 163.101 50.101 162.862 50.0035C162.623 49.9061 162.408 49.7579 162.231 49.5693C162.055 49.3807 161.922 49.1562 161.84 48.9111C161.759 48.666 161.732 48.4063 161.761 48.1498C161.761 46.6133 162.71 45.078 164.296 45.078C164.619 45.0678 164.939 45.1403 165.225 45.2887C165.512 45.437 165.756 45.6562 165.933 45.9254L166.49 43.3618ZM163.965 49.335C164.235 49.3245 164.499 49.2514 164.737 49.1216C164.974 48.9918 165.177 48.8088 165.332 48.587L165.78 46.5931C165.636 46.3636 165.434 46.1763 165.194 46.0501C164.954 45.9239 164.685 45.8633 164.414 45.8745C163.396 45.8745 162.707 46.8917 162.707 47.9794C162.688 48.1536 162.707 48.3297 162.763 48.4959C162.818 48.6622 162.908 48.8146 163.027 48.9431C163.147 49.0715 163.292 49.173 163.454 49.2406C163.615 49.3082 163.79 49.3404 163.965 49.335Z" fill="#0E426A"/>
<path id="Path 93" d="M168.064 48.8715C168.139 48.872 168.213 48.8875 168.282 48.9171C168.351 48.9466 168.413 48.9896 168.465 49.0435C168.517 49.0974 168.558 49.1611 168.585 49.2309C168.612 49.3008 168.625 49.3754 168.623 49.4503C168.619 49.6277 168.546 49.7966 168.42 49.9211C168.293 50.0456 168.123 50.116 167.945 50.1174C167.87 50.1174 167.795 50.1024 167.725 50.0732C167.655 50.044 167.592 50.0012 167.539 49.9473C167.486 49.8934 167.444 49.8296 167.416 49.7594C167.388 49.6892 167.374 49.6142 167.375 49.5386C167.378 49.359 167.452 49.188 167.581 49.0629C167.71 48.9379 167.884 48.869 168.064 48.8715Z" fill="#0E426A"/>
</g>
</g>
</svg>
