<svg width="41" height="41" viewBox="0 0 41 41" fill="none" xmlns="http://www.w3.org/2000/svg">
<g id="icon / handshake">
<path id="Vector" d="M23.8684 35.9773C21.5911 36.0279 19.3431 35.2573 16.3538 34.6519C13.4018 34.0519 9.68976 33.5959 7.07909 31.5879C4.46842 29.5799 2.98042 26.0013 3.93509 23.1426C4.90842 20.3053 8.38042 18.1799 11.1458 16.6066C13.9324 15.0173 15.9938 13.9613 18.3724 11.8946C20.7511 9.82794 23.4364 6.69194 26.1804 6.37994C28.9218 6.10794 31.7058 8.63861 32.9138 11.6039C34.1431 14.5533 33.7804 17.9533 34.4418 21.0333C35.0871 24.0919 36.7778 26.8573 36.3164 29.0146C35.8391 31.1533 33.2124 32.6866 30.7911 33.8866C28.3538 35.0653 26.1058 35.9213 23.8658 35.9773H23.8684Z" fill="#FDD6C3"/>
<path id="Vector_2" d="M31.0165 17.828L28.2669 18.5493C28.0418 18.6084 27.9072 18.8387 27.9663 19.0638L30.1892 27.5371C30.2483 27.7621 30.4786 27.8967 30.7037 27.8377L33.4533 27.1163C33.6784 27.0573 33.813 26.827 33.7539 26.6019L31.531 18.1286C31.4719 17.9035 31.2416 17.7689 31.0165 17.828Z" fill="#F2F2F2" stroke="black" stroke-linecap="round" stroke-linejoin="round"/>
<path id="Vector_3" d="M13.1508 18.6042L10.4169 17.8254C10.1931 17.7616 9.96004 17.8914 9.89629 18.1152L7.49641 26.54C7.43266 26.7638 7.5624 26.9969 7.78619 27.0607L10.5201 27.8394C10.7439 27.9032 10.977 27.7735 11.0407 27.5497L13.4406 19.1248C13.5044 18.901 13.3746 18.6679 13.1508 18.6042Z" fill="#F2F2F2" stroke="black" stroke-linecap="round" stroke-linejoin="round"/>
<path id="Vector_4" d="M20.816 33.4933C21.0654 33.1411 20.982 32.6535 20.6299 32.4041C20.2777 32.1548 19.79 32.2381 19.5407 32.5903L18.8026 33.6328C18.5532 33.985 18.6366 34.4726 18.9887 34.722C19.3409 34.9713 19.8286 34.888 20.0779 34.5358L20.816 33.4933Z" stroke="black" stroke-linecap="round" stroke-linejoin="round"/>
<path id="Vector_5" d="M19.5271 32.3241C19.8462 31.8734 19.7395 31.2493 19.2888 30.9302C18.8381 30.611 18.2139 30.7177 17.8948 31.1684L16.9487 32.5047C16.6295 32.9555 16.7362 33.5796 17.1869 33.8987C17.6377 34.2179 18.2618 34.1112 18.5809 33.6604L19.5271 32.3241Z" stroke="black" stroke-linecap="round" stroke-linejoin="round"/>
<path id="Vector_6" d="M17.657 29.3102L17.6549 29.3087C17.1681 28.964 16.494 29.0792 16.1494 29.566L15.1262 31.0111C14.7815 31.4979 14.8967 32.1719 15.3835 32.5166L15.3857 32.5182C15.8725 32.8628 16.5465 32.7476 16.8912 32.2608L17.9144 30.8157C18.2591 30.3289 18.1438 29.6549 17.657 29.3102Z" stroke="black" stroke-linecap="round" stroke-linejoin="round"/>
<path id="Vector_7" d="M15.7213 29.9039C16.0413 29.4519 15.9343 28.8261 15.4824 28.5062C15.0304 28.1862 14.4047 28.2931 14.0847 28.7451L13.6085 29.4176C13.2885 29.8695 13.3955 30.4953 13.8474 30.8153C14.2994 31.1353 14.9251 31.0283 15.2451 30.5764L15.7213 29.9039Z" stroke="black" stroke-linecap="round" stroke-linejoin="round"/>
<path id="Vector_8" d="M11.1602 27.1267C11.1602 27.1267 12.8642 27.188 13.8242 29.1134" stroke="black" stroke-linecap="round" stroke-linejoin="round"/>
<path id="Vector_9" d="M24.3132 28.1934L26.8305 30.1534C27.3239 30.5534 28.0492 30.476 28.4465 29.98C28.8465 29.4867 28.7692 28.7614 28.2732 28.364L21.4465 22.492C20.7665 21.9427 19.8012 21.9107 19.0865 22.4147C18.0305 23.1587 16.7105 24.156 15.9825 24.2627C15.0039 24.4067 13.8279 23.8787 15.8545 21.0067C15.8545 21.0067 17.0572 19.3 17.9852 18.6174C18.9105 17.9347 21.0625 18.6174 21.0625 18.6174C21.0625 18.6174 25.8599 20.364 28.0705 19.4654" stroke="black" stroke-linecap="round" stroke-linejoin="round"/>
<path id="Vector_10" d="M23.2717 27.3508L26.525 29.9802C27.0183 30.3802 27.0957 31.1028 26.6983 31.5962C26.2983 32.0895 25.5757 32.1668 25.0823 31.7695L21.8477 29.1588" stroke="black" stroke-linecap="round" stroke-linejoin="round"/>
<path id="Vector_11" d="M24.4876 31.2816C24.9809 31.6816 25.0583 32.4042 24.6609 32.8976C24.2609 33.3909 23.5383 33.4682 23.0449 33.0709L20.4609 30.9829" stroke="black" stroke-linecap="round" stroke-linejoin="round"/>
<path id="Vector_12" d="M22.3396 32.5054C22.833 32.9054 22.9103 33.628 22.513 34.1214C22.113 34.6147 21.3903 34.692 20.897 34.2947L20.5156 33.9854" stroke="black" stroke-linecap="round" stroke-linejoin="round"/>
<path id="Vector_13" d="M13.3125 19.5775C13.3125 19.5775 15.1685 19.9881 17.2352 19.3108" stroke="black" stroke-linecap="round" stroke-linejoin="round"/>
<path id="Vector_14" d="M28.168 28.2734C28.168 28.2734 29.7573 27.212 30.1066 27.2307" stroke="black" stroke-linecap="round" stroke-linejoin="round"/>
<path id="Vector_15" d="M26.7578 16.3642L29.4191 12.1536" stroke="black" stroke-linecap="round" stroke-linejoin="round"/>
<path id="Vector_16" d="M20.5117 13.9615V7.34814" stroke="black" stroke-linecap="round" stroke-linejoin="round"/>
<path id="Vector_17" d="M24.3203 14.6042L24.6803 12.1536" stroke="black" stroke-linecap="round" stroke-linejoin="round"/>
<path id="Vector_18" d="M16.9264 14.6042L16.5664 12.1536" stroke="black" stroke-linecap="round" stroke-linejoin="round"/>
<path id="Vector_19" d="M14.2668 16.3642L11.6055 12.1536" stroke="black" stroke-linecap="round" stroke-linejoin="round"/>
</g>
</svg>
