<svg width="24" height="24" viewBox="0 0 24 24" fill="none" xmlns="http://www.w3.org/2000/svg">
<path d="M18.4099 10.1791L16.7602 10.6119C16.6251 10.6473 16.5443 10.7855 16.5798 10.9206L17.9135 16.0045C17.949 16.1396 18.0872 16.2203 18.2222 16.1849L19.872 15.7521C20.007 15.7166 20.0878 15.5784 20.0523 15.4434L18.7186 10.3594C18.6832 10.2244 18.545 10.1436 18.4099 10.1791Z" fill="white" stroke="#FB4D3D" stroke-linecap="round" stroke-linejoin="round"/>
<path d="M7.68816 10.6449L6.04782 10.1777C5.91354 10.1394 5.77368 10.2173 5.73543 10.3515L4.2955 15.4064C4.25725 15.5407 4.3351 15.6806 4.46937 15.7188L6.10972 16.1861C6.24399 16.2243 6.38385 16.1465 6.4221 16.0122L7.86203 10.9573C7.90028 10.823 7.82244 10.6832 7.68816 10.6449Z" fill="white" stroke="#FB4D3D" stroke-linecap="round" stroke-linejoin="round"/>
<path d="M12.2912 19.5782C12.4408 19.3669 12.3908 19.0743 12.1795 18.9247C11.9682 18.7751 11.6756 18.8251 11.526 19.0364L11.0831 19.6619C10.9335 19.8732 10.9835 20.1658 11.1948 20.3154C11.4061 20.465 11.6987 20.415 11.8483 20.2037L12.2912 19.5782Z" stroke="#FB4D3D" stroke-linecap="round" stroke-linejoin="round"/>
<path d="M11.5155 18.877C11.7069 18.6065 11.6429 18.232 11.3725 18.0406C11.1021 17.8491 10.7276 17.9131 10.5361 18.1835L9.96841 18.9853C9.77693 19.2557 9.84093 19.6302 10.1114 19.8217C10.3818 20.0132 10.7563 19.9492 10.9478 19.6787L11.5155 18.877Z" stroke="#FB4D3D" stroke-linecap="round" stroke-linejoin="round"/>
<path d="M10.3974 17.0685L10.396 17.0676C10.104 16.8608 9.69954 16.9299 9.49274 17.222L8.87882 18.089C8.67202 18.3811 8.74115 18.7855 9.03323 18.9923L9.03453 18.9933C9.32661 19.2001 9.73104 19.1309 9.93784 18.8389L10.5518 17.9718C10.7586 17.6797 10.6894 17.2753 10.3974 17.0685Z" stroke="#FB4D3D" stroke-linecap="round" stroke-linejoin="round"/>
<path d="M9.2359 17.4248C9.4279 17.1536 9.36372 16.7782 9.09255 16.5862C8.82139 16.3942 8.44592 16.4583 8.25392 16.7295L7.96823 17.133C7.77623 17.4042 7.84041 17.7796 8.11158 17.9716C8.38275 18.1636 8.75821 18.0995 8.95021 17.8283L9.2359 17.4248Z" stroke="#FB4D3D" stroke-linecap="round" stroke-linejoin="round"/>
<path d="M6.5 15.7583C6.5 15.7583 7.5224 15.7951 8.0984 16.9503" stroke="#FB4D3D" stroke-linecap="round" stroke-linejoin="round"/>
<path d="M14.391 16.3983L15.9014 17.5743C16.1974 17.8143 16.6326 17.7679 16.871 17.4703C17.111 17.1743 17.0646 16.7391 16.767 16.5007L12.671 12.9775C12.263 12.6479 11.6838 12.6287 11.255 12.9311C10.6214 13.3775 9.82945 13.9759 9.39265 14.0399C8.80545 14.1263 8.09985 13.8095 9.31585 12.0863C9.31585 12.0863 10.0374 11.0623 10.5942 10.6527C11.1494 10.2431 12.4406 10.6527 12.4406 10.6527C12.4406 10.6527 15.319 11.7007 16.6454 11.1615" stroke="#FB4D3D" stroke-linecap="round" stroke-linejoin="round"/>
<path d="M13.7606 15.8928L15.7127 17.4704C16.0087 17.7104 16.0551 18.144 15.8167 18.44C15.5767 18.736 15.143 18.7824 14.847 18.544L12.9062 16.9776" stroke="#FB4D3D" stroke-linecap="round" stroke-linejoin="round"/>
<path d="M14.4941 18.2512C14.7901 18.4912 14.8365 18.9248 14.5981 19.2208C14.3581 19.5168 13.9245 19.5632 13.6285 19.3248L12.0781 18.072" stroke="#FB4D3D" stroke-linecap="round" stroke-linejoin="round"/>
<path d="M13.2038 18.9856C13.4998 19.2256 13.5462 19.6592 13.3078 19.9552C13.0678 20.2512 12.6342 20.2976 12.3382 20.0592L12.1094 19.8736" stroke="#FB4D3D" stroke-linecap="round" stroke-linejoin="round"/>
<path d="M7.78906 11.2288C7.78906 11.2288 8.90266 11.4752 10.1427 11.0688" stroke="#FB4D3D" stroke-linecap="round" stroke-linejoin="round"/>
<path d="M16.7031 16.4463C16.7031 16.4463 17.6567 15.8095 17.8663 15.8207" stroke="#FB4D3D" stroke-linecap="round" stroke-linejoin="round"/>
<path d="M15.8516 9.30081L17.4484 6.77441" stroke="#FB4D3D" stroke-linecap="round" stroke-linejoin="round"/>
<path d="M12.1094 7.85936V3.89136" stroke="#FB4D3D" stroke-linecap="round" stroke-linejoin="round"/>
<path d="M14.3906 8.24481L14.6066 6.77441" stroke="#FB4D3D" stroke-linecap="round" stroke-linejoin="round"/>
<path d="M9.95819 8.24481L9.74219 6.77441" stroke="#FB4D3D" stroke-linecap="round" stroke-linejoin="round"/>
<path d="M8.36243 9.30081L6.76562 6.77441" stroke="#FB4D3D" stroke-linecap="round" stroke-linejoin="round"/>
</svg>
