<svg width="80" height="80" viewBox="0 0 80 80" fill="none" xmlns="http://www.w3.org/2000/svg">
<g id="icon / consolidate">
<path id="Vector" d="M7.93504 40.1173C7.58837 29.0133 7.23637 17.5627 12.751 12.3253C18.303 7.12001 29.6844 8.03201 39.0817 10.0907C48.4737 12.1493 55.775 15.328 61.4284 20.5653C67.087 25.8027 71.135 33.136 71.4497 40.784C71.7964 48.3947 68.447 56.4267 62.7884 61.8027C57.1297 67.1787 49.135 70.0107 39.743 71.3707C30.383 72.768 19.631 72.6987 14.111 67.3227C8.59637 61.9467 8.24437 51.1893 7.9297 40.1227L7.93504 40.1173Z" fill="#FDD6C3"/>
<path id="Vector_2" d="M49.723 42.2026H28.5977" stroke="#281E1E" stroke-width="2" stroke-linecap="round" stroke-linejoin="round"/>
<path id="Vector_3" d="M54.5973 30.0212H51.3493C50.4509 30.0212 49.7227 30.7495 49.7227 31.6479V52.7626C49.7227 53.661 50.4509 54.3892 51.3493 54.3892H54.5973C55.4957 54.3892 56.224 53.661 56.224 52.7626V31.6479C56.224 30.7495 55.4957 30.0212 54.5973 30.0212Z" fill="white" stroke="#281E1E" stroke-width="2" stroke-linecap="round" stroke-linejoin="round"/>
<path id="Vector_4" d="M26.9726 38.1438H22.1032C21.2048 38.1438 20.4766 38.8721 20.4766 39.7705V44.6398C20.4766 45.5382 21.2048 46.2665 22.1032 46.2665H26.9726C27.8709 46.2665 28.5992 45.5382 28.5992 44.6398V39.7705C28.5992 38.8721 27.8709 38.1438 26.9726 38.1438Z" fill="white" stroke="#281E1E" stroke-width="2" stroke-linecap="round" stroke-linejoin="round"/>
<path id="Vector_5" d="M26.9726 23.5198H22.1032C21.2048 23.5198 20.4766 24.2481 20.4766 25.1464V30.0158C20.4766 30.9142 21.2048 31.6424 22.1032 31.6424H26.9726C27.8709 31.6424 28.5992 30.9142 28.5992 30.0158V25.1464C28.5992 24.2481 27.8709 23.5198 26.9726 23.5198Z" fill="white" stroke="#281E1E" stroke-width="2" stroke-linecap="round" stroke-linejoin="round"/>
<path id="Vector_6" d="M26.9726 52.7625H22.1032C21.2048 52.7625 20.4766 53.4907 20.4766 54.3891V59.2585C20.4766 60.1568 21.2048 60.8851 22.1032 60.8851H26.9726C27.8709 60.8851 28.5992 60.1568 28.5992 59.2585V54.3891C28.5992 53.4907 27.8709 52.7625 26.9726 52.7625Z" fill="white" stroke="#281E1E" stroke-width="2" stroke-linecap="round" stroke-linejoin="round"/>
<path id="Vector_7" d="M28.5977 56.0161H36.7203C37.6163 56.0161 38.347 55.2908 38.347 54.3894V30.0214C38.347 29.1254 37.6217 28.3948 36.7203 28.3948H28.5977" stroke="#281E1E" stroke-width="2" stroke-linecap="round" stroke-linejoin="round"/>
</g>
</svg>
