<svg width="80" height="80" viewBox="0 0 80 80" fill="none" xmlns="http://www.w3.org/2000/svg">
<g id="icon / ADD">
<path id="Vector" d="M43.7294 8.06426C49.1267 8.41626 54.332 11.6323 59.1747 15.2536C64.0174 18.8749 68.444 22.9389 72.2787 28.2563C76.108 33.6163 79.3454 40.2776 77.404 45.3389C75.4627 50.4003 68.3854 53.8669 62.8387 58.9283C57.292 63.9896 53.276 70.6403 47.7294 72.3363C42.1827 74.0269 35.0627 70.7096 28.6094 67.3283C22.1934 63.9896 16.4014 60.5389 11.6227 55.7443C6.89205 50.9549 3.18538 44.8163 2.23605 38.2029C1.24405 31.5843 3.00938 24.4963 7.59605 20.1283C12.2307 15.8083 19.7347 14.1763 26.252 12.1443C32.7694 10.1069 38.3427 7.67493 43.7294 8.0696V8.06426Z" fill="#FDD6C3"/>
<path id="Vector_2" d="M9.60938 39.0611C9.60938 39.0611 14.884 26.6984 19.0014 26.8691C23.1187 27.0397 21.0494 53.9571 26.276 54.0211C31.5027 54.0851 27.332 14.0051 36.0734 14.3464C44.8147 14.6877 34.74 65.9517 45.4974 65.8451C56.2547 65.7384 44.58 28.3144 56.1374 28.3357C67.6947 28.3571 62.9854 39.6531 70.9374 39.9304" stroke="#1E1E34" stroke-width="2" stroke-linecap="round" stroke-linejoin="round"/>
<path id="Vector_3" d="M65.071 39.3172L61.775 36.0212C61.2203 35.4665 60.2656 35.8612 60.2656 36.6452V43.2318C60.2656 44.0212 61.2203 44.4158 61.775 43.8558L65.071 40.5598C65.4176 40.2132 65.4176 39.6532 65.071 39.3065V39.3172Z" fill="#FDD6C3"/>
<path id="Vector_4" d="M68.7984 42.3413C70.1239 42.3413 71.1984 41.2667 71.1984 39.9413C71.1984 38.6158 70.1239 37.5413 68.7984 37.5413C67.473 37.5413 66.3984 38.6158 66.3984 39.9413C66.3984 41.2667 67.473 42.3413 68.7984 42.3413Z" fill="white" stroke="#1E1E34" stroke-width="2" stroke-linecap="round" stroke-linejoin="round"/>
<path id="Vector_5" d="M9.60156 39.9412H62.9349" stroke="white" stroke-width="2" stroke-miterlimit="10" stroke-dasharray="2 2"/>
<path id="Vector_6" d="M9.59922 42.3413C10.9247 42.3413 11.9992 41.2667 11.9992 39.9413C11.9992 38.6158 10.9247 37.5413 9.59922 37.5413C8.27374 37.5413 7.19922 38.6158 7.19922 39.9413C7.19922 41.2667 8.27374 42.3413 9.59922 42.3413Z" fill="white" stroke="#1E1E34" stroke-width="2" stroke-linecap="round" stroke-linejoin="round"/>
</g>
</svg>
