<svg width="80" height="80" viewBox="0 0 80 80" fill="none" xmlns="http://www.w3.org/2000/svg">
<g id="icon / documents">
<path id="Vector" d="M7.93504 40.1173C7.58837 29.0133 7.23637 17.5627 12.751 12.3253C18.303 7.12001 29.6844 8.03201 39.0817 10.0907C48.4737 12.1493 55.775 15.328 61.4284 20.5653C67.087 25.8027 71.135 33.136 71.4497 40.784C71.7964 48.3947 68.447 56.4267 62.7884 61.8027C57.1297 67.1787 49.135 70.0107 39.743 71.3707C30.383 72.768 19.631 72.6987 14.111 67.3227C8.59637 61.9467 8.24437 51.1893 7.9297 40.1227L7.93504 40.1173Z" fill="#FDD6C3"/>
<path id="Vector_2" d="M51.1253 30.016H42.0586V20.7307" stroke="#281E1E" stroke-width="2" stroke-linecap="round" stroke-linejoin="round"/>
<path id="Vector_3" d="M33.2205 53.307H24.6445V20.2136H41.8925L51.7645 30.0803V53.307H43.6899" stroke="#281E1E" stroke-width="2" stroke-linecap="round" stroke-linejoin="round"/>
<path id="Vector_4" d="M38.2099 55.7171V37.4504L31.8633 43.7918" stroke="#281E1E" stroke-width="2" stroke-linecap="round" stroke-linejoin="round"/>
<path id="Vector_5" d="M44.383 43.7544L38.207 37.4504" stroke="#281E1E" stroke-width="2" stroke-linecap="round" stroke-linejoin="round"/>
</g>
</svg>
