<svg width="104" height="104" viewBox="0 0 104 104" fill="none" xmlns="http://www.w3.org/2000/svg">
<g id="icon / idea">
<path id="Vector" d="M16.602 60.9512C15.7838 52.9085 12.6846 45.1779 13.9604 38.2861C15.2361 31.3944 20.9492 25.2307 27.8478 19.4829C34.7881 13.7837 43.011 8.4312 51.8857 7.40507C60.7118 6.4136 70.2798 9.7624 77.227 15.7667C84.1257 21.8125 88.4521 30.4792 91.6068 39.3261C94.8516 48.18 96.9315 57.124 93.0489 63.2669C89.2148 69.3752 79.418 72.6893 72.6788 77.3C65.9742 81.9592 62.3758 87.8803 56.9817 91.0141C51.539 94.1896 44.2244 94.5709 36.8404 93.1565C29.4494 91.8253 21.9476 88.6568 18.9662 82.9784C15.9502 77.2584 17.4617 68.9453 16.595 60.9373L16.602 60.9512Z" fill="#A6BAD2"/>
<path id="Vector_2" d="M48.2109 69.6177H55.3939" stroke="#281E1E" stroke-width="3" stroke-linecap="round" stroke-linejoin="round"/>
<path id="Vector_3" d="M48.2109 74.4088H55.3939" stroke="#281E1E" stroke-width="3" stroke-linecap="round" stroke-linejoin="round"/>
<path id="Vector_4" d="M51.7969 74.4088V76.8008" stroke="#281E1E" stroke-width="3" stroke-linecap="round" stroke-linejoin="round"/>
<path id="Vector_5" d="M65.8577 49.3725C65.6359 41.8291 59.3473 35.8872 51.8039 36.0952C44.2604 35.8872 37.9719 41.8291 37.75 49.3725C38.0065 55.4808 42.2705 60.6739 48.2124 62.116V64.8269H55.3953V62.116C61.3372 60.6739 65.6012 55.4739 65.8577 49.3725Z" fill="white" stroke="#281E1E" stroke-width="3" stroke-linecap="round" stroke-linejoin="round"/>
<path id="Vector_6" d="M40.3384 68.2377L37.4333 69.6174C35.2008 70.6921 32.5176 69.7492 31.4498 67.5097C30.8605 66.2825 30.8605 64.8542 31.4498 63.627L32.8296 60.722C33.8973 58.4825 32.9405 55.8062 30.708 54.7454C30.5693 54.6761 30.4237 54.6206 30.285 54.5721L27.2552 53.4974C24.9186 52.6654 23.6984 50.1001 24.5234 47.7636C24.9741 46.4878 25.9794 45.4894 27.2552 45.0318L30.285 43.9572C32.6216 43.1252 33.8418 40.5598 33.0098 38.2302C32.9613 38.0846 32.8989 37.946 32.8365 37.8073L31.4568 34.9022C30.3821 32.6697 31.325 29.9865 33.5645 28.9188C34.7917 28.3294 36.22 28.3294 37.4472 28.9188L40.3522 30.2985C42.5917 31.3593 45.268 30.4094 46.3288 28.17C46.3912 28.0313 46.4536 27.8926 46.5021 27.747L47.5768 24.7172C48.4088 22.3806 50.9741 21.1604 53.3106 21.9854C54.5864 22.4361 55.5848 23.4414 56.0424 24.7172L57.117 27.747C57.949 30.0836 60.5144 31.3038 62.8509 30.4718C62.9965 30.4233 63.1352 30.3609 63.2738 30.2985L66.1789 28.9188C68.4114 27.8441 71.0946 28.787 72.1624 31.0265C72.7517 32.2537 72.7517 33.682 72.1624 34.9092L70.7826 37.8142C69.7149 40.0537 70.6717 42.73 72.9042 43.7908C73.0429 43.8601 73.1885 43.9156 73.3272 43.9641L76.357 45.0388C78.6936 45.8708 79.9138 48.4361 79.0888 50.7726C78.6381 52.0484 77.6328 53.0468 76.357 53.5044L73.3272 54.579C70.9906 55.411 69.7704 57.9764 70.6024 60.3129C70.6509 60.4585 70.7133 60.5972 70.7757 60.7358L72.1554 63.634C73.2301 65.8665 72.2872 68.5497 70.0477 69.6174C68.8205 70.2068 67.3922 70.2068 66.165 69.6174L63.26 68.2377" stroke="#281E1E" stroke-width="3" stroke-linecap="round" stroke-linejoin="round"/>
</g>
</svg>
