<svg width="104" height="104" viewBox="0 0 104 104" fill="none" xmlns="http://www.w3.org/2000/svg">
<g id="icon / idea">
<path id="Vector" d="M16.6059 60.9511C15.7877 52.9085 12.6885 45.1778 13.9643 38.2861C15.24 31.3943 20.9531 25.2306 27.8517 19.4829C34.792 13.7837 43.0149 8.43114 51.8896 7.40501C60.7157 6.41354 70.2837 9.76234 77.2309 15.7666C84.1296 21.8125 88.456 30.4791 91.6107 39.3261C94.8555 48.1799 96.9355 57.1239 93.0528 63.2669C89.2187 69.3751 79.4219 72.6893 72.6827 77.2999C65.9781 81.9591 62.3797 87.8802 56.9856 91.0141C51.5429 94.1895 44.2283 94.5709 36.8443 93.1565C29.4533 91.8253 21.9515 88.6567 18.9701 82.9783C15.9541 77.2583 17.4656 68.9453 16.5989 60.9373L16.6059 60.9511Z" fill="#A6BAD2"/>
<path id="Vector_2" d="M48.207 69.6177H55.39" stroke="#281E1E" stroke-width="2" stroke-linecap="round" stroke-linejoin="round"/>
<path id="Vector_3" d="M48.207 74.4087H55.39" stroke="#281E1E" stroke-width="2" stroke-linecap="round" stroke-linejoin="round"/>
<path id="Vector_4" d="M51.8008 74.4087V76.8007" stroke="#281E1E" stroke-width="2" stroke-linecap="round" stroke-linejoin="round"/>
<path id="Vector_5" d="M65.8538 49.3725C65.632 41.829 59.3434 35.8871 51.8 36.0951C44.2565 35.8871 37.968 41.829 37.7461 49.3725C38.0026 55.4807 42.2666 60.6738 48.2085 62.1159V64.8269H55.3914V62.1159C61.3333 60.6738 65.5973 55.4738 65.8538 49.3725Z" fill="white" stroke="#281E1E" stroke-width="2" stroke-linecap="round" stroke-linejoin="round"/>
<path id="Vector_6" d="M40.3384 68.2378L37.4333 69.6175C35.2008 70.6922 32.5176 69.7492 31.4498 67.5098C30.8605 66.2826 30.8605 64.8543 31.4498 63.6271L32.8296 60.722C33.8973 58.4826 32.9405 55.8063 30.708 54.7455C30.5693 54.6761 30.4237 54.6207 30.285 54.5721L27.2552 53.4975C24.9186 52.6655 23.6984 50.1001 24.5234 47.7636C24.9741 46.4879 25.9794 45.4895 27.2552 45.0319L30.285 43.9572C32.6216 43.1252 33.8418 40.5599 33.0098 38.2303C32.9613 38.0847 32.8989 37.946 32.8365 37.8073L31.4568 34.9023C30.3821 32.6697 31.325 29.9865 33.5645 28.9188C34.7917 28.3295 36.22 28.3295 37.4472 28.9188L40.3522 30.2985C42.5917 31.3593 45.268 30.4095 46.3288 28.17C46.3912 28.0313 46.4536 27.8927 46.5021 27.7471L47.5768 24.7172C48.4088 22.3807 50.9741 21.1604 53.3106 21.9855C54.5864 22.4361 55.5848 23.4415 56.0424 24.7172L57.117 27.7471C57.949 30.0836 60.5144 31.3039 62.8509 30.4719C62.9965 30.4233 63.1352 30.3609 63.2738 30.2985L66.1789 28.9188C68.4114 27.8441 71.0946 28.7871 72.1624 31.0265C72.7517 32.2537 72.7517 33.682 72.1624 34.9092L70.7826 37.8143C69.7149 40.0537 70.6717 42.73 72.9042 43.7908C73.0429 43.8601 73.1885 43.9156 73.3272 43.9641L76.357 45.0388C78.6936 45.8708 79.9138 48.4362 79.0888 50.7727C78.6381 52.0484 77.6328 53.0468 76.357 53.5044L73.3272 54.5791C70.9906 55.4111 69.7704 57.9764 70.6024 60.3129C70.6509 60.4585 70.7133 60.5972 70.7757 60.7359L72.1554 63.634C73.2301 65.8665 72.2872 68.5498 70.0477 69.6175C68.8205 70.2068 67.3922 70.2068 66.165 69.6175L63.26 68.2378" stroke="#281E1E" stroke-width="2" stroke-linecap="round" stroke-linejoin="round"/>
</g>
</svg>
