<svg width="350" height="349" viewBox="0 0 350 349" fill="none" xmlns="http://www.w3.org/2000/svg">
<path d="M152.897 47.3574C152.897 47.3574 94.0422 50.0734 75.8533 96.3687C60.726 134.862 58.9236 138.623 41.533 155.462C24.1425 172.301 15.705 204.247 37.7306 238.53C71.3842 272.916 111.26 303.854 171.909 303.763C214.402 303.706 285.98 300.183 307.708 230.925C323.255 181.363 317.494 109.34 241.43 57.6782C210.698 36.8062 152.897 47.3574 152.897 47.3574Z" fill="#FDD6C3"/>
<path d="M172.951 273.031C219.81 273.031 257.797 235.044 257.797 188.185C257.797 141.326 219.81 103.339 172.951 103.339C126.092 103.339 88.1055 141.326 88.1055 188.185C88.1055 235.044 126.092 273.031 172.951 273.031Z" fill="#FF9878"/>
<path d="M174.115 269.541C220.975 269.541 258.961 231.554 258.961 184.695C258.961 137.836 220.975 99.8495 174.115 99.8495C127.256 99.8495 89.2695 137.836 89.2695 184.695C89.2695 231.554 127.256 269.541 174.115 269.541Z" fill="#F2F2F2" stroke="#1E1E34" stroke-width="1.16333" stroke-miterlimit="10"/>
<path d="M174.113 269.541C211.289 269.541 241.429 231.559 241.429 184.695C241.429 137.832 211.289 99.8495 174.113 99.8495" fill="#F2F2F2"/>
<path d="M174.113 269.541C211.289 269.541 241.429 231.559 241.429 184.695C241.429 137.832 211.289 99.8495 174.113 99.8495" stroke="#1E1E34" stroke-width="1.16333" stroke-miterlimit="10"/>
<path d="M174.116 269.541C136.94 269.541 106.801 231.559 106.801 184.695C106.801 137.832 136.94 99.8495 174.116 99.8495" fill="#F2F2F2"/>
<path d="M174.116 269.541C136.94 269.541 106.801 231.559 106.801 184.695C106.801 137.832 136.94 99.8495 174.116 99.8495" stroke="#1E1E34" stroke-width="1.16333" stroke-miterlimit="10"/>
<path d="M174.116 269.541C196.37 269.541 214.411 231.555 214.411 184.695C214.411 137.836 196.37 99.8495 174.116 99.8495C151.861 99.8495 133.82 137.836 133.82 184.695C133.82 231.555 151.861 269.541 174.116 269.541Z" fill="#F2F2F2" stroke="#1E1E34" stroke-width="1.16333" stroke-miterlimit="10"/>
<path d="M174.113 269.541V99.8575" stroke="#1E1E34" stroke-width="1.16333" stroke-miterlimit="10"/>
<path d="M89.2695 184.695H258.953" stroke="#1E1E34" stroke-width="1.16333" stroke-miterlimit="10"/>
<path d="M270.106 76.8617H220.822C216.442 76.8617 212.891 80.4128 212.891 84.7933V134.077C212.891 138.457 216.442 142.008 220.822 142.008H270.106C274.486 142.008 278.037 138.457 278.037 134.077V84.7933C278.037 80.4128 274.486 76.8617 270.106 76.8617Z" fill="#73B7AF"/>
<path d="M122.942 217.043H73.6581C69.2776 217.043 65.7266 220.594 65.7266 224.975V274.258C65.7266 278.639 69.2776 282.19 73.6581 282.19H122.942C127.322 282.19 130.873 278.639 130.873 274.258V224.975C130.873 220.594 127.322 217.043 122.942 217.043Z" fill="#A6BAD2"/>
<path d="M229.832 124.08L231.165 120.088C231.264 119.784 231.552 119.578 231.873 119.578H259.305C259.626 119.578 259.914 119.784 260.012 120.088L261.346 124.08" fill="#F2F2F2"/>
<path d="M229.832 124.08L231.165 120.088C231.264 119.784 231.552 119.578 231.873 119.578H259.305C259.626 119.578 259.914 119.784 260.012 120.088L261.346 124.08" stroke="#1E1E34" stroke-width="1.16333" stroke-linecap="round" stroke-linejoin="round"/>
<path d="M232.836 103.068H258.35V119.578H232.836V103.068Z" fill="#F2F2F2" stroke="#1E1E34" stroke-width="1.16333" stroke-linecap="round" stroke-linejoin="round"/>
<path d="M262.854 124.08H228.336" stroke="#1E1E34" stroke-width="1.16333" stroke-linecap="round" stroke-linejoin="round"/>
<path d="M237.34 103.068V119.578" stroke="#1E1E34" stroke-width="1.16333" stroke-linecap="round" stroke-linejoin="round"/>
<path d="M241.84 103.068V119.578" stroke="#1E1E34" stroke-width="1.16333" stroke-linecap="round" stroke-linejoin="round"/>
<path d="M249.348 103.068V119.578" stroke="#1E1E34" stroke-width="1.16333" stroke-linecap="round" stroke-linejoin="round"/>
<path d="M253.852 103.068V119.578" stroke="#1E1E34" stroke-width="1.16333" stroke-linecap="round" stroke-linejoin="round"/>
<path d="M261.16 99.1505C261.275 98.8131 261.127 98.4427 260.822 98.2617L245.966 89.768C245.736 89.6363 245.448 89.6363 245.217 89.768L230.362 98.2534C230.049 98.4345 229.909 98.8049 230.024 99.1423L231.168 102.55C231.267 102.854 231.555 103.06 231.876 103.06H259.308C259.629 103.06 259.917 102.854 260.016 102.55L261.151 99.1423L261.16 99.1505Z" fill="#F2F2F2" stroke="#1E1E34" stroke-width="1.16333" stroke-linecap="round" stroke-linejoin="round"/>
<path d="M261.102 98.5662H230.082" stroke="#1E1E34" stroke-width="1.16333" stroke-linecap="round" stroke-linejoin="round"/>
<path d="M94.8125 230.422C94.8125 232.35 96.3743 233.912 98.3025 233.912C100.231 233.912 101.792 232.35 101.792 230.422C101.792 228.494 100.231 226.932 98.3025 226.932C96.3743 226.932 94.8125 228.494 94.8125 230.422Z" fill="#F2F2F2" stroke="#1E1E34" stroke-width="1.16333" stroke-linecap="round" stroke-linejoin="round"/>
<path d="M105.862 241.473C104.838 237.339 100.756 234.844 96.7341 235.898C94.0707 236.594 91.9962 238.737 91.3203 241.473H105.862Z" fill="#F2F2F2" stroke="#1E1E34" stroke-width="1.16333" stroke-linecap="round" stroke-linejoin="round"/>
<path d="M80.2695 257.178C80.2695 259.107 81.8314 260.668 83.7595 260.668C85.6877 260.668 87.2495 259.107 87.2495 257.178C87.2495 255.25 85.6877 253.688 83.7595 253.688C81.8314 253.688 80.2695 255.25 80.2695 257.178Z" fill="#F2F2F2" stroke="#1E1E34" stroke-width="1.16333" stroke-linecap="round" stroke-linejoin="round"/>
<path d="M90.7412 268.23C89.7583 264.095 85.8395 261.601 81.9785 262.655C79.4216 263.351 77.4301 265.494 76.7812 268.23H90.7412Z" fill="#F2F2F2" stroke="#1E1E34" stroke-width="1.16333" stroke-linecap="round" stroke-linejoin="round"/>
<path d="M108.773 257.178C108.773 259.107 110.335 260.668 112.263 260.668C114.192 260.668 115.753 259.107 115.753 257.178C115.753 255.25 114.192 253.688 112.263 253.688C110.335 253.688 108.773 255.25 108.773 257.178Z" fill="#F2F2F2" stroke="#1E1E34" stroke-width="1.16333" stroke-linecap="round" stroke-linejoin="round"/>
<path d="M119.241 268.23C118.258 264.095 114.34 261.601 110.479 262.655C107.922 263.351 105.93 265.494 105.281 268.23H119.241Z" fill="#F2F2F2" stroke="#1E1E34" stroke-width="1.16333" stroke-linecap="round" stroke-linejoin="round"/>
<path d="M98.3008 249.035V247.29" stroke="#1E1E34" stroke-width="1.16333" stroke-linecap="round" stroke-linejoin="round"/>
<path d="M101.764 249.035H96.6758C95.6465 249.035 94.8126 249.907 94.8126 250.983C94.8061 251.78 95.2751 252.495 95.9787 252.788L100.598 253.993C101.562 254.382 102.038 255.505 101.666 256.513C101.386 257.276 100.683 257.773 99.9008 257.76H94.8126" stroke="#1E1E34" stroke-width="1.16333" stroke-linecap="round" stroke-linejoin="round"/>
<path d="M98.3008 260.087V257.76" stroke="#1E1E34" stroke-width="1.16333" stroke-linecap="round" stroke-linejoin="round"/>
<path d="M174.113 77.0522C114.657 77.0522 66.4609 125.249 66.4609 184.704" stroke="#1E1E34" stroke-width="1.16333" stroke-miterlimit="10"/>
<path d="M174.113 292.348C233.569 292.348 281.765 244.152 281.765 184.696" stroke="#1E1E34" stroke-width="1.16333" stroke-miterlimit="10"/>
<path d="M58.5859 176.499L66.4623 185.306L74.3387 176.499" stroke="#1E1E34" stroke-width="1.16333" stroke-linecap="round" stroke-linejoin="round"/>
<path d="M289.636 192.645L281.759 183.838L273.883 192.645" stroke="#1E1E34" stroke-width="1.16333" stroke-linecap="round" stroke-linejoin="round"/>
</svg>
