<svg width="24" height="25" viewBox="0 0 24 25" fill="none" xmlns="http://www.w3.org/2000/svg">
<g id="icon / in-branch">
<g id="Vector">
<path d="M7.21582 17.3827L7.63982 16.1075C7.67182 16.0099 7.76462 15.9443 7.86702 15.9443H16.627C16.7294 15.9443 16.8222 16.0099 16.8542 16.1075L17.2782 17.3811" fill="white"/>
<path d="M7.21582 17.3827L7.63982 16.1075C7.67182 16.0099 7.76462 15.9443 7.86702 15.9443H16.627C16.7294 15.9443 16.8222 16.0099 16.8542 16.1075L17.2782 17.3811" stroke="#FF9878" stroke-linecap="round" stroke-linejoin="round"/>
</g>
<path id="Vector_2" d="M8.17432 10.6741H16.3215V15.9461H8.17432V10.6741Z" fill="white" stroke="#FF9878" stroke-linecap="round" stroke-linejoin="round"/>
<g id="Vector_3">
<path d="M17.7602 17.3828H6.73779H17.7602Z" fill="white"/>
<path d="M17.7602 17.3828H6.73779" stroke="#FF9878" stroke-linecap="round" stroke-linejoin="round"/>
</g>
<g id="Vector_4">
<path d="M9.61426 10.6741V15.9461V10.6741Z" fill="white"/>
<path d="M9.61426 10.6741V15.9461" stroke="#FF9878" stroke-linecap="round" stroke-linejoin="round"/>
</g>
<path id="Vector_5" d="M11.0513 10.6741V15.9461" stroke="#FF9878" stroke-linecap="round" stroke-linejoin="round"/>
<g id="Vector_6">
<path d="M13.4482 10.6741V15.9461V10.6741Z" fill="white"/>
<path d="M13.4482 10.6741V15.9461" stroke="#FF9878" stroke-linecap="round" stroke-linejoin="round"/>
</g>
<g id="Vector_7">
<path d="M14.8848 10.6741V15.9461V10.6741Z" fill="white"/>
<path d="M14.8848 10.6741V15.9461" stroke="#FF9878" stroke-linecap="round" stroke-linejoin="round"/>
</g>
<path id="Vector_8" d="M17.2191 9.42262C17.2559 9.31382 17.2095 9.19542 17.1103 9.13942L12.3679 6.42742C12.2943 6.38422 12.2031 6.38422 12.1279 6.42742L7.38389 9.13782C7.28469 9.19382 7.23989 9.31382 7.27509 9.42102L7.64149 10.5106C7.67349 10.6082 7.76629 10.6738 7.86869 10.6738H16.6287C16.7311 10.6738 16.8239 10.6082 16.8559 10.5106L17.2175 9.42262H17.2191Z" fill="white" stroke="#FF9878" stroke-linecap="round" stroke-linejoin="round"/>
<g id="Vector_9">
<path d="M17.2002 9.2356H7.29297H17.2002Z" fill="white"/>
<path d="M17.2002 9.2356H7.29297" stroke="#FF9878" stroke-linecap="round" stroke-linejoin="round"/>
</g>
</g>
</svg>
