<svg width="80" height="81" viewBox="0 0 80 81" fill="none" xmlns="http://www.w3.org/2000/svg">
<g id="icon / instant funding">
<path id="Vector" d="M39.6095 71.5452C28.5055 71.8919 17.0549 72.2439 11.8175 66.7292C6.6122 61.1772 7.5242 49.7959 9.58286 40.3986C11.6415 31.0066 14.8202 23.7052 20.0575 18.0519C25.2949 12.3932 32.6282 8.34524 40.2762 8.03057C47.8869 7.68391 55.9189 11.0332 61.2949 16.6919C66.6709 22.3506 69.5029 30.3452 70.8629 39.7372C72.2602 49.0972 72.1909 59.8492 66.8149 65.3692C61.4389 70.8839 50.6815 71.2359 39.6149 71.5506L39.6095 71.5452Z" fill="#FDD6C3"/>
<path id="Vector_2" d="M41.5039 40.2281V37.3748" stroke="#281E1E" stroke-width="2" stroke-linecap="round" stroke-linejoin="round"/>
<g id="Vector_3">
<path d="M46.2598 40.2279H39.2892C37.8812 40.2279 36.7345 41.3692 36.7345 42.7826C36.7238 43.8279 37.3638 44.7666 38.3345 45.1452L44.6598 46.7239C45.9772 47.2306 46.6278 48.7079 46.1212 50.0252C45.7372 51.0226 44.7718 51.6732 43.7052 51.6572H36.7345" fill="#FDD6C3"/>
<path d="M46.2598 40.2279H39.2892C37.8812 40.2279 36.7345 41.3692 36.7345 42.7826C36.7238 43.8279 37.3638 44.7666 38.3345 45.1452L44.6598 46.7239C45.9772 47.2306 46.6278 48.7079 46.1212 50.0252C45.7372 51.0226 44.7718 51.6732 43.7052 51.6572H36.7345" stroke="#281E1E" stroke-width="2" stroke-linecap="round" stroke-linejoin="round"/>
</g>
<path id="Vector_4" d="M41.5039 54.5161V51.6575" stroke="#281E1E" stroke-width="2" stroke-linecap="round" stroke-linejoin="round"/>
<path id="Vector_5" d="M34.8359 28.804H48.1693" stroke="#281E1E" stroke-width="2" stroke-linecap="round" stroke-linejoin="round"/>
<path id="Vector_6" d="M45.313 28.8043C45.7877 28.7989 46.1877 28.4416 46.2463 27.9669C46.657 25.4709 47.4357 23.0549 48.5503 20.7883C48.737 20.4363 48.6837 19.9989 48.417 19.7003C48.145 19.3963 47.7023 19.3003 47.329 19.4709L43.329 21.1829L42.3957 18.6496C42.2037 18.1589 41.649 17.9189 41.1583 18.1163C40.913 18.2123 40.721 18.4096 40.625 18.6496L39.5957 21.1829L35.617 19.4709C35.2437 19.3003 34.8063 19.3909 34.529 19.7003C34.2623 19.9989 34.209 20.4309 34.3957 20.7883C35.5103 23.0549 36.289 25.4763 36.6997 27.9669C36.7583 28.4416 37.1583 28.7989 37.633 28.8043" stroke="#281E1E" stroke-width="2" stroke-linecap="round" stroke-linejoin="round"/>
<path id="Vector_7" d="M45.3126 28.804C45.3126 28.804 58.6459 39.2786 58.6459 48.4413C58.6459 57.604 51.0299 61.1826 41.5046 61.1826C31.9793 61.1826 24.3633 57.908 24.3633 48.4413C24.3633 38.9746 37.6966 28.804 37.6966 28.804" stroke="#281E1E" stroke-width="2" stroke-linecap="round" stroke-linejoin="round"/>
<path id="Vector_8" d="M28.6555 63.5988C32.411 63.5988 35.4555 60.5543 35.4555 56.7988C35.4555 53.0432 32.411 49.9988 28.6555 49.9988C24.8999 49.9988 21.8555 53.0432 21.8555 56.7988C21.8555 60.5543 24.8999 63.5988 28.6555 63.5988Z" fill="white" stroke="#281E1E" stroke-width="2" stroke-linecap="round" stroke-linejoin="round"/>
<path id="Vector_9" d="M25.3477 57.4388L27.1397 59.2255C27.4597 59.5508 27.9877 59.5508 28.3077 59.2255C28.3397 59.1935 28.3663 59.1615 28.393 59.1241L31.961 54.1321" stroke="#281E1E" stroke-width="2" stroke-linecap="round" stroke-linejoin="round"/>
</g>
</svg>
