<svg width="80" height="81" viewBox="0 0 80 81" fill="none" xmlns="http://www.w3.org/2000/svg">
<g id="icon / launch">
<path id="Vector" d="M45.2098 69.6948C40.6978 69.7588 36.2391 68.1961 30.3031 66.9481C24.4471 65.7108 17.0871 64.7508 11.8818 60.7188C6.68176 56.6868 3.67909 49.5455 5.52976 43.8815C7.41243 38.2548 14.2604 34.0788 19.7164 30.9961C25.2098 27.8761 29.2791 25.8068 33.9618 21.7321C38.6444 17.6575 43.9138 11.4601 49.3484 10.8841C54.7724 10.3828 60.3244 15.4548 62.7671 21.3695C65.2471 27.2521 64.5804 34.0041 65.9351 40.1428C67.2578 46.2388 70.6498 51.7534 69.7698 56.0414C68.8578 60.2868 63.6738 63.2948 58.9004 65.6468C54.0898 67.9508 49.6471 69.6255 45.2151 69.7001L45.2098 69.6948Z" fill="#FDD6C3"/>
<g id="Vector_2">
<path d="M33.0029 36.1963L30.4216 35.327C28.6349 34.8417 26.7256 35.3643 25.4349 36.687L22.6562 39.4657C22.3309 39.791 22.1976 40.2603 22.2989 40.7083C22.4269 41.1243 22.7736 41.439 23.2056 41.519L29.3976 42.7617" fill="white"/>
<path d="M33.0029 36.1963L30.4216 35.327C28.6349 34.8417 26.7256 35.3643 25.4349 36.687L22.6562 39.4657C22.3309 39.791 22.1976 40.2603 22.2989 40.7083C22.4269 41.1243 22.7736 41.439 23.2056 41.519L29.3976 42.7617" stroke="#281E1E" stroke-width="2" stroke-linecap="round" stroke-linejoin="round"/>
</g>
<g id="Vector_3">
<path d="M42.6989 45.8174L43.5096 48.4201C43.9949 50.2068 43.4722 52.1161 42.1496 53.4068L39.3922 56.1854C39.0776 56.5161 38.6136 56.6494 38.1709 56.5428C37.7442 56.4254 37.4189 56.0734 37.3442 55.6361L36.1016 49.4441" fill="white"/>
<path d="M42.6989 45.8174L43.5096 48.4201C43.9949 50.2068 43.4722 52.1161 42.1496 53.4068L39.3922 56.1854C39.0776 56.5161 38.6136 56.6494 38.1709 56.5428C37.7442 56.4254 37.4189 56.0734 37.3442 55.6361L36.1016 49.4441" stroke="#281E1E" stroke-width="2" stroke-linecap="round" stroke-linejoin="round"/>
</g>
<path id="Vector_4" d="M56.393 21.2897C39.6783 19.615 34.7076 31.423 28.793 42.1857L35.4756 48.8683C46.2596 42.9323 58.0676 38.0043 56.393 21.2897Z" fill="white" stroke="#281E1E" stroke-width="2" stroke-linecap="round" stroke-linejoin="round"/>
<path id="Vector_5" d="M32.9062 36.2065L42.0529 45.3532" stroke="#281E1E" stroke-width="2" stroke-linecap="round" stroke-linejoin="round"/>
<path id="Vector_6" d="M28.7627 56.8573C25.8241 59.796 20.1867 58.8307 20.1867 58.8307C20.1867 58.8307 19.1414 53.1933 22.1601 50.2547C23.6107 48.516 26.1974 48.2813 27.9361 49.732C28.1974 49.9507 28.4267 50.196 28.6294 50.468C30.4267 51.8653 30.7467 54.4573 29.3441 56.2493C29.1734 56.468 28.9761 56.6707 28.7627 56.852V56.8573Z" stroke="#281E1E" stroke-width="2" stroke-linecap="round" stroke-linejoin="round"/>
<path id="Vector_7" d="M46.9373 35.4495C48.8961 35.4495 50.484 33.8616 50.484 31.9028C50.484 29.944 48.8961 28.3561 46.9373 28.3561C44.9785 28.3561 43.3906 29.944 43.3906 31.9028C43.3906 33.8616 44.9785 35.4495 46.9373 35.4495Z" stroke="#281E1E" stroke-width="2" stroke-linecap="round" stroke-linejoin="round"/>
</g>
</svg>
