<svg width="104" height="104" viewBox="0 0 104 104" fill="none" xmlns="http://www.w3.org/2000/svg">
<g id="icon / launch">
<path id="Vector" d="M58.7746 89.4816C52.909 89.5648 47.1128 87.5333 39.396 85.9109C31.7832 84.3024 22.2152 83.0544 15.4482 77.8128C8.68824 72.5712 4.78477 63.2874 7.19064 55.9242C9.63811 48.6096 18.5405 43.1808 25.6333 39.1733C32.7746 35.1173 38.0648 32.4272 44.1522 27.1301C50.2397 21.833 57.0898 13.7765 64.1549 13.0277C71.2061 12.376 78.4237 18.9696 81.5992 26.6586C84.8232 34.3061 83.9565 43.0837 85.7176 51.064C87.437 58.9888 91.8466 66.1578 90.7026 71.7322C89.517 77.2512 82.7778 81.1616 76.5725 84.2192C70.3186 87.2144 64.5432 89.3914 58.7816 89.4885L58.7746 89.4816Z" fill="#A6BAD2"/>
<g id="Vector_2">
<path d="M42.9038 45.9337L39.548 44.8035C37.2254 44.1726 34.7432 44.8521 33.0653 46.5715L29.4531 50.1838C29.0302 50.6067 28.8568 51.2169 28.9886 51.7993C29.155 52.3401 29.6056 52.7491 30.1672 52.8531L38.2168 54.4686" fill="white"/>
<path d="M42.9038 45.9337L39.548 44.8035C37.2254 44.1726 34.7432 44.8521 33.0653 46.5715L29.4531 50.1838C29.0302 50.6067 28.8568 51.2169 28.9886 51.7993C29.155 52.3401 29.6056 52.7491 30.1672 52.8531L38.2168 54.4686" stroke="#281E1E" stroke-width="2" stroke-linecap="round" stroke-linejoin="round"/>
</g>
<g id="Vector_3">
<path d="M55.5101 58.441L56.564 61.8245C57.1949 64.1472 56.5155 66.6293 54.796 68.3072L51.2115 71.9194C50.8024 72.3493 50.1992 72.5226 49.6237 72.384C49.0691 72.2314 48.6461 71.7738 48.5491 71.2053L46.9336 63.1557" fill="white"/>
<path d="M55.5101 58.441L56.564 61.8245C57.1949 64.1472 56.5155 66.6293 54.796 68.3072L51.2115 71.9194C50.8024 72.3493 50.1992 72.5226 49.6237 72.384C49.0691 72.2314 48.6461 71.7738 48.5491 71.2053L46.9336 63.1557" stroke="#281E1E" stroke-width="2" stroke-linecap="round" stroke-linejoin="round"/>
</g>
<path id="Vector_4" d="M73.3136 26.5549C51.5845 24.3778 45.1227 39.7282 37.4336 53.7197L46.1211 62.4071C60.1403 54.6903 75.4907 48.2839 73.3136 26.5549Z" fill="white" stroke="#281E1E" stroke-width="2" stroke-linecap="round" stroke-linejoin="round"/>
<path id="Vector_5" d="M42.7773 45.9469L54.668 57.8376" stroke="#281E1E" stroke-width="2" stroke-linecap="round" stroke-linejoin="round"/>
<path id="Vector_6" d="M37.392 72.7928C33.5717 76.6131 26.2432 75.3582 26.2432 75.3582C26.2432 75.3582 24.8842 68.0296 28.8085 64.2094C30.6944 61.9491 34.057 61.644 36.3173 63.5299C36.657 63.8142 36.9552 64.1331 37.2186 64.4867C39.5552 66.3032 39.9712 69.6728 38.1477 72.0024C37.9258 72.2867 37.6693 72.5502 37.392 72.7859V72.7928Z" stroke="#281E1E" stroke-width="2" stroke-linecap="round" stroke-linejoin="round"/>
<path id="Vector_7" d="M61.0208 44.9627C63.5672 44.9627 65.6315 42.8984 65.6315 40.352C65.6315 37.8056 63.5672 35.7413 61.0208 35.7413C58.4744 35.7413 56.4102 37.8056 56.4102 40.352C56.4102 42.8984 58.4744 44.9627 61.0208 44.9627Z" stroke="#281E1E" stroke-width="2" stroke-linecap="round" stroke-linejoin="round"/>
</g>
</svg>
