<?xml version="1.0" encoding="UTF-8"?><svg id="Layer_1" xmlns="http://www.w3.org/2000/svg" viewBox="0 0 24 24"><defs><style>.cls-1{stroke-width:.63px;}.cls-1,.cls-2,.cls-3,.cls-4{fill:none;stroke:#1e1e34;stroke-linecap:round;stroke-linejoin:round;}.cls-2{stroke-width:.64px;}.cls-3{stroke-width:.42px;}.cls-4{stroke-width:.43px;}</style></defs><polygon class="cls-1" points="4.81 19.03 2.79 12.72 5.96 11.7 6.97 14.86 7.98 18.01 4.81 19.03"/><path class="cls-2" d="M7.72,17.2l1.19-.38,5.07,1.88c.25.09.54.08.78-.05l5.77-3.01c.33-.17.58-.48.65-.84.04-.2.04-.43-.07-.68-.01-.03-.02-.05-.04-.08-.25-.47-.84-.66-1.33-.44l-3.87,1.7"/><path class="cls-2" d="M6.27,12.66s3.61-2.33,5.58.44l3.1,1.6c.33.17.58.47.66.83.05.24.04.52-.17.77-.53.63-1.12.36-1.12.36l-1.75-.81"/><path class="cls-3" d="M20.77,7.87v-2.41c0-.27-.22-.48-.48-.48h-7.71c-.27,0-.48.22-.48.48v3.86c0,.27.22.48.48.48h7.64c.31,0,.56-.25.56-.56v-1.37Z"/><line class="cls-3" x1="12.09" y1="6.66" x2="13.78" y2="4.97"/><line class="cls-3" x1="20.77" y1="6.66" x2="19.08" y2="4.97"/><line class="cls-3" x1="12.09" y1="8.05" x2="13.78" y2="9.74"/><path class="cls-3" d="M17.39,6.42h-1.52c-.22,0-.4.19-.4.41,0,.18.13.34.31.39l1.31.33c.22.06.35.28.29.49-.05.18-.21.3-.39.31h-1.53"/><line class="cls-3" x1="16.43" y1="6.42" x2="16.43" y2="5.94"/><line class="cls-3" x1="16.43" y1="8.83" x2="16.43" y2="8.35"/><line class="cls-3" x1="20.77" y1="8.05" x2="19.08" y2="9.74"/><line class="cls-4" x1="12.09" y1="10.68" x2="20.73" y2="10.68"/><line class="cls-4" x1="12.13" y1="11.51" x2="20.77" y2="11.51"/></svg>