<svg width="24" height="25" viewBox="0 0 24 25" fill="none" xmlns="http://www.w3.org/2000/svg">
<g id="icon / multi device">
<path id="Vector" d="M13.8078 5.53491H5.36621V14.8661H13.8078V5.53491Z" stroke="#FF9878" stroke-linecap="round" stroke-linejoin="round"/>
<path id="Vector_2" d="M17.136 6.79395H6.78076V19.6051H17.136V6.79395Z" fill="white" stroke="#FF9878" stroke-linecap="round" stroke-linejoin="round"/>
<path id="Vector_3" d="M12.7727 9.85962H8.14551V13.6804H12.7727V9.85962Z" stroke="#FF9878" stroke-linecap="round" stroke-linejoin="round"/>
<path id="Vector_4" d="M6.97266 8.69629H17.1359" stroke="#FF9878" stroke-linecap="round" stroke-linejoin="round"/>
<path id="Vector_5" d="M19.045 9.70923H14.8578C14.4372 9.70923 14.0962 10.0502 14.0962 10.4708V17.7044C14.0962 18.125 14.4372 18.466 14.8578 18.466H19.045C19.4656 18.466 19.8066 18.125 19.8066 17.7044V10.4708C19.8066 10.0502 19.4656 9.70923 19.045 9.70923Z" fill="white" stroke="#FF9878" stroke-miterlimit="10"/>
<path id="Vector_6" d="M19.8082 16.9429H14.0962" stroke="#FF9878" stroke-miterlimit="10"/>
<path id="Vector_7" d="M16 10.4707H17.904" stroke="#FF9878" stroke-miterlimit="10"/>
<path id="Vector_8" d="M7.56892 7.75565C7.56892 7.66331 7.64378 7.58845 7.73612 7.58845C7.82846 7.58845 7.90332 7.66331 7.90332 7.75565C7.90332 7.84799 7.82846 7.92285 7.73612 7.92285C7.64378 7.92285 7.56892 7.84799 7.56892 7.75565Z" fill="#281E1E" stroke="#FF9878"/>
<path id="Vector_9" d="M8.62577 8.08845C8.80957 8.08845 8.95857 7.93945 8.95857 7.75565C8.95857 7.57185 8.80957 7.42285 8.62577 7.42285C8.44197 7.42285 8.29297 7.57185 8.29297 7.75565C8.29297 7.93945 8.44197 8.08845 8.62577 8.08845Z" fill="#281E1E"/>
<path id="Vector_10" d="M9.51346 8.08845C9.69726 8.08845 9.84626 7.93945 9.84626 7.75565C9.84626 7.57185 9.69726 7.42285 9.51346 7.42285C9.32966 7.42285 9.18066 7.57185 9.18066 7.75565C9.18066 7.93945 9.32966 8.08845 9.51346 8.08845Z" fill="#281E1E"/>
</g>
</svg>
