<svg width="256" height="98" viewBox="0 0 256 98" fill="none" xmlns="http://www.w3.org/2000/svg">
<g id="Container">
<g id="Group 2">
<path id="Vector" d="M53.6565 66.5541C52.2727 66.6932 51.3832 66.8616 50.4973 66.8653C43.1941 66.8872 35.8872 66.7847 28.5877 66.9129C24.7512 66.9824 21.365 64.0428 21.5041 59.9282C21.7567 52.4419 21.57 44.941 21.5774 37.4475C21.581 33.5415 24.1289 31.0156 28.0862 31.0082C35.7554 30.9973 43.4247 30.9973 51.094 31.0082C54.8462 31.0156 57.6028 33.5781 57.6394 37.3303C57.7163 45.0033 57.6614 52.6799 57.6614 60.8799C55.4905 59.1484 53.5723 57.6695 51.7346 56.099C51.471 55.8757 51.5589 55.1985 51.5552 54.7335C51.5442 51.1057 51.5625 47.4816 51.5479 43.8538C51.5259 39.5085 49.2746 37.2205 44.9476 37.1729C41.3564 37.1327 37.7652 37.118 34.174 37.1546C30.0044 37.1949 27.7494 39.428 27.7054 43.5646C27.6652 47.251 27.6725 50.9374 27.7054 54.6237C27.7421 58.6945 29.9458 60.847 34.0788 60.8726C37.7908 60.8946 41.5028 60.8616 45.2148 60.8946C45.7895 60.8983 46.4924 60.9495 46.9171 61.2643C49.0513 62.8531 51.1123 64.537 53.6565 66.5541Z" fill="#DD653A"/>
<path id="Vector_2" d="M135.02 41.5914C137.392 41.5914 139.764 41.5182 142.133 41.6097C144.791 41.7159 145.706 42.6896 145.742 45.3437C145.786 48.3638 145.79 51.3802 145.742 54.4004C145.698 57.0031 144.739 58.0684 142.093 58.1197C137.293 58.2112 132.487 58.2149 127.684 58.1087C125.088 58.0501 124.265 57.0617 124.239 54.4626C124.21 51.3839 124.206 48.3052 124.239 45.2265C124.265 42.6347 125.088 41.7305 127.724 41.617C130.155 41.5072 132.589 41.5914 135.02 41.5914ZM141.437 44.8604C137.081 44.8604 132.805 44.8604 128.456 44.8604C128.456 48.2064 128.456 51.4827 128.456 54.7957C132.849 54.7957 137.121 54.7957 141.437 54.7957C141.437 51.4315 141.437 48.1954 141.437 44.8604Z" fill="#DD653A"/>
<path id="Vector_3" d="M80.109 41.5914C82.4811 41.5914 84.8533 41.5182 87.2218 41.6097C89.8795 41.7159 90.7947 42.6896 90.8313 45.3437C90.8752 48.3638 90.8789 51.3802 90.8313 54.4004C90.7874 57.0031 89.8282 58.0684 87.1815 58.1197C82.3823 58.2112 77.5757 58.2149 72.7728 58.1087C70.1773 58.0501 69.3537 57.0617 69.328 54.4626C69.2988 51.3839 69.2951 48.3052 69.328 45.2265C69.3537 42.6347 70.1773 41.7305 72.8131 41.617C75.2438 41.5072 77.6782 41.5914 80.109 41.5914ZM86.5262 44.8604C82.17 44.8604 77.8942 44.8604 73.5452 44.8604C73.5452 48.2064 73.5452 51.4827 73.5452 54.7957C77.9381 54.7957 82.2102 54.7957 86.5262 54.7957C86.5262 51.4315 86.5262 48.1954 86.5262 44.8604Z" fill="#DD653A"/>
<path id="Vector_4" d="M156.355 47.1742C156.355 49.3303 156.355 51.0802 156.355 52.83C156.355 54.514 156.355 56.1942 156.355 58.021C155.067 58.021 153.899 58.021 152.603 58.021C152.603 52.5847 152.603 47.1888 152.603 41.7489C154.155 41.3902 155.422 41.5329 156.699 42.5726C160.367 45.5524 164.134 48.4115 167.865 51.3145C168.231 51.6 168.615 51.8672 169.27 52.3431C169.27 48.6385 169.27 45.2376 169.27 41.7087C170.581 41.7087 171.701 41.7087 172.971 41.7087C172.971 47.0826 172.971 52.4749 172.971 57.9953C171.544 58.2955 170.303 58.2589 169.003 57.19C164.954 53.8514 160.781 50.6592 156.355 47.1742Z" fill="#DD653A"/>
<path id="Vector_5" d="M233.377 47.1777C232.034 47.3681 230.789 47.5438 229.369 47.7415C229.299 46.7128 229.24 45.8342 229.175 44.8568C225.69 44.8568 222.241 44.8568 218.679 44.8568C218.679 48.1441 218.679 51.4278 218.679 54.8177C222.175 54.8177 225.613 54.8177 229.171 54.8177C229.226 53.6865 229.281 52.6322 229.343 51.4022C230.767 51.6804 232.048 51.933 233.494 52.2149C233.494 53.0129 233.509 53.7231 233.491 54.4333C233.425 56.9226 232.627 57.9879 230.17 58.0758C226.037 58.2222 221.89 58.2185 217.753 58.0904C215.352 58.0172 214.521 57.0178 214.484 54.6273C214.436 51.4242 214.436 48.2174 214.488 45.0142C214.524 42.7482 215.264 41.7598 217.453 41.6829C221.769 41.5365 226.1 41.4926 230.412 41.6866C233.077 41.811 233.714 43.2021 233.377 47.1777Z" fill="#DD653A"/>
<path id="Vector_6" d="M113.158 41.6428C114.681 41.6428 115.874 41.6428 117.339 41.6428C117.339 42.5287 117.342 43.3487 117.339 44.1651C117.328 47.727 117.353 51.2926 117.284 54.8508C117.244 56.9118 116.53 57.9002 114.516 57.9734C109.845 58.1382 105.167 58.0942 100.492 58.0137C98.5847 57.9807 97.6769 56.6848 97.6586 54.8874C97.611 50.5458 97.6439 46.2041 97.6439 41.716C99.035 41.716 100.324 41.716 101.795 41.716C101.795 46.065 101.795 50.3884 101.795 54.8398C105.639 54.8398 109.307 54.8398 113.158 54.8398C113.158 50.4689 113.158 46.1455 113.158 41.6428Z" fill="#DD653A"/>
<path id="Vector_7" d="M39.6945 54.9277C38.2339 54.9277 36.7733 54.8801 35.3163 54.9423C34.1558 54.9936 33.658 54.5835 33.6763 53.3865C33.7239 50.4872 33.7165 47.5879 33.6799 44.6885C33.6653 43.5903 34.1558 43.1767 35.2174 43.1876C38.1387 43.2096 41.0563 43.2169 43.9776 43.1803C45.1198 43.1657 45.6396 43.5684 45.6176 44.7618C45.57 47.6611 45.581 50.5604 45.6103 53.4597C45.6213 54.5433 45.16 54.9789 44.0728 54.9386C42.6158 54.8874 41.1515 54.9277 39.6945 54.9277Z" fill="#DD653A"/>
<path id="Vector_8" d="M190.44 58.0613C188.917 58.0613 187.669 58.0613 186.194 58.0613C186.194 53.6721 186.194 49.3011 186.194 44.7069C183.463 44.7069 180.944 44.7069 178.338 44.7069C178.338 43.594 178.338 42.7081 178.338 41.6941C184.982 41.6941 191.572 41.6941 198.274 41.6941C198.274 42.6276 198.274 43.5062 198.274 44.6227C195.734 44.6227 193.16 44.6227 190.444 44.6227C190.44 49.1803 190.44 53.5037 190.44 58.0613Z" fill="#DD653A"/>
<path id="Vector_9" d="M207.466 58.061C206.137 58.061 204.9 58.061 203.557 58.061C203.557 52.5663 203.557 47.174 203.557 41.6755C204.896 41.6755 206.134 41.6755 207.466 41.6755C207.466 47.1703 207.466 52.5626 207.466 58.061Z" fill="#DD653A"/>
<path id="Vector_10" d="M86.6984 61.7733H83.0926L78.5679 51.4097L81.3464 50.1321L86.6984 61.7733Z" fill="#DD653A"/>
</g>
</g>
</svg>
