<svg xmlns="http://www.w3.org/2000/svg" width="24" height="24" viewBox="0 0 24 24" fill="none">
    <path fill-rule="evenodd" clip-rule="evenodd" d="M10.7984 4.20039C7.15336 4.20039 4.19844 7.15531 4.19844 10.8004C4.19844 14.4455 7.15336 17.4004 10.7984 17.4004C12.6212 17.4004 14.27 16.6626 15.4653 15.4673C16.6607 14.2719 17.3984 12.6232 17.3984 10.8004C17.3984 7.15531 14.4435 4.20039 10.7984 4.20039ZM2.39844 10.8004C2.39844 6.1612 6.15925 2.40039 10.7984 2.40039C15.4376 2.40039 19.1984 6.1612 19.1984 10.8004C19.1984 12.7954 18.5021 14.6291 17.3405 16.0697L21.3348 20.064C21.6863 20.4155 21.6863 20.9853 21.3348 21.3368C20.9834 21.6883 20.4135 21.6883 20.062 21.3368L16.0677 17.3425C14.6271 18.504 12.7935 19.2004 10.7984 19.2004C6.15925 19.2004 2.39844 15.4396 2.39844 10.8004Z" fill="white"/>
</svg>