<svg width="80" height="81" viewBox="0 0 80 81" fill="none" xmlns="http://www.w3.org/2000/svg">
<g id="icon / time">
<path id="Vector" d="M10.1097 50.415C9.48034 44.2283 7.09634 38.2817 8.07768 32.9803C9.05901 27.679 13.4537 22.9377 18.7603 18.5163C24.099 14.1323 30.4243 10.015 37.251 9.22568C44.0403 8.46301 51.4003 11.039 56.7443 15.6577C62.051 20.3083 65.379 26.975 67.8057 33.7803C70.3017 40.591 71.9017 47.471 68.915 52.1964C65.9657 56.895 58.4297 59.4443 53.2457 62.991C48.0883 66.575 45.3203 71.1297 41.171 73.5404C36.9843 75.983 31.3577 76.2764 25.6777 75.1883C19.9923 74.1644 14.2217 71.727 11.9283 67.359C9.60834 62.959 10.771 56.5644 10.1043 50.4043L10.1097 50.415Z" fill="#A6BAD2"/>
<path id="Vector_2" d="M36.1406 19.0654H39.906" stroke="#281E1E" stroke-width="2" stroke-linecap="round" stroke-linejoin="round"/>
<g id="Vector_3">
<path d="M38.0234 19.0654V24.7134V19.0654Z" fill="#A6BAD2"/>
<path d="M38.0234 19.0654V24.7134" stroke="#281E1E" stroke-width="2" stroke-linecap="round" stroke-linejoin="round"/>
</g>
<path id="Vector_4" d="M53.0938 24.7133L55.9204 27.54" stroke="#281E1E" stroke-width="2" stroke-linecap="round" stroke-linejoin="round"/>
<path id="Vector_5" d="M54.5045 26.1268L50.8672 29.7694" stroke="#281E1E" stroke-width="2" stroke-linecap="round" stroke-linejoin="round"/>
<path id="Vector_6" d="M19.2031 43.5453C19.2031 53.9453 27.6298 62.3773 38.0298 62.3773C48.4298 62.3773 56.8618 53.9507 56.8618 43.5507C56.8618 33.1453 48.4351 24.7133 38.0351 24.7133C27.6351 24.7133 19.2031 33.14 19.2031 43.54C19.2031 43.54 19.2031 43.54 19.2031 43.5453Z" fill="white" stroke="#281E1E" stroke-width="2" stroke-linecap="round" stroke-linejoin="round"/>
<path id="Vector_7" d="M24.8516 43.5456H28.6169" stroke="#281E1E" stroke-width="2" stroke-linecap="round" stroke-linejoin="round"/>
<path id="Vector_8" d="M28.6172 34.1268L31.4439 36.9534" stroke="#281E1E" stroke-width="2" stroke-linecap="round" stroke-linejoin="round"/>
<path id="Vector_9" d="M28.6172 52.9588L31.4439 50.1321" stroke="#281E1E" stroke-width="2" stroke-linecap="round" stroke-linejoin="round"/>
<path id="Vector_10" d="M51.2106 43.5456H47.4453" stroke="#281E1E" stroke-width="2" stroke-linecap="round" stroke-linejoin="round"/>
<path id="Vector_11" d="M38.0234 56.7239V52.9586" stroke="#281E1E" stroke-width="2" stroke-linecap="round" stroke-linejoin="round"/>
<path id="Vector_12" d="M38.0234 30.3612V34.1265" stroke="#281E1E" stroke-width="2" stroke-linecap="round" stroke-linejoin="round"/>
<path id="Vector_13" d="M47.4439 52.9588L44.6172 50.1321" stroke="#281E1E" stroke-width="2" stroke-linecap="round" stroke-linejoin="round"/>
<path id="Vector_14" d="M47.4439 34.1268L44.6172 36.9534" stroke="#281E1E" stroke-width="2" stroke-linecap="round" stroke-linejoin="round"/>
</g>
</svg>
